G04 #@! TF.GenerationSoftware,KiCad,Pcbnew,(5.1.5)-3*
G04 #@! TF.CreationDate,2020-06-14T16:13:44+03:00*
G04 #@! TF.ProjectId,dev_board,6465765f-626f-4617-9264-2e6b69636164,rev?*
G04 #@! TF.SameCoordinates,Original*
G04 #@! TF.FileFunction,Soldermask,Top*
G04 #@! TF.FilePolarity,Negative*
%FSLAX46Y46*%
G04 Gerber Fmt 4.6, Leading zero omitted, Abs format (unit mm)*
G04 Created by KiCad (PCBNEW (5.1.5)-3) date 2020-06-14 16:13:44*
%MOMM*%
%LPD*%
G04 APERTURE LIST*
%ADD10C,0.100000*%
G04 APERTURE END LIST*
D10*
G36*
X75548156Y-70672794D02*
G01*
X76269140Y-70816206D01*
X77060972Y-71144193D01*
X77773601Y-71620357D01*
X78379643Y-72226399D01*
X78855807Y-72939028D01*
X79183794Y-73730860D01*
X79351000Y-74571464D01*
X79351000Y-75428536D01*
X79183794Y-76269140D01*
X78855807Y-77060972D01*
X78379643Y-77773601D01*
X77773601Y-78379643D01*
X77060972Y-78855807D01*
X76269140Y-79183794D01*
X75548156Y-79327206D01*
X75428537Y-79351000D01*
X74571463Y-79351000D01*
X74451844Y-79327206D01*
X73730860Y-79183794D01*
X72939028Y-78855807D01*
X72226399Y-78379643D01*
X71620357Y-77773601D01*
X71144193Y-77060972D01*
X70816206Y-76269140D01*
X70649000Y-75428536D01*
X70649000Y-74571464D01*
X70816206Y-73730860D01*
X71144193Y-72939028D01*
X71620357Y-72226399D01*
X72226399Y-71620357D01*
X72939028Y-71144193D01*
X73730860Y-70816206D01*
X74451844Y-70672794D01*
X74571463Y-70649000D01*
X75428537Y-70649000D01*
X75548156Y-70672794D01*
G37*
G36*
X35548156Y-70672794D02*
G01*
X36269140Y-70816206D01*
X37060972Y-71144193D01*
X37773601Y-71620357D01*
X38379643Y-72226399D01*
X38855807Y-72939028D01*
X39183794Y-73730860D01*
X39351000Y-74571464D01*
X39351000Y-75428536D01*
X39183794Y-76269140D01*
X38855807Y-77060972D01*
X38379643Y-77773601D01*
X37773601Y-78379643D01*
X37060972Y-78855807D01*
X36269140Y-79183794D01*
X35548156Y-79327206D01*
X35428537Y-79351000D01*
X34571463Y-79351000D01*
X34451844Y-79327206D01*
X33730860Y-79183794D01*
X32939028Y-78855807D01*
X32226399Y-78379643D01*
X31620357Y-77773601D01*
X31144193Y-77060972D01*
X30816206Y-76269140D01*
X30649000Y-75428536D01*
X30649000Y-74571464D01*
X30816206Y-73730860D01*
X31144193Y-72939028D01*
X31620357Y-72226399D01*
X32226399Y-71620357D01*
X32939028Y-71144193D01*
X33730860Y-70816206D01*
X34451844Y-70672794D01*
X34571463Y-70649000D01*
X35428537Y-70649000D01*
X35548156Y-70672794D01*
G37*
G36*
X49303512Y-76213927D02*
G01*
X49452812Y-76243624D01*
X49616784Y-76311544D01*
X49764354Y-76410147D01*
X49889853Y-76535646D01*
X49988456Y-76683216D01*
X50056376Y-76847188D01*
X50091000Y-77021259D01*
X50091000Y-77198741D01*
X50056376Y-77372812D01*
X49988456Y-77536784D01*
X49889853Y-77684354D01*
X49764354Y-77809853D01*
X49616784Y-77908456D01*
X49452812Y-77976376D01*
X49303512Y-78006073D01*
X49278742Y-78011000D01*
X49101258Y-78011000D01*
X49076488Y-78006073D01*
X48927188Y-77976376D01*
X48763216Y-77908456D01*
X48615646Y-77809853D01*
X48490147Y-77684354D01*
X48391544Y-77536784D01*
X48323624Y-77372812D01*
X48289000Y-77198741D01*
X48289000Y-77021259D01*
X48323624Y-76847188D01*
X48391544Y-76683216D01*
X48490147Y-76535646D01*
X48615646Y-76410147D01*
X48763216Y-76311544D01*
X48927188Y-76243624D01*
X49076488Y-76213927D01*
X49101258Y-76209000D01*
X49278742Y-76209000D01*
X49303512Y-76213927D01*
G37*
G36*
X54383512Y-76213927D02*
G01*
X54532812Y-76243624D01*
X54696784Y-76311544D01*
X54844354Y-76410147D01*
X54969853Y-76535646D01*
X55068456Y-76683216D01*
X55136376Y-76847188D01*
X55171000Y-77021259D01*
X55171000Y-77198741D01*
X55136376Y-77372812D01*
X55068456Y-77536784D01*
X54969853Y-77684354D01*
X54844354Y-77809853D01*
X54696784Y-77908456D01*
X54532812Y-77976376D01*
X54383512Y-78006073D01*
X54358742Y-78011000D01*
X54181258Y-78011000D01*
X54156488Y-78006073D01*
X54007188Y-77976376D01*
X53843216Y-77908456D01*
X53695646Y-77809853D01*
X53570147Y-77684354D01*
X53471544Y-77536784D01*
X53403624Y-77372812D01*
X53369000Y-77198741D01*
X53369000Y-77021259D01*
X53403624Y-76847188D01*
X53471544Y-76683216D01*
X53570147Y-76535646D01*
X53695646Y-76410147D01*
X53843216Y-76311544D01*
X54007188Y-76243624D01*
X54156488Y-76213927D01*
X54181258Y-76209000D01*
X54358742Y-76209000D01*
X54383512Y-76213927D01*
G37*
G36*
X57711000Y-78011000D02*
G01*
X55909000Y-78011000D01*
X55909000Y-76209000D01*
X57711000Y-76209000D01*
X57711000Y-78011000D01*
G37*
G36*
X51843512Y-76213927D02*
G01*
X51992812Y-76243624D01*
X52156784Y-76311544D01*
X52304354Y-76410147D01*
X52429853Y-76535646D01*
X52528456Y-76683216D01*
X52596376Y-76847188D01*
X52631000Y-77021259D01*
X52631000Y-77198741D01*
X52596376Y-77372812D01*
X52528456Y-77536784D01*
X52429853Y-77684354D01*
X52304354Y-77809853D01*
X52156784Y-77908456D01*
X51992812Y-77976376D01*
X51843512Y-78006073D01*
X51818742Y-78011000D01*
X51641258Y-78011000D01*
X51616488Y-78006073D01*
X51467188Y-77976376D01*
X51303216Y-77908456D01*
X51155646Y-77809853D01*
X51030147Y-77684354D01*
X50931544Y-77536784D01*
X50863624Y-77372812D01*
X50829000Y-77198741D01*
X50829000Y-77021259D01*
X50863624Y-76847188D01*
X50931544Y-76683216D01*
X51030147Y-76535646D01*
X51155646Y-76410147D01*
X51303216Y-76311544D01*
X51467188Y-76243624D01*
X51616488Y-76213927D01*
X51641258Y-76209000D01*
X51818742Y-76209000D01*
X51843512Y-76213927D01*
G37*
G36*
X58789591Y-64033085D02*
G01*
X58823569Y-64043393D01*
X58854890Y-64060134D01*
X58882339Y-64082661D01*
X58904866Y-64110110D01*
X58921607Y-64141431D01*
X58931915Y-64175409D01*
X58936000Y-64216890D01*
X58936000Y-64818110D01*
X58931915Y-64859591D01*
X58921607Y-64893569D01*
X58904866Y-64924890D01*
X58882339Y-64952339D01*
X58854890Y-64974866D01*
X58823569Y-64991607D01*
X58789591Y-65001915D01*
X58748110Y-65006000D01*
X58071890Y-65006000D01*
X58030409Y-65001915D01*
X57996431Y-64991607D01*
X57965110Y-64974866D01*
X57937661Y-64952339D01*
X57915134Y-64924890D01*
X57898393Y-64893569D01*
X57888085Y-64859591D01*
X57884000Y-64818110D01*
X57884000Y-64216890D01*
X57888085Y-64175409D01*
X57898393Y-64141431D01*
X57915134Y-64110110D01*
X57937661Y-64082661D01*
X57965110Y-64060134D01*
X57996431Y-64043393D01*
X58030409Y-64033085D01*
X58071890Y-64029000D01*
X58748110Y-64029000D01*
X58789591Y-64033085D01*
G37*
G36*
X51771938Y-63461716D02*
G01*
X51792557Y-63467971D01*
X51811553Y-63478124D01*
X51828208Y-63491792D01*
X51841876Y-63508447D01*
X51852029Y-63527443D01*
X51858284Y-63548062D01*
X51861000Y-63575640D01*
X51861000Y-64084360D01*
X51858284Y-64111938D01*
X51852029Y-64132557D01*
X51841876Y-64151553D01*
X51828208Y-64168208D01*
X51811553Y-64181876D01*
X51792557Y-64192029D01*
X51771938Y-64198284D01*
X51744360Y-64201000D01*
X51285640Y-64201000D01*
X51258062Y-64198284D01*
X51237443Y-64192029D01*
X51218447Y-64181876D01*
X51201792Y-64168208D01*
X51188124Y-64151553D01*
X51177971Y-64132557D01*
X51171716Y-64111938D01*
X51169000Y-64084360D01*
X51169000Y-63575640D01*
X51171716Y-63548062D01*
X51177971Y-63527443D01*
X51188124Y-63508447D01*
X51201792Y-63491792D01*
X51218447Y-63478124D01*
X51237443Y-63467971D01*
X51258062Y-63461716D01*
X51285640Y-63459000D01*
X51744360Y-63459000D01*
X51771938Y-63461716D01*
G37*
G36*
X50801938Y-63461716D02*
G01*
X50822557Y-63467971D01*
X50841553Y-63478124D01*
X50858208Y-63491792D01*
X50871876Y-63508447D01*
X50882029Y-63527443D01*
X50888284Y-63548062D01*
X50891000Y-63575640D01*
X50891000Y-64084360D01*
X50888284Y-64111938D01*
X50882029Y-64132557D01*
X50871876Y-64151553D01*
X50858208Y-64168208D01*
X50841553Y-64181876D01*
X50822557Y-64192029D01*
X50801938Y-64198284D01*
X50774360Y-64201000D01*
X50315640Y-64201000D01*
X50288062Y-64198284D01*
X50267443Y-64192029D01*
X50248447Y-64181876D01*
X50231792Y-64168208D01*
X50218124Y-64151553D01*
X50207971Y-64132557D01*
X50201716Y-64111938D01*
X50199000Y-64084360D01*
X50199000Y-63575640D01*
X50201716Y-63548062D01*
X50207971Y-63527443D01*
X50218124Y-63508447D01*
X50231792Y-63491792D01*
X50248447Y-63478124D01*
X50267443Y-63467971D01*
X50288062Y-63461716D01*
X50315640Y-63459000D01*
X50774360Y-63459000D01*
X50801938Y-63461716D01*
G37*
G36*
X34451000Y-64201000D02*
G01*
X32649000Y-64201000D01*
X32649000Y-62399000D01*
X34451000Y-62399000D01*
X34451000Y-64201000D01*
G37*
G36*
X57281938Y-63461716D02*
G01*
X57302557Y-63467971D01*
X57321553Y-63478124D01*
X57338208Y-63491792D01*
X57351876Y-63508447D01*
X57362029Y-63527443D01*
X57368284Y-63548062D01*
X57371000Y-63575640D01*
X57371000Y-64034360D01*
X57368284Y-64061938D01*
X57362029Y-64082557D01*
X57351876Y-64101553D01*
X57338208Y-64118208D01*
X57321553Y-64131876D01*
X57302557Y-64142029D01*
X57281938Y-64148284D01*
X57254360Y-64151000D01*
X56745640Y-64151000D01*
X56718062Y-64148284D01*
X56697443Y-64142029D01*
X56678447Y-64131876D01*
X56661792Y-64118208D01*
X56648124Y-64101553D01*
X56637971Y-64082557D01*
X56631716Y-64061938D01*
X56629000Y-64034360D01*
X56629000Y-63575640D01*
X56631716Y-63548062D01*
X56637971Y-63527443D01*
X56648124Y-63508447D01*
X56661792Y-63491792D01*
X56678447Y-63478124D01*
X56697443Y-63467971D01*
X56718062Y-63461716D01*
X56745640Y-63459000D01*
X57254360Y-63459000D01*
X57281938Y-63461716D01*
G37*
G36*
X39051000Y-63811000D02*
G01*
X37749000Y-63811000D01*
X37749000Y-62809000D01*
X39051000Y-62809000D01*
X39051000Y-63811000D01*
G37*
G36*
X58789591Y-62458085D02*
G01*
X58823569Y-62468393D01*
X58854890Y-62485134D01*
X58882339Y-62507661D01*
X58904866Y-62535110D01*
X58921607Y-62566431D01*
X58931915Y-62600409D01*
X58936000Y-62641890D01*
X58936000Y-63243110D01*
X58931915Y-63284591D01*
X58921607Y-63318569D01*
X58904866Y-63349890D01*
X58882339Y-63377339D01*
X58854890Y-63399866D01*
X58823569Y-63416607D01*
X58789591Y-63426915D01*
X58748110Y-63431000D01*
X58071890Y-63431000D01*
X58030409Y-63426915D01*
X57996431Y-63416607D01*
X57965110Y-63399866D01*
X57937661Y-63377339D01*
X57915134Y-63349890D01*
X57898393Y-63318569D01*
X57888085Y-63284591D01*
X57884000Y-63243110D01*
X57884000Y-62641890D01*
X57888085Y-62600409D01*
X57898393Y-62566431D01*
X57915134Y-62535110D01*
X57937661Y-62507661D01*
X57965110Y-62485134D01*
X57996431Y-62468393D01*
X58030409Y-62458085D01*
X58071890Y-62454000D01*
X58748110Y-62454000D01*
X58789591Y-62458085D01*
G37*
G36*
X57281938Y-62491716D02*
G01*
X57302557Y-62497971D01*
X57321553Y-62508124D01*
X57338208Y-62521792D01*
X57351876Y-62538447D01*
X57362029Y-62557443D01*
X57368284Y-62578062D01*
X57371000Y-62605640D01*
X57371000Y-63064360D01*
X57368284Y-63091938D01*
X57362029Y-63112557D01*
X57351876Y-63131553D01*
X57338208Y-63148208D01*
X57321553Y-63161876D01*
X57302557Y-63172029D01*
X57281938Y-63178284D01*
X57254360Y-63181000D01*
X56745640Y-63181000D01*
X56718062Y-63178284D01*
X56697443Y-63172029D01*
X56678447Y-63161876D01*
X56661792Y-63148208D01*
X56648124Y-63131553D01*
X56637971Y-63112557D01*
X56631716Y-63091938D01*
X56629000Y-63064360D01*
X56629000Y-62605640D01*
X56631716Y-62578062D01*
X56637971Y-62557443D01*
X56648124Y-62538447D01*
X56661792Y-62521792D01*
X56678447Y-62508124D01*
X56697443Y-62497971D01*
X56718062Y-62491716D01*
X56745640Y-62489000D01*
X57254360Y-62489000D01*
X57281938Y-62491716D01*
G37*
G36*
X61941938Y-62231716D02*
G01*
X61962557Y-62237971D01*
X61981553Y-62248124D01*
X61998208Y-62261792D01*
X62011876Y-62278447D01*
X62022029Y-62297443D01*
X62028284Y-62318062D01*
X62031000Y-62345640D01*
X62031000Y-62854360D01*
X62028284Y-62881938D01*
X62022029Y-62902557D01*
X62011876Y-62921553D01*
X61998208Y-62938208D01*
X61981553Y-62951876D01*
X61962557Y-62962029D01*
X61941938Y-62968284D01*
X61914360Y-62971000D01*
X61455640Y-62971000D01*
X61428062Y-62968284D01*
X61407443Y-62962029D01*
X61388447Y-62951876D01*
X61371792Y-62938208D01*
X61358124Y-62921553D01*
X61347971Y-62902557D01*
X61341716Y-62881938D01*
X61339000Y-62854360D01*
X61339000Y-62345640D01*
X61341716Y-62318062D01*
X61347971Y-62297443D01*
X61358124Y-62278447D01*
X61371792Y-62261792D01*
X61388447Y-62248124D01*
X61407443Y-62237971D01*
X61428062Y-62231716D01*
X61455640Y-62229000D01*
X61914360Y-62229000D01*
X61941938Y-62231716D01*
G37*
G36*
X60971938Y-62231716D02*
G01*
X60992557Y-62237971D01*
X61011553Y-62248124D01*
X61028208Y-62261792D01*
X61041876Y-62278447D01*
X61052029Y-62297443D01*
X61058284Y-62318062D01*
X61061000Y-62345640D01*
X61061000Y-62854360D01*
X61058284Y-62881938D01*
X61052029Y-62902557D01*
X61041876Y-62921553D01*
X61028208Y-62938208D01*
X61011553Y-62951876D01*
X60992557Y-62962029D01*
X60971938Y-62968284D01*
X60944360Y-62971000D01*
X60485640Y-62971000D01*
X60458062Y-62968284D01*
X60437443Y-62962029D01*
X60418447Y-62951876D01*
X60401792Y-62938208D01*
X60388124Y-62921553D01*
X60377971Y-62902557D01*
X60371716Y-62881938D01*
X60369000Y-62854360D01*
X60369000Y-62345640D01*
X60371716Y-62318062D01*
X60377971Y-62297443D01*
X60388124Y-62278447D01*
X60401792Y-62261792D01*
X60418447Y-62248124D01*
X60437443Y-62237971D01*
X60458062Y-62231716D01*
X60485640Y-62229000D01*
X60944360Y-62229000D01*
X60971938Y-62231716D01*
G37*
G36*
X51771938Y-62211716D02*
G01*
X51792557Y-62217971D01*
X51811553Y-62228124D01*
X51828208Y-62241792D01*
X51841876Y-62258447D01*
X51852029Y-62277443D01*
X51858284Y-62298062D01*
X51861000Y-62325640D01*
X51861000Y-62834360D01*
X51858284Y-62861938D01*
X51852029Y-62882557D01*
X51841876Y-62901553D01*
X51828208Y-62918208D01*
X51811553Y-62931876D01*
X51792557Y-62942029D01*
X51771938Y-62948284D01*
X51744360Y-62951000D01*
X51285640Y-62951000D01*
X51258062Y-62948284D01*
X51237443Y-62942029D01*
X51218447Y-62931876D01*
X51201792Y-62918208D01*
X51188124Y-62901553D01*
X51177971Y-62882557D01*
X51171716Y-62861938D01*
X51169000Y-62834360D01*
X51169000Y-62325640D01*
X51171716Y-62298062D01*
X51177971Y-62277443D01*
X51188124Y-62258447D01*
X51201792Y-62241792D01*
X51218447Y-62228124D01*
X51237443Y-62217971D01*
X51258062Y-62211716D01*
X51285640Y-62209000D01*
X51744360Y-62209000D01*
X51771938Y-62211716D01*
G37*
G36*
X50801938Y-62211716D02*
G01*
X50822557Y-62217971D01*
X50841553Y-62228124D01*
X50858208Y-62241792D01*
X50871876Y-62258447D01*
X50882029Y-62277443D01*
X50888284Y-62298062D01*
X50891000Y-62325640D01*
X50891000Y-62834360D01*
X50888284Y-62861938D01*
X50882029Y-62882557D01*
X50871876Y-62901553D01*
X50858208Y-62918208D01*
X50841553Y-62931876D01*
X50822557Y-62942029D01*
X50801938Y-62948284D01*
X50774360Y-62951000D01*
X50315640Y-62951000D01*
X50288062Y-62948284D01*
X50267443Y-62942029D01*
X50248447Y-62931876D01*
X50231792Y-62918208D01*
X50218124Y-62901553D01*
X50207971Y-62882557D01*
X50201716Y-62861938D01*
X50199000Y-62834360D01*
X50199000Y-62325640D01*
X50201716Y-62298062D01*
X50207971Y-62277443D01*
X50218124Y-62258447D01*
X50231792Y-62241792D01*
X50248447Y-62228124D01*
X50267443Y-62217971D01*
X50288062Y-62211716D01*
X50315640Y-62209000D01*
X50774360Y-62209000D01*
X50801938Y-62211716D01*
G37*
G36*
X61931938Y-61091716D02*
G01*
X61952557Y-61097971D01*
X61971553Y-61108124D01*
X61988208Y-61121792D01*
X62001876Y-61138447D01*
X62012029Y-61157443D01*
X62018284Y-61178062D01*
X62021000Y-61205640D01*
X62021000Y-61714360D01*
X62018284Y-61741938D01*
X62012029Y-61762557D01*
X62001876Y-61781553D01*
X61988208Y-61798208D01*
X61971553Y-61811876D01*
X61952557Y-61822029D01*
X61931938Y-61828284D01*
X61904360Y-61831000D01*
X61445640Y-61831000D01*
X61418062Y-61828284D01*
X61397443Y-61822029D01*
X61378447Y-61811876D01*
X61361792Y-61798208D01*
X61348124Y-61781553D01*
X61337971Y-61762557D01*
X61331716Y-61741938D01*
X61329000Y-61714360D01*
X61329000Y-61205640D01*
X61331716Y-61178062D01*
X61337971Y-61157443D01*
X61348124Y-61138447D01*
X61361792Y-61121792D01*
X61378447Y-61108124D01*
X61397443Y-61097971D01*
X61418062Y-61091716D01*
X61445640Y-61089000D01*
X61904360Y-61089000D01*
X61931938Y-61091716D01*
G37*
G36*
X60961938Y-61091716D02*
G01*
X60982557Y-61097971D01*
X61001553Y-61108124D01*
X61018208Y-61121792D01*
X61031876Y-61138447D01*
X61042029Y-61157443D01*
X61048284Y-61178062D01*
X61051000Y-61205640D01*
X61051000Y-61714360D01*
X61048284Y-61741938D01*
X61042029Y-61762557D01*
X61031876Y-61781553D01*
X61018208Y-61798208D01*
X61001553Y-61811876D01*
X60982557Y-61822029D01*
X60961938Y-61828284D01*
X60934360Y-61831000D01*
X60475640Y-61831000D01*
X60448062Y-61828284D01*
X60427443Y-61822029D01*
X60408447Y-61811876D01*
X60391792Y-61798208D01*
X60378124Y-61781553D01*
X60367971Y-61762557D01*
X60361716Y-61741938D01*
X60359000Y-61714360D01*
X60359000Y-61205640D01*
X60361716Y-61178062D01*
X60367971Y-61157443D01*
X60378124Y-61138447D01*
X60391792Y-61121792D01*
X60408447Y-61108124D01*
X60427443Y-61097971D01*
X60448062Y-61091716D01*
X60475640Y-61089000D01*
X60934360Y-61089000D01*
X60961938Y-61091716D01*
G37*
G36*
X33646574Y-59860558D02*
G01*
X33812812Y-59893624D01*
X33976784Y-59961544D01*
X34124354Y-60060147D01*
X34249853Y-60185646D01*
X34348456Y-60333216D01*
X34416376Y-60497188D01*
X34446073Y-60646488D01*
X34451000Y-60671258D01*
X34451000Y-60848742D01*
X34446073Y-60873512D01*
X34416376Y-61022812D01*
X34348456Y-61186784D01*
X34249853Y-61334354D01*
X34124354Y-61459853D01*
X33976784Y-61558456D01*
X33812812Y-61626376D01*
X33663512Y-61656073D01*
X33638742Y-61661000D01*
X33461258Y-61661000D01*
X33436488Y-61656073D01*
X33287188Y-61626376D01*
X33123216Y-61558456D01*
X32975646Y-61459853D01*
X32850147Y-61334354D01*
X32751544Y-61186784D01*
X32683624Y-61022812D01*
X32653927Y-60873512D01*
X32649000Y-60848742D01*
X32649000Y-60671258D01*
X32653927Y-60646488D01*
X32683624Y-60497188D01*
X32751544Y-60333216D01*
X32850147Y-60185646D01*
X32975646Y-60060147D01*
X33123216Y-59961544D01*
X33287188Y-59893624D01*
X33453426Y-59860558D01*
X33461258Y-59859000D01*
X33638742Y-59859000D01*
X33646574Y-59860558D01*
G37*
G36*
X51420295Y-59850323D02*
G01*
X51427309Y-59852451D01*
X51441077Y-59859810D01*
X51463716Y-59869187D01*
X51487749Y-59873967D01*
X51512253Y-59873967D01*
X51536286Y-59869186D01*
X51558923Y-59859810D01*
X51572691Y-59852451D01*
X51579705Y-59850323D01*
X51593140Y-59849000D01*
X51906860Y-59849000D01*
X51920295Y-59850323D01*
X51927309Y-59852451D01*
X51941077Y-59859810D01*
X51963716Y-59869187D01*
X51987749Y-59873967D01*
X52012253Y-59873967D01*
X52036286Y-59869186D01*
X52058923Y-59859810D01*
X52072691Y-59852451D01*
X52079705Y-59850323D01*
X52093140Y-59849000D01*
X52406860Y-59849000D01*
X52420295Y-59850323D01*
X52427309Y-59852451D01*
X52441077Y-59859810D01*
X52463716Y-59869187D01*
X52487749Y-59873967D01*
X52512253Y-59873967D01*
X52536286Y-59869186D01*
X52558923Y-59859810D01*
X52572691Y-59852451D01*
X52579705Y-59850323D01*
X52593140Y-59849000D01*
X52906860Y-59849000D01*
X52920295Y-59850323D01*
X52927309Y-59852451D01*
X52941077Y-59859810D01*
X52963716Y-59869187D01*
X52987749Y-59873967D01*
X53012253Y-59873967D01*
X53036286Y-59869186D01*
X53058923Y-59859810D01*
X53072691Y-59852451D01*
X53079705Y-59850323D01*
X53093140Y-59849000D01*
X53406860Y-59849000D01*
X53420295Y-59850323D01*
X53427309Y-59852451D01*
X53441077Y-59859810D01*
X53463716Y-59869187D01*
X53487749Y-59873967D01*
X53512253Y-59873967D01*
X53536286Y-59869186D01*
X53558923Y-59859810D01*
X53572691Y-59852451D01*
X53579705Y-59850323D01*
X53593140Y-59849000D01*
X53906860Y-59849000D01*
X53920295Y-59850323D01*
X53927309Y-59852451D01*
X53941077Y-59859810D01*
X53963716Y-59869187D01*
X53987749Y-59873967D01*
X54012253Y-59873967D01*
X54036286Y-59869186D01*
X54058923Y-59859810D01*
X54072691Y-59852451D01*
X54079705Y-59850323D01*
X54093140Y-59849000D01*
X54406860Y-59849000D01*
X54420295Y-59850323D01*
X54427309Y-59852451D01*
X54441077Y-59859810D01*
X54463716Y-59869187D01*
X54487749Y-59873967D01*
X54512253Y-59873967D01*
X54536286Y-59869186D01*
X54558923Y-59859810D01*
X54572691Y-59852451D01*
X54579705Y-59850323D01*
X54593140Y-59849000D01*
X54906860Y-59849000D01*
X54920295Y-59850323D01*
X54927309Y-59852451D01*
X54941077Y-59859810D01*
X54963716Y-59869187D01*
X54987749Y-59873967D01*
X55012253Y-59873967D01*
X55036286Y-59869186D01*
X55058923Y-59859810D01*
X55072691Y-59852451D01*
X55079705Y-59850323D01*
X55093140Y-59849000D01*
X55406860Y-59849000D01*
X55420295Y-59850323D01*
X55427309Y-59852451D01*
X55441077Y-59859810D01*
X55463716Y-59869187D01*
X55487749Y-59873967D01*
X55512253Y-59873967D01*
X55536286Y-59869186D01*
X55558923Y-59859810D01*
X55572691Y-59852451D01*
X55579705Y-59850323D01*
X55593140Y-59849000D01*
X55906860Y-59849000D01*
X55920295Y-59850323D01*
X55927309Y-59852451D01*
X55941077Y-59859810D01*
X55963716Y-59869187D01*
X55987749Y-59873967D01*
X56012253Y-59873967D01*
X56036286Y-59869186D01*
X56058923Y-59859810D01*
X56072691Y-59852451D01*
X56079705Y-59850323D01*
X56093140Y-59849000D01*
X56406860Y-59849000D01*
X56420295Y-59850323D01*
X56427309Y-59852451D01*
X56441077Y-59859810D01*
X56463716Y-59869187D01*
X56487749Y-59873967D01*
X56512253Y-59873967D01*
X56536286Y-59869186D01*
X56558923Y-59859810D01*
X56572691Y-59852451D01*
X56579705Y-59850323D01*
X56593140Y-59849000D01*
X56906860Y-59849000D01*
X56920295Y-59850323D01*
X56927309Y-59852451D01*
X56941077Y-59859810D01*
X56963716Y-59869187D01*
X56987749Y-59873967D01*
X57012253Y-59873967D01*
X57036286Y-59869186D01*
X57058923Y-59859810D01*
X57072691Y-59852451D01*
X57079705Y-59850323D01*
X57093140Y-59849000D01*
X57406860Y-59849000D01*
X57420295Y-59850323D01*
X57427309Y-59852451D01*
X57441077Y-59859810D01*
X57463716Y-59869187D01*
X57487749Y-59873967D01*
X57512253Y-59873967D01*
X57536286Y-59869186D01*
X57558923Y-59859810D01*
X57572691Y-59852451D01*
X57579705Y-59850323D01*
X57593140Y-59849000D01*
X57906860Y-59849000D01*
X57920295Y-59850323D01*
X57927309Y-59852451D01*
X57941077Y-59859810D01*
X57963716Y-59869187D01*
X57987749Y-59873967D01*
X58012253Y-59873967D01*
X58036286Y-59869186D01*
X58058923Y-59859810D01*
X58072691Y-59852451D01*
X58079705Y-59850323D01*
X58093140Y-59849000D01*
X58406860Y-59849000D01*
X58420295Y-59850323D01*
X58427309Y-59852451D01*
X58441077Y-59859810D01*
X58463716Y-59869187D01*
X58487749Y-59873967D01*
X58512253Y-59873967D01*
X58536286Y-59869186D01*
X58558923Y-59859810D01*
X58572691Y-59852451D01*
X58579705Y-59850323D01*
X58593140Y-59849000D01*
X58906860Y-59849000D01*
X58920295Y-59850323D01*
X58927310Y-59852451D01*
X58933776Y-59855908D01*
X58939442Y-59860558D01*
X58944092Y-59866224D01*
X58947549Y-59872690D01*
X58949677Y-59879705D01*
X58951000Y-59893140D01*
X58951000Y-61456860D01*
X58949677Y-61470295D01*
X58947549Y-61477310D01*
X58944092Y-61483776D01*
X58939442Y-61489442D01*
X58933776Y-61494092D01*
X58927310Y-61497549D01*
X58920295Y-61499677D01*
X58906860Y-61501000D01*
X58593140Y-61501000D01*
X58579705Y-61499677D01*
X58572691Y-61497549D01*
X58558923Y-61490190D01*
X58536284Y-61480813D01*
X58512251Y-61476033D01*
X58487747Y-61476033D01*
X58463714Y-61480814D01*
X58441077Y-61490190D01*
X58427309Y-61497549D01*
X58420295Y-61499677D01*
X58406860Y-61501000D01*
X58093140Y-61501000D01*
X58079705Y-61499677D01*
X58072691Y-61497549D01*
X58058923Y-61490190D01*
X58036284Y-61480813D01*
X58012251Y-61476033D01*
X57987747Y-61476033D01*
X57963714Y-61480814D01*
X57941077Y-61490190D01*
X57927309Y-61497549D01*
X57920295Y-61499677D01*
X57906860Y-61501000D01*
X57593140Y-61501000D01*
X57579705Y-61499677D01*
X57572691Y-61497549D01*
X57558923Y-61490190D01*
X57536284Y-61480813D01*
X57512251Y-61476033D01*
X57487747Y-61476033D01*
X57463714Y-61480814D01*
X57441077Y-61490190D01*
X57427309Y-61497549D01*
X57420295Y-61499677D01*
X57406860Y-61501000D01*
X57093140Y-61501000D01*
X57079705Y-61499677D01*
X57072691Y-61497549D01*
X57058923Y-61490190D01*
X57036284Y-61480813D01*
X57012251Y-61476033D01*
X56987747Y-61476033D01*
X56963714Y-61480814D01*
X56941077Y-61490190D01*
X56927309Y-61497549D01*
X56920295Y-61499677D01*
X56906860Y-61501000D01*
X56593140Y-61501000D01*
X56579705Y-61499677D01*
X56572691Y-61497549D01*
X56558923Y-61490190D01*
X56536284Y-61480813D01*
X56512251Y-61476033D01*
X56487747Y-61476033D01*
X56463714Y-61480814D01*
X56441077Y-61490190D01*
X56427309Y-61497549D01*
X56420295Y-61499677D01*
X56406860Y-61501000D01*
X56093140Y-61501000D01*
X56079705Y-61499677D01*
X56072691Y-61497549D01*
X56058923Y-61490190D01*
X56036284Y-61480813D01*
X56012251Y-61476033D01*
X55987747Y-61476033D01*
X55963714Y-61480814D01*
X55941077Y-61490190D01*
X55927309Y-61497549D01*
X55920295Y-61499677D01*
X55906860Y-61501000D01*
X55593140Y-61501000D01*
X55579705Y-61499677D01*
X55572691Y-61497549D01*
X55558923Y-61490190D01*
X55536284Y-61480813D01*
X55512251Y-61476033D01*
X55487747Y-61476033D01*
X55463714Y-61480814D01*
X55441077Y-61490190D01*
X55427309Y-61497549D01*
X55420295Y-61499677D01*
X55406860Y-61501000D01*
X55093140Y-61501000D01*
X55079705Y-61499677D01*
X55072691Y-61497549D01*
X55058923Y-61490190D01*
X55036284Y-61480813D01*
X55012251Y-61476033D01*
X54987747Y-61476033D01*
X54963714Y-61480814D01*
X54941077Y-61490190D01*
X54927309Y-61497549D01*
X54920295Y-61499677D01*
X54906860Y-61501000D01*
X54593140Y-61501000D01*
X54579705Y-61499677D01*
X54572691Y-61497549D01*
X54558923Y-61490190D01*
X54536284Y-61480813D01*
X54512251Y-61476033D01*
X54487747Y-61476033D01*
X54463714Y-61480814D01*
X54441077Y-61490190D01*
X54427309Y-61497549D01*
X54420295Y-61499677D01*
X54406860Y-61501000D01*
X54093140Y-61501000D01*
X54079705Y-61499677D01*
X54072691Y-61497549D01*
X54058923Y-61490190D01*
X54036284Y-61480813D01*
X54012251Y-61476033D01*
X53987747Y-61476033D01*
X53963714Y-61480814D01*
X53941077Y-61490190D01*
X53927309Y-61497549D01*
X53920295Y-61499677D01*
X53906860Y-61501000D01*
X53593140Y-61501000D01*
X53579705Y-61499677D01*
X53572691Y-61497549D01*
X53558923Y-61490190D01*
X53536284Y-61480813D01*
X53512251Y-61476033D01*
X53487747Y-61476033D01*
X53463714Y-61480814D01*
X53441077Y-61490190D01*
X53427309Y-61497549D01*
X53420295Y-61499677D01*
X53406860Y-61501000D01*
X53093140Y-61501000D01*
X53079705Y-61499677D01*
X53072691Y-61497549D01*
X53058923Y-61490190D01*
X53036284Y-61480813D01*
X53012251Y-61476033D01*
X52987747Y-61476033D01*
X52963714Y-61480814D01*
X52941077Y-61490190D01*
X52927309Y-61497549D01*
X52920295Y-61499677D01*
X52906860Y-61501000D01*
X52593140Y-61501000D01*
X52579705Y-61499677D01*
X52572691Y-61497549D01*
X52558923Y-61490190D01*
X52536284Y-61480813D01*
X52512251Y-61476033D01*
X52487747Y-61476033D01*
X52463714Y-61480814D01*
X52441077Y-61490190D01*
X52427309Y-61497549D01*
X52420295Y-61499677D01*
X52406860Y-61501000D01*
X52093140Y-61501000D01*
X52079705Y-61499677D01*
X52072691Y-61497549D01*
X52058923Y-61490190D01*
X52036284Y-61480813D01*
X52012251Y-61476033D01*
X51987747Y-61476033D01*
X51963714Y-61480814D01*
X51941077Y-61490190D01*
X51927309Y-61497549D01*
X51920295Y-61499677D01*
X51906860Y-61501000D01*
X51593140Y-61501000D01*
X51579705Y-61499677D01*
X51572691Y-61497549D01*
X51558923Y-61490190D01*
X51536284Y-61480813D01*
X51512251Y-61476033D01*
X51487747Y-61476033D01*
X51463714Y-61480814D01*
X51441077Y-61490190D01*
X51427309Y-61497549D01*
X51420295Y-61499677D01*
X51406860Y-61501000D01*
X51093140Y-61501000D01*
X51079705Y-61499677D01*
X51072690Y-61497549D01*
X51066224Y-61494092D01*
X51060558Y-61489442D01*
X51055908Y-61483776D01*
X51052451Y-61477310D01*
X51050323Y-61470295D01*
X51049000Y-61456860D01*
X51049000Y-59893140D01*
X51050323Y-59879705D01*
X51052451Y-59872690D01*
X51055908Y-59866224D01*
X51060558Y-59860558D01*
X51066224Y-59855908D01*
X51072690Y-59852451D01*
X51079705Y-59850323D01*
X51093140Y-59849000D01*
X51406860Y-59849000D01*
X51420295Y-59850323D01*
G37*
G36*
X65109591Y-60048085D02*
G01*
X65143569Y-60058393D01*
X65174890Y-60075134D01*
X65202339Y-60097661D01*
X65224866Y-60125110D01*
X65241607Y-60156431D01*
X65251915Y-60190409D01*
X65256000Y-60231890D01*
X65256000Y-60908110D01*
X65251915Y-60949591D01*
X65241607Y-60983569D01*
X65224866Y-61014890D01*
X65202339Y-61042339D01*
X65174890Y-61064866D01*
X65143569Y-61081607D01*
X65109591Y-61091915D01*
X65068110Y-61096000D01*
X64466890Y-61096000D01*
X64425409Y-61091915D01*
X64391431Y-61081607D01*
X64360110Y-61064866D01*
X64332661Y-61042339D01*
X64310134Y-61014890D01*
X64293393Y-60983569D01*
X64283085Y-60949591D01*
X64279000Y-60908110D01*
X64279000Y-60231890D01*
X64283085Y-60190409D01*
X64293393Y-60156431D01*
X64310134Y-60125110D01*
X64332661Y-60097661D01*
X64360110Y-60075134D01*
X64391431Y-60058393D01*
X64425409Y-60048085D01*
X64466890Y-60044000D01*
X65068110Y-60044000D01*
X65109591Y-60048085D01*
G37*
G36*
X63534591Y-60048085D02*
G01*
X63568569Y-60058393D01*
X63599890Y-60075134D01*
X63627339Y-60097661D01*
X63649866Y-60125110D01*
X63666607Y-60156431D01*
X63676915Y-60190409D01*
X63681000Y-60231890D01*
X63681000Y-60908110D01*
X63676915Y-60949591D01*
X63666607Y-60983569D01*
X63649866Y-61014890D01*
X63627339Y-61042339D01*
X63599890Y-61064866D01*
X63568569Y-61081607D01*
X63534591Y-61091915D01*
X63493110Y-61096000D01*
X62891890Y-61096000D01*
X62850409Y-61091915D01*
X62816431Y-61081607D01*
X62785110Y-61064866D01*
X62757661Y-61042339D01*
X62735134Y-61014890D01*
X62718393Y-60983569D01*
X62708085Y-60949591D01*
X62704000Y-60908110D01*
X62704000Y-60231890D01*
X62708085Y-60190409D01*
X62718393Y-60156431D01*
X62735134Y-60125110D01*
X62757661Y-60097661D01*
X62785110Y-60075134D01*
X62816431Y-60058393D01*
X62850409Y-60048085D01*
X62891890Y-60044000D01*
X63493110Y-60044000D01*
X63534591Y-60048085D01*
G37*
G36*
X46769468Y-59273565D02*
G01*
X46808138Y-59285296D01*
X46843777Y-59304346D01*
X46875017Y-59329983D01*
X46900654Y-59361223D01*
X46919704Y-59396862D01*
X46931435Y-59435532D01*
X46936000Y-59481888D01*
X46936000Y-60558112D01*
X46931435Y-60604468D01*
X46919704Y-60643138D01*
X46900654Y-60678777D01*
X46875017Y-60710017D01*
X46843777Y-60735654D01*
X46808138Y-60754704D01*
X46769468Y-60766435D01*
X46723112Y-60771000D01*
X46071888Y-60771000D01*
X46025532Y-60766435D01*
X45986862Y-60754704D01*
X45951223Y-60735654D01*
X45919983Y-60710017D01*
X45894346Y-60678777D01*
X45875296Y-60643138D01*
X45863565Y-60604468D01*
X45859000Y-60558112D01*
X45859000Y-59481888D01*
X45863565Y-59435532D01*
X45875296Y-59396862D01*
X45894346Y-59361223D01*
X45919983Y-59329983D01*
X45951223Y-59304346D01*
X45986862Y-59285296D01*
X46025532Y-59273565D01*
X46071888Y-59269000D01*
X46723112Y-59269000D01*
X46769468Y-59273565D01*
G37*
G36*
X44894468Y-59273565D02*
G01*
X44933138Y-59285296D01*
X44968777Y-59304346D01*
X45000017Y-59329983D01*
X45025654Y-59361223D01*
X45044704Y-59396862D01*
X45056435Y-59435532D01*
X45061000Y-59481888D01*
X45061000Y-60558112D01*
X45056435Y-60604468D01*
X45044704Y-60643138D01*
X45025654Y-60678777D01*
X45000017Y-60710017D01*
X44968777Y-60735654D01*
X44933138Y-60754704D01*
X44894468Y-60766435D01*
X44848112Y-60771000D01*
X44196888Y-60771000D01*
X44150532Y-60766435D01*
X44111862Y-60754704D01*
X44076223Y-60735654D01*
X44044983Y-60710017D01*
X44019346Y-60678777D01*
X44000296Y-60643138D01*
X43988565Y-60604468D01*
X43984000Y-60558112D01*
X43984000Y-59481888D01*
X43988565Y-59435532D01*
X44000296Y-59396862D01*
X44019346Y-59361223D01*
X44044983Y-59329983D01*
X44076223Y-59304346D01*
X44111862Y-59285296D01*
X44150532Y-59273565D01*
X44196888Y-59269000D01*
X44848112Y-59269000D01*
X44894468Y-59273565D01*
G37*
G36*
X39051000Y-60511000D02*
G01*
X37749000Y-60511000D01*
X37749000Y-59509000D01*
X39051000Y-59509000D01*
X39051000Y-60511000D01*
G37*
G36*
X63524591Y-58238085D02*
G01*
X63558569Y-58248393D01*
X63589890Y-58265134D01*
X63617339Y-58287661D01*
X63639866Y-58315110D01*
X63656607Y-58346431D01*
X63666915Y-58380409D01*
X63671000Y-58421890D01*
X63671000Y-59098110D01*
X63666915Y-59139591D01*
X63656607Y-59173569D01*
X63639866Y-59204890D01*
X63617339Y-59232339D01*
X63589890Y-59254866D01*
X63558569Y-59271607D01*
X63524591Y-59281915D01*
X63483110Y-59286000D01*
X62881890Y-59286000D01*
X62840409Y-59281915D01*
X62806431Y-59271607D01*
X62775110Y-59254866D01*
X62747661Y-59232339D01*
X62725134Y-59204890D01*
X62708393Y-59173569D01*
X62698085Y-59139591D01*
X62694000Y-59098110D01*
X62694000Y-58421890D01*
X62698085Y-58380409D01*
X62708393Y-58346431D01*
X62725134Y-58315110D01*
X62747661Y-58287661D01*
X62775110Y-58265134D01*
X62806431Y-58248393D01*
X62840409Y-58238085D01*
X62881890Y-58234000D01*
X63483110Y-58234000D01*
X63524591Y-58238085D01*
G37*
G36*
X65099591Y-58238085D02*
G01*
X65133569Y-58248393D01*
X65164890Y-58265134D01*
X65192339Y-58287661D01*
X65214866Y-58315110D01*
X65231607Y-58346431D01*
X65241915Y-58380409D01*
X65246000Y-58421890D01*
X65246000Y-59098110D01*
X65241915Y-59139591D01*
X65231607Y-59173569D01*
X65214866Y-59204890D01*
X65192339Y-59232339D01*
X65164890Y-59254866D01*
X65133569Y-59271607D01*
X65099591Y-59281915D01*
X65058110Y-59286000D01*
X64456890Y-59286000D01*
X64415409Y-59281915D01*
X64381431Y-59271607D01*
X64350110Y-59254866D01*
X64322661Y-59232339D01*
X64300134Y-59204890D01*
X64283393Y-59173569D01*
X64273085Y-59139591D01*
X64269000Y-59098110D01*
X64269000Y-58421890D01*
X64273085Y-58380409D01*
X64283393Y-58346431D01*
X64300134Y-58315110D01*
X64322661Y-58287661D01*
X64350110Y-58265134D01*
X64381431Y-58248393D01*
X64415409Y-58238085D01*
X64456890Y-58234000D01*
X65058110Y-58234000D01*
X65099591Y-58238085D01*
G37*
G36*
X50120295Y-51050323D02*
G01*
X50127310Y-51052451D01*
X50133776Y-51055908D01*
X50139442Y-51060558D01*
X50144092Y-51066224D01*
X50147549Y-51072690D01*
X50149677Y-51079705D01*
X50151000Y-51093140D01*
X50151000Y-51406860D01*
X50149677Y-51420295D01*
X50147549Y-51427309D01*
X50140190Y-51441077D01*
X50130813Y-51463716D01*
X50126033Y-51487749D01*
X50126033Y-51512253D01*
X50130814Y-51536286D01*
X50140190Y-51558923D01*
X50147549Y-51572691D01*
X50149677Y-51579705D01*
X50151000Y-51593140D01*
X50151000Y-51906860D01*
X50149677Y-51920295D01*
X50147549Y-51927309D01*
X50140190Y-51941077D01*
X50130813Y-51963716D01*
X50126033Y-51987749D01*
X50126033Y-52012253D01*
X50130814Y-52036286D01*
X50140190Y-52058923D01*
X50147549Y-52072691D01*
X50149677Y-52079705D01*
X50151000Y-52093140D01*
X50151000Y-52406860D01*
X50149677Y-52420295D01*
X50147549Y-52427309D01*
X50140190Y-52441077D01*
X50130813Y-52463716D01*
X50126033Y-52487749D01*
X50126033Y-52512253D01*
X50130814Y-52536286D01*
X50140190Y-52558923D01*
X50147549Y-52572691D01*
X50149677Y-52579705D01*
X50151000Y-52593140D01*
X50151000Y-52906860D01*
X50149677Y-52920295D01*
X50147549Y-52927309D01*
X50140190Y-52941077D01*
X50130813Y-52963716D01*
X50126033Y-52987749D01*
X50126033Y-53012253D01*
X50130814Y-53036286D01*
X50140190Y-53058923D01*
X50147549Y-53072691D01*
X50149677Y-53079705D01*
X50151000Y-53093140D01*
X50151000Y-53406860D01*
X50149677Y-53420295D01*
X50147549Y-53427309D01*
X50140190Y-53441077D01*
X50130813Y-53463716D01*
X50126033Y-53487749D01*
X50126033Y-53512253D01*
X50130814Y-53536286D01*
X50140190Y-53558923D01*
X50147549Y-53572691D01*
X50149677Y-53579705D01*
X50151000Y-53593140D01*
X50151000Y-53906860D01*
X50149677Y-53920295D01*
X50147549Y-53927309D01*
X50140190Y-53941077D01*
X50130813Y-53963716D01*
X50126033Y-53987749D01*
X50126033Y-54012253D01*
X50130814Y-54036286D01*
X50140190Y-54058923D01*
X50147549Y-54072691D01*
X50149677Y-54079705D01*
X50151000Y-54093140D01*
X50151000Y-54406860D01*
X50149677Y-54420295D01*
X50147549Y-54427309D01*
X50140190Y-54441077D01*
X50130813Y-54463716D01*
X50126033Y-54487749D01*
X50126033Y-54512253D01*
X50130814Y-54536286D01*
X50140190Y-54558923D01*
X50147549Y-54572691D01*
X50149677Y-54579705D01*
X50151000Y-54593140D01*
X50151000Y-54906860D01*
X50149677Y-54920295D01*
X50147549Y-54927309D01*
X50140190Y-54941077D01*
X50130813Y-54963716D01*
X50126033Y-54987749D01*
X50126033Y-55012253D01*
X50130814Y-55036286D01*
X50140190Y-55058923D01*
X50147549Y-55072691D01*
X50149677Y-55079705D01*
X50151000Y-55093140D01*
X50151000Y-55406860D01*
X50149677Y-55420295D01*
X50147549Y-55427309D01*
X50140190Y-55441077D01*
X50130813Y-55463716D01*
X50126033Y-55487749D01*
X50126033Y-55512253D01*
X50130814Y-55536286D01*
X50140190Y-55558923D01*
X50147549Y-55572691D01*
X50149677Y-55579705D01*
X50151000Y-55593140D01*
X50151000Y-55906860D01*
X50149677Y-55920295D01*
X50147549Y-55927309D01*
X50140190Y-55941077D01*
X50130813Y-55963716D01*
X50126033Y-55987749D01*
X50126033Y-56012253D01*
X50130814Y-56036286D01*
X50140190Y-56058923D01*
X50147549Y-56072691D01*
X50149677Y-56079705D01*
X50151000Y-56093140D01*
X50151000Y-56406860D01*
X50149677Y-56420295D01*
X50147549Y-56427309D01*
X50140190Y-56441077D01*
X50130813Y-56463716D01*
X50126033Y-56487749D01*
X50126033Y-56512253D01*
X50130814Y-56536286D01*
X50140190Y-56558923D01*
X50147549Y-56572691D01*
X50149677Y-56579705D01*
X50151000Y-56593140D01*
X50151000Y-56906860D01*
X50149677Y-56920295D01*
X50147549Y-56927309D01*
X50140190Y-56941077D01*
X50130813Y-56963716D01*
X50126033Y-56987749D01*
X50126033Y-57012253D01*
X50130814Y-57036286D01*
X50140190Y-57058923D01*
X50147549Y-57072691D01*
X50149677Y-57079705D01*
X50151000Y-57093140D01*
X50151000Y-57406860D01*
X50149677Y-57420295D01*
X50147549Y-57427309D01*
X50140190Y-57441077D01*
X50130813Y-57463716D01*
X50126033Y-57487749D01*
X50126033Y-57512253D01*
X50130814Y-57536286D01*
X50140190Y-57558923D01*
X50147549Y-57572691D01*
X50149677Y-57579705D01*
X50151000Y-57593140D01*
X50151000Y-57906860D01*
X50149677Y-57920295D01*
X50147549Y-57927309D01*
X50140190Y-57941077D01*
X50130813Y-57963716D01*
X50126033Y-57987749D01*
X50126033Y-58012253D01*
X50130814Y-58036286D01*
X50140190Y-58058923D01*
X50147549Y-58072691D01*
X50149677Y-58079705D01*
X50151000Y-58093140D01*
X50151000Y-58406860D01*
X50149677Y-58420295D01*
X50147549Y-58427309D01*
X50140190Y-58441077D01*
X50130813Y-58463716D01*
X50126033Y-58487749D01*
X50126033Y-58512253D01*
X50130814Y-58536286D01*
X50140190Y-58558923D01*
X50147549Y-58572691D01*
X50149677Y-58579705D01*
X50151000Y-58593140D01*
X50151000Y-58906860D01*
X50149677Y-58920295D01*
X50147549Y-58927310D01*
X50144092Y-58933776D01*
X50139442Y-58939442D01*
X50133776Y-58944092D01*
X50127310Y-58947549D01*
X50120295Y-58949677D01*
X50106860Y-58951000D01*
X48543140Y-58951000D01*
X48529705Y-58949677D01*
X48522690Y-58947549D01*
X48516224Y-58944092D01*
X48510558Y-58939442D01*
X48505908Y-58933776D01*
X48502451Y-58927310D01*
X48500323Y-58920295D01*
X48499000Y-58906860D01*
X48499000Y-58593140D01*
X48500323Y-58579705D01*
X48502451Y-58572691D01*
X48509810Y-58558923D01*
X48519187Y-58536284D01*
X48523967Y-58512251D01*
X48523967Y-58487747D01*
X48519186Y-58463714D01*
X48509810Y-58441077D01*
X48502451Y-58427309D01*
X48500323Y-58420295D01*
X48499000Y-58406860D01*
X48499000Y-58093140D01*
X48500323Y-58079705D01*
X48502451Y-58072691D01*
X48509810Y-58058923D01*
X48519187Y-58036284D01*
X48523967Y-58012251D01*
X48523967Y-57987747D01*
X48519186Y-57963714D01*
X48509810Y-57941077D01*
X48502451Y-57927309D01*
X48500323Y-57920295D01*
X48499000Y-57906860D01*
X48499000Y-57593140D01*
X48500323Y-57579705D01*
X48502451Y-57572691D01*
X48509810Y-57558923D01*
X48519187Y-57536284D01*
X48523967Y-57512251D01*
X48523967Y-57487747D01*
X48519186Y-57463714D01*
X48509810Y-57441077D01*
X48502451Y-57427309D01*
X48500323Y-57420295D01*
X48499000Y-57406860D01*
X48499000Y-57093140D01*
X48500323Y-57079705D01*
X48502451Y-57072691D01*
X48509810Y-57058923D01*
X48519187Y-57036284D01*
X48523967Y-57012251D01*
X48523967Y-56987747D01*
X48519186Y-56963714D01*
X48509810Y-56941077D01*
X48502451Y-56927309D01*
X48500323Y-56920295D01*
X48499000Y-56906860D01*
X48499000Y-56593140D01*
X48500323Y-56579705D01*
X48502451Y-56572691D01*
X48509810Y-56558923D01*
X48519187Y-56536284D01*
X48523967Y-56512251D01*
X48523967Y-56487747D01*
X48519186Y-56463714D01*
X48509810Y-56441077D01*
X48502451Y-56427309D01*
X48500323Y-56420295D01*
X48499000Y-56406860D01*
X48499000Y-56093140D01*
X48500323Y-56079705D01*
X48502451Y-56072691D01*
X48509810Y-56058923D01*
X48519187Y-56036284D01*
X48523967Y-56012251D01*
X48523967Y-55987747D01*
X48519186Y-55963714D01*
X48509810Y-55941077D01*
X48502451Y-55927309D01*
X48500323Y-55920295D01*
X48499000Y-55906860D01*
X48499000Y-55593140D01*
X48500323Y-55579705D01*
X48502451Y-55572691D01*
X48509810Y-55558923D01*
X48519187Y-55536284D01*
X48523967Y-55512251D01*
X48523967Y-55487747D01*
X48519186Y-55463714D01*
X48509810Y-55441077D01*
X48502451Y-55427309D01*
X48500323Y-55420295D01*
X48499000Y-55406860D01*
X48499000Y-55093140D01*
X48500323Y-55079705D01*
X48502451Y-55072691D01*
X48509810Y-55058923D01*
X48519187Y-55036284D01*
X48523967Y-55012251D01*
X48523967Y-54987747D01*
X48519186Y-54963714D01*
X48509810Y-54941077D01*
X48502451Y-54927309D01*
X48500323Y-54920295D01*
X48499000Y-54906860D01*
X48499000Y-54593140D01*
X48500323Y-54579705D01*
X48502451Y-54572691D01*
X48509810Y-54558923D01*
X48519187Y-54536284D01*
X48523967Y-54512251D01*
X48523967Y-54487747D01*
X48519186Y-54463714D01*
X48509810Y-54441077D01*
X48502451Y-54427309D01*
X48500323Y-54420295D01*
X48499000Y-54406860D01*
X48499000Y-54093140D01*
X48500323Y-54079705D01*
X48502451Y-54072691D01*
X48509810Y-54058923D01*
X48519187Y-54036284D01*
X48523967Y-54012251D01*
X48523967Y-53987747D01*
X48519186Y-53963714D01*
X48509810Y-53941077D01*
X48502451Y-53927309D01*
X48500323Y-53920295D01*
X48499000Y-53906860D01*
X48499000Y-53593140D01*
X48500323Y-53579705D01*
X48502451Y-53572691D01*
X48509810Y-53558923D01*
X48519187Y-53536284D01*
X48523967Y-53512251D01*
X48523967Y-53487747D01*
X48519186Y-53463714D01*
X48509810Y-53441077D01*
X48502451Y-53427309D01*
X48500323Y-53420295D01*
X48499000Y-53406860D01*
X48499000Y-53093140D01*
X48500323Y-53079705D01*
X48502451Y-53072691D01*
X48509810Y-53058923D01*
X48519187Y-53036284D01*
X48523967Y-53012251D01*
X48523967Y-52987747D01*
X48519186Y-52963714D01*
X48509810Y-52941077D01*
X48502451Y-52927309D01*
X48500323Y-52920295D01*
X48499000Y-52906860D01*
X48499000Y-52593140D01*
X48500323Y-52579705D01*
X48502451Y-52572691D01*
X48509810Y-52558923D01*
X48519187Y-52536284D01*
X48523967Y-52512251D01*
X48523967Y-52487747D01*
X48519186Y-52463714D01*
X48509810Y-52441077D01*
X48502451Y-52427309D01*
X48500323Y-52420295D01*
X48499000Y-52406860D01*
X48499000Y-52093140D01*
X48500323Y-52079705D01*
X48502451Y-52072691D01*
X48509810Y-52058923D01*
X48519187Y-52036284D01*
X48523967Y-52012251D01*
X48523967Y-51987747D01*
X48519186Y-51963714D01*
X48509810Y-51941077D01*
X48502451Y-51927309D01*
X48500323Y-51920295D01*
X48499000Y-51906860D01*
X48499000Y-51593140D01*
X48500323Y-51579705D01*
X48502451Y-51572691D01*
X48509810Y-51558923D01*
X48519187Y-51536284D01*
X48523967Y-51512251D01*
X48523967Y-51487747D01*
X48519186Y-51463714D01*
X48509810Y-51441077D01*
X48502451Y-51427309D01*
X48500323Y-51420295D01*
X48499000Y-51406860D01*
X48499000Y-51093140D01*
X48500323Y-51079705D01*
X48502451Y-51072690D01*
X48505908Y-51066224D01*
X48510558Y-51060558D01*
X48516224Y-51055908D01*
X48522690Y-51052451D01*
X48529705Y-51050323D01*
X48543140Y-51049000D01*
X50106860Y-51049000D01*
X50120295Y-51050323D01*
G37*
G36*
X61470295Y-51050323D02*
G01*
X61477310Y-51052451D01*
X61483776Y-51055908D01*
X61489442Y-51060558D01*
X61494092Y-51066224D01*
X61497549Y-51072690D01*
X61499677Y-51079705D01*
X61501000Y-51093140D01*
X61501000Y-51406860D01*
X61499677Y-51420295D01*
X61497549Y-51427309D01*
X61490190Y-51441077D01*
X61480813Y-51463716D01*
X61476033Y-51487749D01*
X61476033Y-51512253D01*
X61480814Y-51536286D01*
X61490190Y-51558923D01*
X61497549Y-51572691D01*
X61499677Y-51579705D01*
X61501000Y-51593140D01*
X61501000Y-51906860D01*
X61499677Y-51920295D01*
X61497549Y-51927309D01*
X61490190Y-51941077D01*
X61480813Y-51963716D01*
X61476033Y-51987749D01*
X61476033Y-52012253D01*
X61480814Y-52036286D01*
X61490190Y-52058923D01*
X61497549Y-52072691D01*
X61499677Y-52079705D01*
X61501000Y-52093140D01*
X61501000Y-52406860D01*
X61499677Y-52420295D01*
X61497549Y-52427309D01*
X61490190Y-52441077D01*
X61480813Y-52463716D01*
X61476033Y-52487749D01*
X61476033Y-52512253D01*
X61480814Y-52536286D01*
X61490190Y-52558923D01*
X61497549Y-52572691D01*
X61499677Y-52579705D01*
X61501000Y-52593140D01*
X61501000Y-52906860D01*
X61499677Y-52920295D01*
X61497549Y-52927309D01*
X61490190Y-52941077D01*
X61480813Y-52963716D01*
X61476033Y-52987749D01*
X61476033Y-53012253D01*
X61480814Y-53036286D01*
X61490190Y-53058923D01*
X61497549Y-53072691D01*
X61499677Y-53079705D01*
X61501000Y-53093140D01*
X61501000Y-53406860D01*
X61499677Y-53420295D01*
X61497549Y-53427309D01*
X61490190Y-53441077D01*
X61480813Y-53463716D01*
X61476033Y-53487749D01*
X61476033Y-53512253D01*
X61480814Y-53536286D01*
X61490190Y-53558923D01*
X61497549Y-53572691D01*
X61499677Y-53579705D01*
X61501000Y-53593140D01*
X61501000Y-53906860D01*
X61499677Y-53920295D01*
X61497549Y-53927309D01*
X61490190Y-53941077D01*
X61480813Y-53963716D01*
X61476033Y-53987749D01*
X61476033Y-54012253D01*
X61480814Y-54036286D01*
X61490190Y-54058923D01*
X61497549Y-54072691D01*
X61499677Y-54079705D01*
X61501000Y-54093140D01*
X61501000Y-54406860D01*
X61499677Y-54420295D01*
X61497549Y-54427309D01*
X61490190Y-54441077D01*
X61480813Y-54463716D01*
X61476033Y-54487749D01*
X61476033Y-54512253D01*
X61480814Y-54536286D01*
X61490190Y-54558923D01*
X61497549Y-54572691D01*
X61499677Y-54579705D01*
X61501000Y-54593140D01*
X61501000Y-54906860D01*
X61499677Y-54920295D01*
X61497549Y-54927309D01*
X61490190Y-54941077D01*
X61480813Y-54963716D01*
X61476033Y-54987749D01*
X61476033Y-55012253D01*
X61480814Y-55036286D01*
X61490190Y-55058923D01*
X61497549Y-55072691D01*
X61499677Y-55079705D01*
X61501000Y-55093140D01*
X61501000Y-55406860D01*
X61499677Y-55420295D01*
X61497549Y-55427309D01*
X61490190Y-55441077D01*
X61480813Y-55463716D01*
X61476033Y-55487749D01*
X61476033Y-55512253D01*
X61480814Y-55536286D01*
X61490190Y-55558923D01*
X61497549Y-55572691D01*
X61499677Y-55579705D01*
X61501000Y-55593140D01*
X61501000Y-55906860D01*
X61499677Y-55920295D01*
X61497549Y-55927309D01*
X61490190Y-55941077D01*
X61480813Y-55963716D01*
X61476033Y-55987749D01*
X61476033Y-56012253D01*
X61480814Y-56036286D01*
X61490190Y-56058923D01*
X61497549Y-56072691D01*
X61499677Y-56079705D01*
X61501000Y-56093140D01*
X61501000Y-56406860D01*
X61499677Y-56420295D01*
X61497549Y-56427309D01*
X61490190Y-56441077D01*
X61480813Y-56463716D01*
X61476033Y-56487749D01*
X61476033Y-56512253D01*
X61480814Y-56536286D01*
X61490190Y-56558923D01*
X61497549Y-56572691D01*
X61499677Y-56579705D01*
X61501000Y-56593140D01*
X61501000Y-56906860D01*
X61499677Y-56920295D01*
X61497549Y-56927309D01*
X61490190Y-56941077D01*
X61480813Y-56963716D01*
X61476033Y-56987749D01*
X61476033Y-57012253D01*
X61480814Y-57036286D01*
X61490190Y-57058923D01*
X61497549Y-57072691D01*
X61499677Y-57079705D01*
X61501000Y-57093140D01*
X61501000Y-57406860D01*
X61499677Y-57420295D01*
X61497549Y-57427309D01*
X61490190Y-57441077D01*
X61480813Y-57463716D01*
X61476033Y-57487749D01*
X61476033Y-57512253D01*
X61480814Y-57536286D01*
X61490190Y-57558923D01*
X61497549Y-57572691D01*
X61499677Y-57579705D01*
X61501000Y-57593140D01*
X61501000Y-57906860D01*
X61499677Y-57920295D01*
X61497549Y-57927309D01*
X61490190Y-57941077D01*
X61480813Y-57963716D01*
X61476033Y-57987749D01*
X61476033Y-58012253D01*
X61480814Y-58036286D01*
X61490190Y-58058923D01*
X61497549Y-58072691D01*
X61499677Y-58079705D01*
X61501000Y-58093140D01*
X61501000Y-58406860D01*
X61499677Y-58420295D01*
X61497549Y-58427309D01*
X61490190Y-58441077D01*
X61480813Y-58463716D01*
X61476033Y-58487749D01*
X61476033Y-58512253D01*
X61480814Y-58536286D01*
X61490190Y-58558923D01*
X61497549Y-58572691D01*
X61499677Y-58579705D01*
X61501000Y-58593140D01*
X61501000Y-58906860D01*
X61499677Y-58920295D01*
X61497549Y-58927310D01*
X61494092Y-58933776D01*
X61489442Y-58939442D01*
X61483776Y-58944092D01*
X61477310Y-58947549D01*
X61470295Y-58949677D01*
X61456860Y-58951000D01*
X59893140Y-58951000D01*
X59879705Y-58949677D01*
X59872690Y-58947549D01*
X59866224Y-58944092D01*
X59860558Y-58939442D01*
X59855908Y-58933776D01*
X59852451Y-58927310D01*
X59850323Y-58920295D01*
X59849000Y-58906860D01*
X59849000Y-58593140D01*
X59850323Y-58579705D01*
X59852451Y-58572691D01*
X59859810Y-58558923D01*
X59869187Y-58536284D01*
X59873967Y-58512251D01*
X59873967Y-58487747D01*
X59869186Y-58463714D01*
X59859810Y-58441077D01*
X59852451Y-58427309D01*
X59850323Y-58420295D01*
X59849000Y-58406860D01*
X59849000Y-58093140D01*
X59850323Y-58079705D01*
X59852451Y-58072691D01*
X59859810Y-58058923D01*
X59869187Y-58036284D01*
X59873967Y-58012251D01*
X59873967Y-57987747D01*
X59869186Y-57963714D01*
X59859810Y-57941077D01*
X59852451Y-57927309D01*
X59850323Y-57920295D01*
X59849000Y-57906860D01*
X59849000Y-57593140D01*
X59850323Y-57579705D01*
X59852451Y-57572691D01*
X59859810Y-57558923D01*
X59869187Y-57536284D01*
X59873967Y-57512251D01*
X59873967Y-57487747D01*
X59869186Y-57463714D01*
X59859810Y-57441077D01*
X59852451Y-57427309D01*
X59850323Y-57420295D01*
X59849000Y-57406860D01*
X59849000Y-57093140D01*
X59850323Y-57079705D01*
X59852451Y-57072691D01*
X59859810Y-57058923D01*
X59869187Y-57036284D01*
X59873967Y-57012251D01*
X59873967Y-56987747D01*
X59869186Y-56963714D01*
X59859810Y-56941077D01*
X59852451Y-56927309D01*
X59850323Y-56920295D01*
X59849000Y-56906860D01*
X59849000Y-56593140D01*
X59850323Y-56579705D01*
X59852451Y-56572691D01*
X59859810Y-56558923D01*
X59869187Y-56536284D01*
X59873967Y-56512251D01*
X59873967Y-56487747D01*
X59869186Y-56463714D01*
X59859810Y-56441077D01*
X59852451Y-56427309D01*
X59850323Y-56420295D01*
X59849000Y-56406860D01*
X59849000Y-56093140D01*
X59850323Y-56079705D01*
X59852451Y-56072691D01*
X59859810Y-56058923D01*
X59869187Y-56036284D01*
X59873967Y-56012251D01*
X59873967Y-55987747D01*
X59869186Y-55963714D01*
X59859810Y-55941077D01*
X59852451Y-55927309D01*
X59850323Y-55920295D01*
X59849000Y-55906860D01*
X59849000Y-55593140D01*
X59850323Y-55579705D01*
X59852451Y-55572691D01*
X59859810Y-55558923D01*
X59869187Y-55536284D01*
X59873967Y-55512251D01*
X59873967Y-55487747D01*
X59869186Y-55463714D01*
X59859810Y-55441077D01*
X59852451Y-55427309D01*
X59850323Y-55420295D01*
X59849000Y-55406860D01*
X59849000Y-55093140D01*
X59850323Y-55079705D01*
X59852451Y-55072691D01*
X59859810Y-55058923D01*
X59869187Y-55036284D01*
X59873967Y-55012251D01*
X59873967Y-54987747D01*
X59869186Y-54963714D01*
X59859810Y-54941077D01*
X59852451Y-54927309D01*
X59850323Y-54920295D01*
X59849000Y-54906860D01*
X59849000Y-54593140D01*
X59850323Y-54579705D01*
X59852451Y-54572691D01*
X59859810Y-54558923D01*
X59869187Y-54536284D01*
X59873967Y-54512251D01*
X59873967Y-54487747D01*
X59869186Y-54463714D01*
X59859810Y-54441077D01*
X59852451Y-54427309D01*
X59850323Y-54420295D01*
X59849000Y-54406860D01*
X59849000Y-54093140D01*
X59850323Y-54079705D01*
X59852451Y-54072691D01*
X59859810Y-54058923D01*
X59869187Y-54036284D01*
X59873967Y-54012251D01*
X59873967Y-53987747D01*
X59869186Y-53963714D01*
X59859810Y-53941077D01*
X59852451Y-53927309D01*
X59850323Y-53920295D01*
X59849000Y-53906860D01*
X59849000Y-53593140D01*
X59850323Y-53579705D01*
X59852451Y-53572691D01*
X59859810Y-53558923D01*
X59869187Y-53536284D01*
X59873967Y-53512251D01*
X59873967Y-53487747D01*
X59869186Y-53463714D01*
X59859810Y-53441077D01*
X59852451Y-53427309D01*
X59850323Y-53420295D01*
X59849000Y-53406860D01*
X59849000Y-53093140D01*
X59850323Y-53079705D01*
X59852451Y-53072691D01*
X59859810Y-53058923D01*
X59869187Y-53036284D01*
X59873967Y-53012251D01*
X59873967Y-52987747D01*
X59869186Y-52963714D01*
X59859810Y-52941077D01*
X59852451Y-52927309D01*
X59850323Y-52920295D01*
X59849000Y-52906860D01*
X59849000Y-52593140D01*
X59850323Y-52579705D01*
X59852451Y-52572691D01*
X59859810Y-52558923D01*
X59869187Y-52536284D01*
X59873967Y-52512251D01*
X59873967Y-52487747D01*
X59869186Y-52463714D01*
X59859810Y-52441077D01*
X59852451Y-52427309D01*
X59850323Y-52420295D01*
X59849000Y-52406860D01*
X59849000Y-52093140D01*
X59850323Y-52079705D01*
X59852451Y-52072691D01*
X59859810Y-52058923D01*
X59869187Y-52036284D01*
X59873967Y-52012251D01*
X59873967Y-51987747D01*
X59869186Y-51963714D01*
X59859810Y-51941077D01*
X59852451Y-51927309D01*
X59850323Y-51920295D01*
X59849000Y-51906860D01*
X59849000Y-51593140D01*
X59850323Y-51579705D01*
X59852451Y-51572691D01*
X59859810Y-51558923D01*
X59869187Y-51536284D01*
X59873967Y-51512251D01*
X59873967Y-51487747D01*
X59869186Y-51463714D01*
X59859810Y-51441077D01*
X59852451Y-51427309D01*
X59850323Y-51420295D01*
X59849000Y-51406860D01*
X59849000Y-51093140D01*
X59850323Y-51079705D01*
X59852451Y-51072690D01*
X59855908Y-51066224D01*
X59860558Y-51060558D01*
X59866224Y-51055908D01*
X59872690Y-51052451D01*
X59879705Y-51050323D01*
X59893140Y-51049000D01*
X61456860Y-51049000D01*
X61470295Y-51050323D01*
G37*
G36*
X38769591Y-57553085D02*
G01*
X38803569Y-57563393D01*
X38834890Y-57580134D01*
X38862339Y-57602661D01*
X38884866Y-57630110D01*
X38901607Y-57661431D01*
X38911915Y-57695409D01*
X38916000Y-57736890D01*
X38916000Y-58338110D01*
X38911915Y-58379591D01*
X38901607Y-58413569D01*
X38884866Y-58444890D01*
X38862339Y-58472339D01*
X38834890Y-58494866D01*
X38803569Y-58511607D01*
X38769591Y-58521915D01*
X38728110Y-58526000D01*
X38051890Y-58526000D01*
X38010409Y-58521915D01*
X37976431Y-58511607D01*
X37945110Y-58494866D01*
X37917661Y-58472339D01*
X37895134Y-58444890D01*
X37878393Y-58413569D01*
X37868085Y-58379591D01*
X37864000Y-58338110D01*
X37864000Y-57736890D01*
X37868085Y-57695409D01*
X37878393Y-57661431D01*
X37895134Y-57630110D01*
X37917661Y-57602661D01*
X37945110Y-57580134D01*
X37976431Y-57563393D01*
X38010409Y-57553085D01*
X38051890Y-57549000D01*
X38728110Y-57549000D01*
X38769591Y-57553085D01*
G37*
G36*
X47756938Y-57141716D02*
G01*
X47777557Y-57147971D01*
X47796553Y-57158124D01*
X47813208Y-57171792D01*
X47826876Y-57188447D01*
X47837029Y-57207443D01*
X47843284Y-57228062D01*
X47846000Y-57255640D01*
X47846000Y-57714360D01*
X47843284Y-57741938D01*
X47837029Y-57762557D01*
X47826876Y-57781553D01*
X47813208Y-57798208D01*
X47796553Y-57811876D01*
X47777557Y-57822029D01*
X47756938Y-57828284D01*
X47729360Y-57831000D01*
X47220640Y-57831000D01*
X47193062Y-57828284D01*
X47172443Y-57822029D01*
X47153447Y-57811876D01*
X47136792Y-57798208D01*
X47123124Y-57781553D01*
X47112971Y-57762557D01*
X47106716Y-57741938D01*
X47104000Y-57714360D01*
X47104000Y-57255640D01*
X47106716Y-57228062D01*
X47112971Y-57207443D01*
X47123124Y-57188447D01*
X47136792Y-57171792D01*
X47153447Y-57158124D01*
X47172443Y-57147971D01*
X47193062Y-57141716D01*
X47220640Y-57139000D01*
X47729360Y-57139000D01*
X47756938Y-57141716D01*
G37*
G36*
X46681938Y-57141716D02*
G01*
X46702557Y-57147971D01*
X46721553Y-57158124D01*
X46738208Y-57171792D01*
X46751876Y-57188447D01*
X46762029Y-57207443D01*
X46768284Y-57228062D01*
X46771000Y-57255640D01*
X46771000Y-57714360D01*
X46768284Y-57741938D01*
X46762029Y-57762557D01*
X46751876Y-57781553D01*
X46738208Y-57798208D01*
X46721553Y-57811876D01*
X46702557Y-57822029D01*
X46681938Y-57828284D01*
X46654360Y-57831000D01*
X46145640Y-57831000D01*
X46118062Y-57828284D01*
X46097443Y-57822029D01*
X46078447Y-57811876D01*
X46061792Y-57798208D01*
X46048124Y-57781553D01*
X46037971Y-57762557D01*
X46031716Y-57741938D01*
X46029000Y-57714360D01*
X46029000Y-57255640D01*
X46031716Y-57228062D01*
X46037971Y-57207443D01*
X46048124Y-57188447D01*
X46061792Y-57171792D01*
X46078447Y-57158124D01*
X46097443Y-57147971D01*
X46118062Y-57141716D01*
X46145640Y-57139000D01*
X46654360Y-57139000D01*
X46681938Y-57141716D01*
G37*
G36*
X77223512Y-55973927D02*
G01*
X77372812Y-56003624D01*
X77536784Y-56071544D01*
X77684354Y-56170147D01*
X77809853Y-56295646D01*
X77908456Y-56443216D01*
X77976376Y-56607188D01*
X78005168Y-56751938D01*
X78011000Y-56781258D01*
X78011000Y-56958742D01*
X78006073Y-56983512D01*
X77976376Y-57132812D01*
X77908456Y-57296784D01*
X77809853Y-57444354D01*
X77684354Y-57569853D01*
X77536784Y-57668456D01*
X77372812Y-57736376D01*
X77223512Y-57766073D01*
X77198742Y-57771000D01*
X77021258Y-57771000D01*
X76996488Y-57766073D01*
X76847188Y-57736376D01*
X76683216Y-57668456D01*
X76535646Y-57569853D01*
X76410147Y-57444354D01*
X76311544Y-57296784D01*
X76243624Y-57132812D01*
X76213927Y-56983512D01*
X76209000Y-56958742D01*
X76209000Y-56781258D01*
X76214832Y-56751938D01*
X76243624Y-56607188D01*
X76311544Y-56443216D01*
X76410147Y-56295646D01*
X76535646Y-56170147D01*
X76683216Y-56071544D01*
X76847188Y-56003624D01*
X76996488Y-55973927D01*
X77021258Y-55969000D01*
X77198742Y-55969000D01*
X77223512Y-55973927D01*
G37*
G36*
X38769591Y-55978085D02*
G01*
X38803569Y-55988393D01*
X38834890Y-56005134D01*
X38862339Y-56027661D01*
X38884866Y-56055110D01*
X38901607Y-56086431D01*
X38911915Y-56120409D01*
X38916000Y-56161890D01*
X38916000Y-56763110D01*
X38911915Y-56804591D01*
X38901607Y-56838569D01*
X38884866Y-56869890D01*
X38862339Y-56897339D01*
X38834890Y-56919866D01*
X38803569Y-56936607D01*
X38769591Y-56946915D01*
X38728110Y-56951000D01*
X38051890Y-56951000D01*
X38010409Y-56946915D01*
X37976431Y-56936607D01*
X37945110Y-56919866D01*
X37917661Y-56897339D01*
X37895134Y-56869890D01*
X37878393Y-56838569D01*
X37868085Y-56804591D01*
X37864000Y-56763110D01*
X37864000Y-56161890D01*
X37868085Y-56120409D01*
X37878393Y-56086431D01*
X37895134Y-56055110D01*
X37917661Y-56027661D01*
X37945110Y-56005134D01*
X37976431Y-55988393D01*
X38010409Y-55978085D01*
X38051890Y-55974000D01*
X38728110Y-55974000D01*
X38769591Y-55978085D01*
G37*
G36*
X46681938Y-56171716D02*
G01*
X46702557Y-56177971D01*
X46721553Y-56188124D01*
X46738208Y-56201792D01*
X46751876Y-56218447D01*
X46762029Y-56237443D01*
X46768284Y-56258062D01*
X46771000Y-56285640D01*
X46771000Y-56744360D01*
X46768284Y-56771938D01*
X46762029Y-56792557D01*
X46751876Y-56811553D01*
X46738208Y-56828208D01*
X46721553Y-56841876D01*
X46702557Y-56852029D01*
X46681938Y-56858284D01*
X46654360Y-56861000D01*
X46145640Y-56861000D01*
X46118062Y-56858284D01*
X46097443Y-56852029D01*
X46078447Y-56841876D01*
X46061792Y-56828208D01*
X46048124Y-56811553D01*
X46037971Y-56792557D01*
X46031716Y-56771938D01*
X46029000Y-56744360D01*
X46029000Y-56285640D01*
X46031716Y-56258062D01*
X46037971Y-56237443D01*
X46048124Y-56218447D01*
X46061792Y-56201792D01*
X46078447Y-56188124D01*
X46097443Y-56177971D01*
X46118062Y-56171716D01*
X46145640Y-56169000D01*
X46654360Y-56169000D01*
X46681938Y-56171716D01*
G37*
G36*
X47756938Y-56171716D02*
G01*
X47777557Y-56177971D01*
X47796553Y-56188124D01*
X47813208Y-56201792D01*
X47826876Y-56218447D01*
X47837029Y-56237443D01*
X47843284Y-56258062D01*
X47846000Y-56285640D01*
X47846000Y-56744360D01*
X47843284Y-56771938D01*
X47837029Y-56792557D01*
X47826876Y-56811553D01*
X47813208Y-56828208D01*
X47796553Y-56841876D01*
X47777557Y-56852029D01*
X47756938Y-56858284D01*
X47729360Y-56861000D01*
X47220640Y-56861000D01*
X47193062Y-56858284D01*
X47172443Y-56852029D01*
X47153447Y-56841876D01*
X47136792Y-56828208D01*
X47123124Y-56811553D01*
X47112971Y-56792557D01*
X47106716Y-56771938D01*
X47104000Y-56744360D01*
X47104000Y-56285640D01*
X47106716Y-56258062D01*
X47112971Y-56237443D01*
X47123124Y-56218447D01*
X47136792Y-56201792D01*
X47153447Y-56188124D01*
X47172443Y-56177971D01*
X47193062Y-56171716D01*
X47220640Y-56169000D01*
X47729360Y-56169000D01*
X47756938Y-56171716D01*
G37*
G36*
X44381938Y-56101716D02*
G01*
X44402557Y-56107971D01*
X44421553Y-56118124D01*
X44438208Y-56131792D01*
X44451876Y-56148447D01*
X44462029Y-56167443D01*
X44468284Y-56188062D01*
X44471000Y-56215640D01*
X44471000Y-56724360D01*
X44468284Y-56751938D01*
X44462029Y-56772557D01*
X44451876Y-56791553D01*
X44438208Y-56808208D01*
X44421553Y-56821876D01*
X44402557Y-56832029D01*
X44381938Y-56838284D01*
X44354360Y-56841000D01*
X43895640Y-56841000D01*
X43868062Y-56838284D01*
X43847443Y-56832029D01*
X43828447Y-56821876D01*
X43811792Y-56808208D01*
X43798124Y-56791553D01*
X43787971Y-56772557D01*
X43781716Y-56751938D01*
X43779000Y-56724360D01*
X43779000Y-56215640D01*
X43781716Y-56188062D01*
X43787971Y-56167443D01*
X43798124Y-56148447D01*
X43811792Y-56131792D01*
X43828447Y-56118124D01*
X43847443Y-56107971D01*
X43868062Y-56101716D01*
X43895640Y-56099000D01*
X44354360Y-56099000D01*
X44381938Y-56101716D01*
G37*
G36*
X43411938Y-56101716D02*
G01*
X43432557Y-56107971D01*
X43451553Y-56118124D01*
X43468208Y-56131792D01*
X43481876Y-56148447D01*
X43492029Y-56167443D01*
X43498284Y-56188062D01*
X43501000Y-56215640D01*
X43501000Y-56724360D01*
X43498284Y-56751938D01*
X43492029Y-56772557D01*
X43481876Y-56791553D01*
X43468208Y-56808208D01*
X43451553Y-56821876D01*
X43432557Y-56832029D01*
X43411938Y-56838284D01*
X43384360Y-56841000D01*
X42925640Y-56841000D01*
X42898062Y-56838284D01*
X42877443Y-56832029D01*
X42858447Y-56821876D01*
X42841792Y-56808208D01*
X42828124Y-56791553D01*
X42817971Y-56772557D01*
X42811716Y-56751938D01*
X42809000Y-56724360D01*
X42809000Y-56215640D01*
X42811716Y-56188062D01*
X42817971Y-56167443D01*
X42828124Y-56148447D01*
X42841792Y-56131792D01*
X42858447Y-56118124D01*
X42877443Y-56107971D01*
X42898062Y-56101716D01*
X42925640Y-56099000D01*
X43384360Y-56099000D01*
X43411938Y-56101716D01*
G37*
G36*
X45141000Y-55621000D02*
G01*
X43839000Y-55621000D01*
X43839000Y-54119000D01*
X45141000Y-54119000D01*
X45141000Y-55621000D01*
G37*
G36*
X43441000Y-55621000D02*
G01*
X42139000Y-55621000D01*
X42139000Y-54119000D01*
X43441000Y-54119000D01*
X43441000Y-55621000D01*
G37*
G36*
X78011000Y-55231000D02*
G01*
X76209000Y-55231000D01*
X76209000Y-53429000D01*
X78011000Y-53429000D01*
X78011000Y-55231000D01*
G37*
G36*
X38974468Y-54113565D02*
G01*
X39013138Y-54125296D01*
X39048777Y-54144346D01*
X39080017Y-54169983D01*
X39105654Y-54201223D01*
X39124704Y-54236862D01*
X39136435Y-54275532D01*
X39141000Y-54321888D01*
X39141000Y-54973112D01*
X39136435Y-55019468D01*
X39124704Y-55058138D01*
X39105654Y-55093777D01*
X39080017Y-55125017D01*
X39048777Y-55150654D01*
X39013138Y-55169704D01*
X38974468Y-55181435D01*
X38928112Y-55186000D01*
X37851888Y-55186000D01*
X37805532Y-55181435D01*
X37766862Y-55169704D01*
X37731223Y-55150654D01*
X37699983Y-55125017D01*
X37674346Y-55093777D01*
X37655296Y-55058138D01*
X37643565Y-55019468D01*
X37639000Y-54973112D01*
X37639000Y-54321888D01*
X37643565Y-54275532D01*
X37655296Y-54236862D01*
X37674346Y-54201223D01*
X37699983Y-54169983D01*
X37731223Y-54144346D01*
X37766862Y-54125296D01*
X37805532Y-54113565D01*
X37851888Y-54109000D01*
X38928112Y-54109000D01*
X38974468Y-54113565D01*
G37*
G36*
X46611938Y-53371716D02*
G01*
X46632557Y-53377971D01*
X46651553Y-53388124D01*
X46668208Y-53401792D01*
X46681876Y-53418447D01*
X46692029Y-53437443D01*
X46698284Y-53458062D01*
X46701000Y-53485640D01*
X46701000Y-53994360D01*
X46698284Y-54021938D01*
X46692029Y-54042557D01*
X46681876Y-54061553D01*
X46668208Y-54078208D01*
X46651553Y-54091876D01*
X46632557Y-54102029D01*
X46611938Y-54108284D01*
X46584360Y-54111000D01*
X46125640Y-54111000D01*
X46098062Y-54108284D01*
X46077443Y-54102029D01*
X46058447Y-54091876D01*
X46041792Y-54078208D01*
X46028124Y-54061553D01*
X46017971Y-54042557D01*
X46011716Y-54021938D01*
X46009000Y-53994360D01*
X46009000Y-53485640D01*
X46011716Y-53458062D01*
X46017971Y-53437443D01*
X46028124Y-53418447D01*
X46041792Y-53401792D01*
X46058447Y-53388124D01*
X46077443Y-53377971D01*
X46098062Y-53371716D01*
X46125640Y-53369000D01*
X46584360Y-53369000D01*
X46611938Y-53371716D01*
G37*
G36*
X47581938Y-53371716D02*
G01*
X47602557Y-53377971D01*
X47621553Y-53388124D01*
X47638208Y-53401792D01*
X47651876Y-53418447D01*
X47662029Y-53437443D01*
X47668284Y-53458062D01*
X47671000Y-53485640D01*
X47671000Y-53994360D01*
X47668284Y-54021938D01*
X47662029Y-54042557D01*
X47651876Y-54061553D01*
X47638208Y-54078208D01*
X47621553Y-54091876D01*
X47602557Y-54102029D01*
X47581938Y-54108284D01*
X47554360Y-54111000D01*
X47095640Y-54111000D01*
X47068062Y-54108284D01*
X47047443Y-54102029D01*
X47028447Y-54091876D01*
X47011792Y-54078208D01*
X46998124Y-54061553D01*
X46987971Y-54042557D01*
X46981716Y-54021938D01*
X46979000Y-53994360D01*
X46979000Y-53485640D01*
X46981716Y-53458062D01*
X46987971Y-53437443D01*
X46998124Y-53418447D01*
X47011792Y-53401792D01*
X47028447Y-53388124D01*
X47047443Y-53377971D01*
X47068062Y-53371716D01*
X47095640Y-53369000D01*
X47554360Y-53369000D01*
X47581938Y-53371716D01*
G37*
G36*
X34384468Y-52323565D02*
G01*
X34423138Y-52335296D01*
X34458777Y-52354346D01*
X34490017Y-52379983D01*
X34515654Y-52411223D01*
X34534704Y-52446862D01*
X34546435Y-52485532D01*
X34551000Y-52531888D01*
X34551000Y-53608112D01*
X34546435Y-53654468D01*
X34534704Y-53693138D01*
X34515654Y-53728777D01*
X34490017Y-53760017D01*
X34458777Y-53785654D01*
X34423138Y-53804704D01*
X34384468Y-53816435D01*
X34338112Y-53821000D01*
X33686888Y-53821000D01*
X33640532Y-53816435D01*
X33601862Y-53804704D01*
X33566223Y-53785654D01*
X33534983Y-53760017D01*
X33509346Y-53728777D01*
X33490296Y-53693138D01*
X33478565Y-53654468D01*
X33474000Y-53608112D01*
X33474000Y-52531888D01*
X33478565Y-52485532D01*
X33490296Y-52446862D01*
X33509346Y-52411223D01*
X33534983Y-52379983D01*
X33566223Y-52354346D01*
X33601862Y-52335296D01*
X33640532Y-52323565D01*
X33686888Y-52319000D01*
X34338112Y-52319000D01*
X34384468Y-52323565D01*
G37*
G36*
X36259468Y-52323565D02*
G01*
X36298138Y-52335296D01*
X36333777Y-52354346D01*
X36365017Y-52379983D01*
X36390654Y-52411223D01*
X36409704Y-52446862D01*
X36421435Y-52485532D01*
X36426000Y-52531888D01*
X36426000Y-53608112D01*
X36421435Y-53654468D01*
X36409704Y-53693138D01*
X36390654Y-53728777D01*
X36365017Y-53760017D01*
X36333777Y-53785654D01*
X36298138Y-53804704D01*
X36259468Y-53816435D01*
X36213112Y-53821000D01*
X35561888Y-53821000D01*
X35515532Y-53816435D01*
X35476862Y-53804704D01*
X35441223Y-53785654D01*
X35409983Y-53760017D01*
X35384346Y-53728777D01*
X35365296Y-53693138D01*
X35353565Y-53654468D01*
X35349000Y-53608112D01*
X35349000Y-52531888D01*
X35353565Y-52485532D01*
X35365296Y-52446862D01*
X35384346Y-52411223D01*
X35409983Y-52379983D01*
X35441223Y-52354346D01*
X35476862Y-52335296D01*
X35515532Y-52323565D01*
X35561888Y-52319000D01*
X36213112Y-52319000D01*
X36259468Y-52323565D01*
G37*
G36*
X43441000Y-53421000D02*
G01*
X42139000Y-53421000D01*
X42139000Y-51919000D01*
X43441000Y-51919000D01*
X43441000Y-53421000D01*
G37*
G36*
X45141000Y-53421000D02*
G01*
X43839000Y-53421000D01*
X43839000Y-51919000D01*
X45141000Y-51919000D01*
X45141000Y-53421000D01*
G37*
G36*
X38974468Y-52238565D02*
G01*
X39013138Y-52250296D01*
X39048777Y-52269346D01*
X39080017Y-52294983D01*
X39105654Y-52326223D01*
X39124704Y-52361862D01*
X39136435Y-52400532D01*
X39141000Y-52446888D01*
X39141000Y-53098112D01*
X39136435Y-53144468D01*
X39124704Y-53183138D01*
X39105654Y-53218777D01*
X39080017Y-53250017D01*
X39048777Y-53275654D01*
X39013138Y-53294704D01*
X38974468Y-53306435D01*
X38928112Y-53311000D01*
X37851888Y-53311000D01*
X37805532Y-53306435D01*
X37766862Y-53294704D01*
X37731223Y-53275654D01*
X37699983Y-53250017D01*
X37674346Y-53218777D01*
X37655296Y-53183138D01*
X37643565Y-53144468D01*
X37639000Y-53098112D01*
X37639000Y-52446888D01*
X37643565Y-52400532D01*
X37655296Y-52361862D01*
X37674346Y-52326223D01*
X37699983Y-52294983D01*
X37731223Y-52269346D01*
X37766862Y-52250296D01*
X37805532Y-52238565D01*
X37851888Y-52234000D01*
X38928112Y-52234000D01*
X38974468Y-52238565D01*
G37*
G36*
X63074591Y-50638085D02*
G01*
X63108569Y-50648393D01*
X63139890Y-50665134D01*
X63167339Y-50687661D01*
X63189866Y-50715110D01*
X63206607Y-50746431D01*
X63216915Y-50780409D01*
X63221000Y-50821890D01*
X63221000Y-51498110D01*
X63216915Y-51539591D01*
X63206607Y-51573569D01*
X63189866Y-51604890D01*
X63167339Y-51632339D01*
X63139890Y-51654866D01*
X63108569Y-51671607D01*
X63074591Y-51681915D01*
X63033110Y-51686000D01*
X62431890Y-51686000D01*
X62390409Y-51681915D01*
X62356431Y-51671607D01*
X62325110Y-51654866D01*
X62297661Y-51632339D01*
X62275134Y-51604890D01*
X62258393Y-51573569D01*
X62248085Y-51539591D01*
X62244000Y-51498110D01*
X62244000Y-50821890D01*
X62248085Y-50780409D01*
X62258393Y-50746431D01*
X62275134Y-50715110D01*
X62297661Y-50687661D01*
X62325110Y-50665134D01*
X62356431Y-50648393D01*
X62390409Y-50638085D01*
X62431890Y-50634000D01*
X63033110Y-50634000D01*
X63074591Y-50638085D01*
G37*
G36*
X64649591Y-50638085D02*
G01*
X64683569Y-50648393D01*
X64714890Y-50665134D01*
X64742339Y-50687661D01*
X64764866Y-50715110D01*
X64781607Y-50746431D01*
X64791915Y-50780409D01*
X64796000Y-50821890D01*
X64796000Y-51498110D01*
X64791915Y-51539591D01*
X64781607Y-51573569D01*
X64764866Y-51604890D01*
X64742339Y-51632339D01*
X64714890Y-51654866D01*
X64683569Y-51671607D01*
X64649591Y-51681915D01*
X64608110Y-51686000D01*
X64006890Y-51686000D01*
X63965409Y-51681915D01*
X63931431Y-51671607D01*
X63900110Y-51654866D01*
X63872661Y-51632339D01*
X63850134Y-51604890D01*
X63833393Y-51573569D01*
X63823085Y-51539591D01*
X63819000Y-51498110D01*
X63819000Y-50821890D01*
X63823085Y-50780409D01*
X63833393Y-50746431D01*
X63850134Y-50715110D01*
X63872661Y-50687661D01*
X63900110Y-50665134D01*
X63931431Y-50648393D01*
X63965409Y-50638085D01*
X64006890Y-50634000D01*
X64608110Y-50634000D01*
X64649591Y-50638085D01*
G37*
G36*
X44381938Y-50701716D02*
G01*
X44402557Y-50707971D01*
X44421553Y-50718124D01*
X44438208Y-50731792D01*
X44451876Y-50748447D01*
X44462029Y-50767443D01*
X44468284Y-50788062D01*
X44471000Y-50815640D01*
X44471000Y-51324360D01*
X44468284Y-51351938D01*
X44462029Y-51372557D01*
X44451876Y-51391553D01*
X44438208Y-51408208D01*
X44421553Y-51421876D01*
X44402557Y-51432029D01*
X44381938Y-51438284D01*
X44354360Y-51441000D01*
X43895640Y-51441000D01*
X43868062Y-51438284D01*
X43847443Y-51432029D01*
X43828447Y-51421876D01*
X43811792Y-51408208D01*
X43798124Y-51391553D01*
X43787971Y-51372557D01*
X43781716Y-51351938D01*
X43779000Y-51324360D01*
X43779000Y-50815640D01*
X43781716Y-50788062D01*
X43787971Y-50767443D01*
X43798124Y-50748447D01*
X43811792Y-50731792D01*
X43828447Y-50718124D01*
X43847443Y-50707971D01*
X43868062Y-50701716D01*
X43895640Y-50699000D01*
X44354360Y-50699000D01*
X44381938Y-50701716D01*
G37*
G36*
X43411938Y-50701716D02*
G01*
X43432557Y-50707971D01*
X43451553Y-50718124D01*
X43468208Y-50731792D01*
X43481876Y-50748447D01*
X43492029Y-50767443D01*
X43498284Y-50788062D01*
X43501000Y-50815640D01*
X43501000Y-51324360D01*
X43498284Y-51351938D01*
X43492029Y-51372557D01*
X43481876Y-51391553D01*
X43468208Y-51408208D01*
X43451553Y-51421876D01*
X43432557Y-51432029D01*
X43411938Y-51438284D01*
X43384360Y-51441000D01*
X42925640Y-51441000D01*
X42898062Y-51438284D01*
X42877443Y-51432029D01*
X42858447Y-51421876D01*
X42841792Y-51408208D01*
X42828124Y-51391553D01*
X42817971Y-51372557D01*
X42811716Y-51351938D01*
X42809000Y-51324360D01*
X42809000Y-50815640D01*
X42811716Y-50788062D01*
X42817971Y-50767443D01*
X42828124Y-50748447D01*
X42841792Y-50731792D01*
X42858447Y-50718124D01*
X42877443Y-50707971D01*
X42898062Y-50701716D01*
X42925640Y-50699000D01*
X43384360Y-50699000D01*
X43411938Y-50701716D01*
G37*
G36*
X39191000Y-51161000D02*
G01*
X37589000Y-51161000D01*
X37589000Y-49059000D01*
X39191000Y-49059000D01*
X39191000Y-51161000D01*
G37*
G36*
X36891000Y-51161000D02*
G01*
X35289000Y-51161000D01*
X35289000Y-49059000D01*
X36891000Y-49059000D01*
X36891000Y-51161000D01*
G37*
G36*
X34591000Y-51161000D02*
G01*
X32989000Y-51161000D01*
X32989000Y-49059000D01*
X34591000Y-49059000D01*
X34591000Y-51161000D01*
G37*
G36*
X47681938Y-49741716D02*
G01*
X47702557Y-49747971D01*
X47721553Y-49758124D01*
X47738208Y-49771792D01*
X47751876Y-49788447D01*
X47762029Y-49807443D01*
X47768284Y-49828062D01*
X47771000Y-49855640D01*
X47771000Y-50314360D01*
X47768284Y-50341938D01*
X47762029Y-50362557D01*
X47751876Y-50381553D01*
X47738208Y-50398208D01*
X47721553Y-50411876D01*
X47702557Y-50422029D01*
X47681938Y-50428284D01*
X47654360Y-50431000D01*
X47145640Y-50431000D01*
X47118062Y-50428284D01*
X47097443Y-50422029D01*
X47078447Y-50411876D01*
X47061792Y-50398208D01*
X47048124Y-50381553D01*
X47037971Y-50362557D01*
X47031716Y-50341938D01*
X47029000Y-50314360D01*
X47029000Y-49855640D01*
X47031716Y-49828062D01*
X47037971Y-49807443D01*
X47048124Y-49788447D01*
X47061792Y-49771792D01*
X47078447Y-49758124D01*
X47097443Y-49747971D01*
X47118062Y-49741716D01*
X47145640Y-49739000D01*
X47654360Y-49739000D01*
X47681938Y-49741716D01*
G37*
G36*
X51420295Y-48500323D02*
G01*
X51427309Y-48502451D01*
X51441077Y-48509810D01*
X51463716Y-48519187D01*
X51487749Y-48523967D01*
X51512253Y-48523967D01*
X51536286Y-48519186D01*
X51558923Y-48509810D01*
X51572691Y-48502451D01*
X51579705Y-48500323D01*
X51593140Y-48499000D01*
X51906860Y-48499000D01*
X51920295Y-48500323D01*
X51927309Y-48502451D01*
X51941077Y-48509810D01*
X51963716Y-48519187D01*
X51987749Y-48523967D01*
X52012253Y-48523967D01*
X52036286Y-48519186D01*
X52058923Y-48509810D01*
X52072691Y-48502451D01*
X52079705Y-48500323D01*
X52093140Y-48499000D01*
X52406860Y-48499000D01*
X52420295Y-48500323D01*
X52427309Y-48502451D01*
X52441077Y-48509810D01*
X52463716Y-48519187D01*
X52487749Y-48523967D01*
X52512253Y-48523967D01*
X52536286Y-48519186D01*
X52558923Y-48509810D01*
X52572691Y-48502451D01*
X52579705Y-48500323D01*
X52593140Y-48499000D01*
X52906860Y-48499000D01*
X52920295Y-48500323D01*
X52927309Y-48502451D01*
X52941077Y-48509810D01*
X52963716Y-48519187D01*
X52987749Y-48523967D01*
X53012253Y-48523967D01*
X53036286Y-48519186D01*
X53058923Y-48509810D01*
X53072691Y-48502451D01*
X53079705Y-48500323D01*
X53093140Y-48499000D01*
X53406860Y-48499000D01*
X53420295Y-48500323D01*
X53427309Y-48502451D01*
X53441077Y-48509810D01*
X53463716Y-48519187D01*
X53487749Y-48523967D01*
X53512253Y-48523967D01*
X53536286Y-48519186D01*
X53558923Y-48509810D01*
X53572691Y-48502451D01*
X53579705Y-48500323D01*
X53593140Y-48499000D01*
X53906860Y-48499000D01*
X53920295Y-48500323D01*
X53927309Y-48502451D01*
X53941077Y-48509810D01*
X53963716Y-48519187D01*
X53987749Y-48523967D01*
X54012253Y-48523967D01*
X54036286Y-48519186D01*
X54058923Y-48509810D01*
X54072691Y-48502451D01*
X54079705Y-48500323D01*
X54093140Y-48499000D01*
X54406860Y-48499000D01*
X54420295Y-48500323D01*
X54427309Y-48502451D01*
X54441077Y-48509810D01*
X54463716Y-48519187D01*
X54487749Y-48523967D01*
X54512253Y-48523967D01*
X54536286Y-48519186D01*
X54558923Y-48509810D01*
X54572691Y-48502451D01*
X54579705Y-48500323D01*
X54593140Y-48499000D01*
X54906860Y-48499000D01*
X54920295Y-48500323D01*
X54927309Y-48502451D01*
X54941077Y-48509810D01*
X54963716Y-48519187D01*
X54987749Y-48523967D01*
X55012253Y-48523967D01*
X55036286Y-48519186D01*
X55058923Y-48509810D01*
X55072691Y-48502451D01*
X55079705Y-48500323D01*
X55093140Y-48499000D01*
X55406860Y-48499000D01*
X55420295Y-48500323D01*
X55427309Y-48502451D01*
X55441077Y-48509810D01*
X55463716Y-48519187D01*
X55487749Y-48523967D01*
X55512253Y-48523967D01*
X55536286Y-48519186D01*
X55558923Y-48509810D01*
X55572691Y-48502451D01*
X55579705Y-48500323D01*
X55593140Y-48499000D01*
X55906860Y-48499000D01*
X55920295Y-48500323D01*
X55927309Y-48502451D01*
X55941077Y-48509810D01*
X55963716Y-48519187D01*
X55987749Y-48523967D01*
X56012253Y-48523967D01*
X56036286Y-48519186D01*
X56058923Y-48509810D01*
X56072691Y-48502451D01*
X56079705Y-48500323D01*
X56093140Y-48499000D01*
X56406860Y-48499000D01*
X56420295Y-48500323D01*
X56427309Y-48502451D01*
X56441077Y-48509810D01*
X56463716Y-48519187D01*
X56487749Y-48523967D01*
X56512253Y-48523967D01*
X56536286Y-48519186D01*
X56558923Y-48509810D01*
X56572691Y-48502451D01*
X56579705Y-48500323D01*
X56593140Y-48499000D01*
X56906860Y-48499000D01*
X56920295Y-48500323D01*
X56927309Y-48502451D01*
X56941077Y-48509810D01*
X56963716Y-48519187D01*
X56987749Y-48523967D01*
X57012253Y-48523967D01*
X57036286Y-48519186D01*
X57058923Y-48509810D01*
X57072691Y-48502451D01*
X57079705Y-48500323D01*
X57093140Y-48499000D01*
X57406860Y-48499000D01*
X57420295Y-48500323D01*
X57427309Y-48502451D01*
X57441077Y-48509810D01*
X57463716Y-48519187D01*
X57487749Y-48523967D01*
X57512253Y-48523967D01*
X57536286Y-48519186D01*
X57558923Y-48509810D01*
X57572691Y-48502451D01*
X57579705Y-48500323D01*
X57593140Y-48499000D01*
X57906860Y-48499000D01*
X57920295Y-48500323D01*
X57927309Y-48502451D01*
X57941077Y-48509810D01*
X57963716Y-48519187D01*
X57987749Y-48523967D01*
X58012253Y-48523967D01*
X58036286Y-48519186D01*
X58058923Y-48509810D01*
X58072691Y-48502451D01*
X58079705Y-48500323D01*
X58093140Y-48499000D01*
X58406860Y-48499000D01*
X58420295Y-48500323D01*
X58427309Y-48502451D01*
X58441077Y-48509810D01*
X58463716Y-48519187D01*
X58487749Y-48523967D01*
X58512253Y-48523967D01*
X58536286Y-48519186D01*
X58558923Y-48509810D01*
X58572691Y-48502451D01*
X58579705Y-48500323D01*
X58593140Y-48499000D01*
X58906860Y-48499000D01*
X58920295Y-48500323D01*
X58927310Y-48502451D01*
X58933776Y-48505908D01*
X58939442Y-48510558D01*
X58944092Y-48516224D01*
X58947549Y-48522690D01*
X58949677Y-48529705D01*
X58951000Y-48543140D01*
X58951000Y-50106860D01*
X58949677Y-50120295D01*
X58947549Y-50127310D01*
X58944092Y-50133776D01*
X58939442Y-50139442D01*
X58933776Y-50144092D01*
X58927310Y-50147549D01*
X58920295Y-50149677D01*
X58906860Y-50151000D01*
X58593140Y-50151000D01*
X58579705Y-50149677D01*
X58572691Y-50147549D01*
X58558923Y-50140190D01*
X58536284Y-50130813D01*
X58512251Y-50126033D01*
X58487747Y-50126033D01*
X58463714Y-50130814D01*
X58441077Y-50140190D01*
X58427309Y-50147549D01*
X58420295Y-50149677D01*
X58406860Y-50151000D01*
X58093140Y-50151000D01*
X58079705Y-50149677D01*
X58072691Y-50147549D01*
X58058923Y-50140190D01*
X58036284Y-50130813D01*
X58012251Y-50126033D01*
X57987747Y-50126033D01*
X57963714Y-50130814D01*
X57941077Y-50140190D01*
X57927309Y-50147549D01*
X57920295Y-50149677D01*
X57906860Y-50151000D01*
X57593140Y-50151000D01*
X57579705Y-50149677D01*
X57572691Y-50147549D01*
X57558923Y-50140190D01*
X57536284Y-50130813D01*
X57512251Y-50126033D01*
X57487747Y-50126033D01*
X57463714Y-50130814D01*
X57441077Y-50140190D01*
X57427309Y-50147549D01*
X57420295Y-50149677D01*
X57406860Y-50151000D01*
X57093140Y-50151000D01*
X57079705Y-50149677D01*
X57072691Y-50147549D01*
X57058923Y-50140190D01*
X57036284Y-50130813D01*
X57012251Y-50126033D01*
X56987747Y-50126033D01*
X56963714Y-50130814D01*
X56941077Y-50140190D01*
X56927309Y-50147549D01*
X56920295Y-50149677D01*
X56906860Y-50151000D01*
X56593140Y-50151000D01*
X56579705Y-50149677D01*
X56572691Y-50147549D01*
X56558923Y-50140190D01*
X56536284Y-50130813D01*
X56512251Y-50126033D01*
X56487747Y-50126033D01*
X56463714Y-50130814D01*
X56441077Y-50140190D01*
X56427309Y-50147549D01*
X56420295Y-50149677D01*
X56406860Y-50151000D01*
X56093140Y-50151000D01*
X56079705Y-50149677D01*
X56072691Y-50147549D01*
X56058923Y-50140190D01*
X56036284Y-50130813D01*
X56012251Y-50126033D01*
X55987747Y-50126033D01*
X55963714Y-50130814D01*
X55941077Y-50140190D01*
X55927309Y-50147549D01*
X55920295Y-50149677D01*
X55906860Y-50151000D01*
X55593140Y-50151000D01*
X55579705Y-50149677D01*
X55572691Y-50147549D01*
X55558923Y-50140190D01*
X55536284Y-50130813D01*
X55512251Y-50126033D01*
X55487747Y-50126033D01*
X55463714Y-50130814D01*
X55441077Y-50140190D01*
X55427309Y-50147549D01*
X55420295Y-50149677D01*
X55406860Y-50151000D01*
X55093140Y-50151000D01*
X55079705Y-50149677D01*
X55072691Y-50147549D01*
X55058923Y-50140190D01*
X55036284Y-50130813D01*
X55012251Y-50126033D01*
X54987747Y-50126033D01*
X54963714Y-50130814D01*
X54941077Y-50140190D01*
X54927309Y-50147549D01*
X54920295Y-50149677D01*
X54906860Y-50151000D01*
X54593140Y-50151000D01*
X54579705Y-50149677D01*
X54572691Y-50147549D01*
X54558923Y-50140190D01*
X54536284Y-50130813D01*
X54512251Y-50126033D01*
X54487747Y-50126033D01*
X54463714Y-50130814D01*
X54441077Y-50140190D01*
X54427309Y-50147549D01*
X54420295Y-50149677D01*
X54406860Y-50151000D01*
X54093140Y-50151000D01*
X54079705Y-50149677D01*
X54072691Y-50147549D01*
X54058923Y-50140190D01*
X54036284Y-50130813D01*
X54012251Y-50126033D01*
X53987747Y-50126033D01*
X53963714Y-50130814D01*
X53941077Y-50140190D01*
X53927309Y-50147549D01*
X53920295Y-50149677D01*
X53906860Y-50151000D01*
X53593140Y-50151000D01*
X53579705Y-50149677D01*
X53572691Y-50147549D01*
X53558923Y-50140190D01*
X53536284Y-50130813D01*
X53512251Y-50126033D01*
X53487747Y-50126033D01*
X53463714Y-50130814D01*
X53441077Y-50140190D01*
X53427309Y-50147549D01*
X53420295Y-50149677D01*
X53406860Y-50151000D01*
X53093140Y-50151000D01*
X53079705Y-50149677D01*
X53072691Y-50147549D01*
X53058923Y-50140190D01*
X53036284Y-50130813D01*
X53012251Y-50126033D01*
X52987747Y-50126033D01*
X52963714Y-50130814D01*
X52941077Y-50140190D01*
X52927309Y-50147549D01*
X52920295Y-50149677D01*
X52906860Y-50151000D01*
X52593140Y-50151000D01*
X52579705Y-50149677D01*
X52572691Y-50147549D01*
X52558923Y-50140190D01*
X52536284Y-50130813D01*
X52512251Y-50126033D01*
X52487747Y-50126033D01*
X52463714Y-50130814D01*
X52441077Y-50140190D01*
X52427309Y-50147549D01*
X52420295Y-50149677D01*
X52406860Y-50151000D01*
X52093140Y-50151000D01*
X52079705Y-50149677D01*
X52072691Y-50147549D01*
X52058923Y-50140190D01*
X52036284Y-50130813D01*
X52012251Y-50126033D01*
X51987747Y-50126033D01*
X51963714Y-50130814D01*
X51941077Y-50140190D01*
X51927309Y-50147549D01*
X51920295Y-50149677D01*
X51906860Y-50151000D01*
X51593140Y-50151000D01*
X51579705Y-50149677D01*
X51572691Y-50147549D01*
X51558923Y-50140190D01*
X51536284Y-50130813D01*
X51512251Y-50126033D01*
X51487747Y-50126033D01*
X51463714Y-50130814D01*
X51441077Y-50140190D01*
X51427309Y-50147549D01*
X51420295Y-50149677D01*
X51406860Y-50151000D01*
X51093140Y-50151000D01*
X51079705Y-50149677D01*
X51072690Y-50147549D01*
X51066224Y-50144092D01*
X51060558Y-50139442D01*
X51055908Y-50133776D01*
X51052451Y-50127310D01*
X51050323Y-50120295D01*
X51049000Y-50106860D01*
X51049000Y-48543140D01*
X51050323Y-48529705D01*
X51052451Y-48522690D01*
X51055908Y-48516224D01*
X51060558Y-48510558D01*
X51066224Y-48505908D01*
X51072690Y-48502451D01*
X51079705Y-48500323D01*
X51093140Y-48499000D01*
X51406860Y-48499000D01*
X51420295Y-48500323D01*
G37*
G36*
X62781938Y-49141716D02*
G01*
X62802557Y-49147971D01*
X62821553Y-49158124D01*
X62838208Y-49171792D01*
X62851876Y-49188447D01*
X62862029Y-49207443D01*
X62868284Y-49228062D01*
X62871000Y-49255640D01*
X62871000Y-49714360D01*
X62868284Y-49741938D01*
X62862029Y-49762557D01*
X62851876Y-49781553D01*
X62838208Y-49798208D01*
X62821553Y-49811876D01*
X62802557Y-49822029D01*
X62781938Y-49828284D01*
X62754360Y-49831000D01*
X62245640Y-49831000D01*
X62218062Y-49828284D01*
X62197443Y-49822029D01*
X62178447Y-49811876D01*
X62161792Y-49798208D01*
X62148124Y-49781553D01*
X62137971Y-49762557D01*
X62131716Y-49741938D01*
X62129000Y-49714360D01*
X62129000Y-49255640D01*
X62131716Y-49228062D01*
X62137971Y-49207443D01*
X62148124Y-49188447D01*
X62161792Y-49171792D01*
X62178447Y-49158124D01*
X62197443Y-49147971D01*
X62218062Y-49141716D01*
X62245640Y-49139000D01*
X62754360Y-49139000D01*
X62781938Y-49141716D01*
G37*
G36*
X63781938Y-49141716D02*
G01*
X63802557Y-49147971D01*
X63821553Y-49158124D01*
X63838208Y-49171792D01*
X63851876Y-49188447D01*
X63862029Y-49207443D01*
X63868284Y-49228062D01*
X63871000Y-49255640D01*
X63871000Y-49714360D01*
X63868284Y-49741938D01*
X63862029Y-49762557D01*
X63851876Y-49781553D01*
X63838208Y-49798208D01*
X63821553Y-49811876D01*
X63802557Y-49822029D01*
X63781938Y-49828284D01*
X63754360Y-49831000D01*
X63245640Y-49831000D01*
X63218062Y-49828284D01*
X63197443Y-49822029D01*
X63178447Y-49811876D01*
X63161792Y-49798208D01*
X63148124Y-49781553D01*
X63137971Y-49762557D01*
X63131716Y-49741938D01*
X63129000Y-49714360D01*
X63129000Y-49255640D01*
X63131716Y-49228062D01*
X63137971Y-49207443D01*
X63148124Y-49188447D01*
X63161792Y-49171792D01*
X63178447Y-49158124D01*
X63197443Y-49147971D01*
X63218062Y-49141716D01*
X63245640Y-49139000D01*
X63754360Y-49139000D01*
X63781938Y-49141716D01*
G37*
G36*
X47681938Y-48771716D02*
G01*
X47702557Y-48777971D01*
X47721553Y-48788124D01*
X47738208Y-48801792D01*
X47751876Y-48818447D01*
X47762029Y-48837443D01*
X47768284Y-48858062D01*
X47771000Y-48885640D01*
X47771000Y-49344360D01*
X47768284Y-49371938D01*
X47762029Y-49392557D01*
X47751876Y-49411553D01*
X47738208Y-49428208D01*
X47721553Y-49441876D01*
X47702557Y-49452029D01*
X47681938Y-49458284D01*
X47654360Y-49461000D01*
X47145640Y-49461000D01*
X47118062Y-49458284D01*
X47097443Y-49452029D01*
X47078447Y-49441876D01*
X47061792Y-49428208D01*
X47048124Y-49411553D01*
X47037971Y-49392557D01*
X47031716Y-49371938D01*
X47029000Y-49344360D01*
X47029000Y-48885640D01*
X47031716Y-48858062D01*
X47037971Y-48837443D01*
X47048124Y-48818447D01*
X47061792Y-48801792D01*
X47078447Y-48788124D01*
X47097443Y-48777971D01*
X47118062Y-48771716D01*
X47145640Y-48769000D01*
X47654360Y-48769000D01*
X47681938Y-48771716D01*
G37*
G36*
X43674468Y-48153565D02*
G01*
X43713138Y-48165296D01*
X43748777Y-48184346D01*
X43780017Y-48209983D01*
X43805654Y-48241223D01*
X43824704Y-48276862D01*
X43836435Y-48315532D01*
X43841000Y-48361888D01*
X43841000Y-49013112D01*
X43836435Y-49059468D01*
X43824704Y-49098138D01*
X43805654Y-49133777D01*
X43780017Y-49165017D01*
X43748777Y-49190654D01*
X43713138Y-49209704D01*
X43674468Y-49221435D01*
X43628112Y-49226000D01*
X42551888Y-49226000D01*
X42505532Y-49221435D01*
X42466862Y-49209704D01*
X42431223Y-49190654D01*
X42399983Y-49165017D01*
X42374346Y-49133777D01*
X42355296Y-49098138D01*
X42343565Y-49059468D01*
X42339000Y-49013112D01*
X42339000Y-48361888D01*
X42343565Y-48315532D01*
X42355296Y-48276862D01*
X42374346Y-48241223D01*
X42399983Y-48209983D01*
X42431223Y-48184346D01*
X42466862Y-48165296D01*
X42505532Y-48153565D01*
X42551888Y-48149000D01*
X43628112Y-48149000D01*
X43674468Y-48153565D01*
G37*
G36*
X63781938Y-48171716D02*
G01*
X63802557Y-48177971D01*
X63821553Y-48188124D01*
X63838208Y-48201792D01*
X63851876Y-48218447D01*
X63862029Y-48237443D01*
X63868284Y-48258062D01*
X63871000Y-48285640D01*
X63871000Y-48744360D01*
X63868284Y-48771938D01*
X63862029Y-48792557D01*
X63851876Y-48811553D01*
X63838208Y-48828208D01*
X63821553Y-48841876D01*
X63802557Y-48852029D01*
X63781938Y-48858284D01*
X63754360Y-48861000D01*
X63245640Y-48861000D01*
X63218062Y-48858284D01*
X63197443Y-48852029D01*
X63178447Y-48841876D01*
X63161792Y-48828208D01*
X63148124Y-48811553D01*
X63137971Y-48792557D01*
X63131716Y-48771938D01*
X63129000Y-48744360D01*
X63129000Y-48285640D01*
X63131716Y-48258062D01*
X63137971Y-48237443D01*
X63148124Y-48218447D01*
X63161792Y-48201792D01*
X63178447Y-48188124D01*
X63197443Y-48177971D01*
X63218062Y-48171716D01*
X63245640Y-48169000D01*
X63754360Y-48169000D01*
X63781938Y-48171716D01*
G37*
G36*
X62781938Y-48171716D02*
G01*
X62802557Y-48177971D01*
X62821553Y-48188124D01*
X62838208Y-48201792D01*
X62851876Y-48218447D01*
X62862029Y-48237443D01*
X62868284Y-48258062D01*
X62871000Y-48285640D01*
X62871000Y-48744360D01*
X62868284Y-48771938D01*
X62862029Y-48792557D01*
X62851876Y-48811553D01*
X62838208Y-48828208D01*
X62821553Y-48841876D01*
X62802557Y-48852029D01*
X62781938Y-48858284D01*
X62754360Y-48861000D01*
X62245640Y-48861000D01*
X62218062Y-48858284D01*
X62197443Y-48852029D01*
X62178447Y-48841876D01*
X62161792Y-48828208D01*
X62148124Y-48811553D01*
X62137971Y-48792557D01*
X62131716Y-48771938D01*
X62129000Y-48744360D01*
X62129000Y-48285640D01*
X62131716Y-48258062D01*
X62137971Y-48237443D01*
X62148124Y-48218447D01*
X62161792Y-48201792D01*
X62178447Y-48188124D01*
X62197443Y-48177971D01*
X62218062Y-48171716D01*
X62245640Y-48169000D01*
X62754360Y-48169000D01*
X62781938Y-48171716D01*
G37*
G36*
X73241000Y-48701000D02*
G01*
X70739000Y-48701000D01*
X70739000Y-47859000D01*
X73241000Y-47859000D01*
X73241000Y-48701000D01*
G37*
G36*
X77141000Y-48701000D02*
G01*
X74639000Y-48701000D01*
X74639000Y-47859000D01*
X77141000Y-47859000D01*
X77141000Y-48701000D01*
G37*
G36*
X48769591Y-47033085D02*
G01*
X48803569Y-47043393D01*
X48834890Y-47060134D01*
X48862339Y-47082661D01*
X48884866Y-47110110D01*
X48901607Y-47141431D01*
X48911915Y-47175409D01*
X48916000Y-47216890D01*
X48916000Y-47818110D01*
X48911915Y-47859591D01*
X48901607Y-47893569D01*
X48884866Y-47924890D01*
X48862339Y-47952339D01*
X48834890Y-47974866D01*
X48803569Y-47991607D01*
X48769591Y-48001915D01*
X48728110Y-48006000D01*
X48051890Y-48006000D01*
X48010409Y-48001915D01*
X47976431Y-47991607D01*
X47945110Y-47974866D01*
X47917661Y-47952339D01*
X47895134Y-47924890D01*
X47878393Y-47893569D01*
X47868085Y-47859591D01*
X47864000Y-47818110D01*
X47864000Y-47216890D01*
X47868085Y-47175409D01*
X47878393Y-47141431D01*
X47895134Y-47110110D01*
X47917661Y-47082661D01*
X47945110Y-47060134D01*
X47976431Y-47043393D01*
X48010409Y-47033085D01*
X48051890Y-47029000D01*
X48728110Y-47029000D01*
X48769591Y-47033085D01*
G37*
G36*
X73241000Y-47431000D02*
G01*
X70739000Y-47431000D01*
X70739000Y-46589000D01*
X73241000Y-46589000D01*
X73241000Y-47431000D01*
G37*
G36*
X77141000Y-47431000D02*
G01*
X74639000Y-47431000D01*
X74639000Y-46589000D01*
X77141000Y-46589000D01*
X77141000Y-47431000D01*
G37*
G36*
X43674468Y-46278565D02*
G01*
X43713138Y-46290296D01*
X43748777Y-46309346D01*
X43780017Y-46334983D01*
X43805654Y-46366223D01*
X43824704Y-46401862D01*
X43836435Y-46440532D01*
X43841000Y-46486888D01*
X43841000Y-47138112D01*
X43836435Y-47184468D01*
X43824704Y-47223138D01*
X43805654Y-47258777D01*
X43780017Y-47290017D01*
X43748777Y-47315654D01*
X43713138Y-47334704D01*
X43674468Y-47346435D01*
X43628112Y-47351000D01*
X42551888Y-47351000D01*
X42505532Y-47346435D01*
X42466862Y-47334704D01*
X42431223Y-47315654D01*
X42399983Y-47290017D01*
X42374346Y-47258777D01*
X42355296Y-47223138D01*
X42343565Y-47184468D01*
X42339000Y-47138112D01*
X42339000Y-46486888D01*
X42343565Y-46440532D01*
X42355296Y-46401862D01*
X42374346Y-46366223D01*
X42399983Y-46334983D01*
X42431223Y-46309346D01*
X42466862Y-46290296D01*
X42505532Y-46278565D01*
X42551888Y-46274000D01*
X43628112Y-46274000D01*
X43674468Y-46278565D01*
G37*
G36*
X51021938Y-46381716D02*
G01*
X51042557Y-46387971D01*
X51061553Y-46398124D01*
X51078208Y-46411792D01*
X51091876Y-46428447D01*
X51102029Y-46447443D01*
X51108284Y-46468062D01*
X51111000Y-46495640D01*
X51111000Y-47004360D01*
X51108284Y-47031938D01*
X51102029Y-47052557D01*
X51091876Y-47071553D01*
X51078208Y-47088208D01*
X51061553Y-47101876D01*
X51042557Y-47112029D01*
X51021938Y-47118284D01*
X50994360Y-47121000D01*
X50535640Y-47121000D01*
X50508062Y-47118284D01*
X50487443Y-47112029D01*
X50468447Y-47101876D01*
X50451792Y-47088208D01*
X50438124Y-47071553D01*
X50427971Y-47052557D01*
X50421716Y-47031938D01*
X50419000Y-47004360D01*
X50419000Y-46495640D01*
X50421716Y-46468062D01*
X50427971Y-46447443D01*
X50438124Y-46428447D01*
X50451792Y-46411792D01*
X50468447Y-46398124D01*
X50487443Y-46387971D01*
X50508062Y-46381716D01*
X50535640Y-46379000D01*
X50994360Y-46379000D01*
X51021938Y-46381716D01*
G37*
G36*
X51991938Y-46381716D02*
G01*
X52012557Y-46387971D01*
X52031553Y-46398124D01*
X52048208Y-46411792D01*
X52061876Y-46428447D01*
X52072029Y-46447443D01*
X52078284Y-46468062D01*
X52081000Y-46495640D01*
X52081000Y-47004360D01*
X52078284Y-47031938D01*
X52072029Y-47052557D01*
X52061876Y-47071553D01*
X52048208Y-47088208D01*
X52031553Y-47101876D01*
X52012557Y-47112029D01*
X51991938Y-47118284D01*
X51964360Y-47121000D01*
X51505640Y-47121000D01*
X51478062Y-47118284D01*
X51457443Y-47112029D01*
X51438447Y-47101876D01*
X51421792Y-47088208D01*
X51408124Y-47071553D01*
X51397971Y-47052557D01*
X51391716Y-47031938D01*
X51389000Y-47004360D01*
X51389000Y-46495640D01*
X51391716Y-46468062D01*
X51397971Y-46447443D01*
X51408124Y-46428447D01*
X51421792Y-46411792D01*
X51438447Y-46398124D01*
X51457443Y-46387971D01*
X51478062Y-46381716D01*
X51505640Y-46379000D01*
X51964360Y-46379000D01*
X51991938Y-46381716D01*
G37*
G36*
X53101938Y-46411716D02*
G01*
X53122557Y-46417971D01*
X53141553Y-46428124D01*
X53158208Y-46441792D01*
X53171876Y-46458447D01*
X53182029Y-46477443D01*
X53188284Y-46498062D01*
X53191000Y-46525640D01*
X53191000Y-46984360D01*
X53188284Y-47011938D01*
X53182029Y-47032557D01*
X53171876Y-47051553D01*
X53158208Y-47068208D01*
X53141553Y-47081876D01*
X53122557Y-47092029D01*
X53101938Y-47098284D01*
X53074360Y-47101000D01*
X52565640Y-47101000D01*
X52538062Y-47098284D01*
X52517443Y-47092029D01*
X52498447Y-47081876D01*
X52481792Y-47068208D01*
X52468124Y-47051553D01*
X52457971Y-47032557D01*
X52451716Y-47011938D01*
X52449000Y-46984360D01*
X52449000Y-46525640D01*
X52451716Y-46498062D01*
X52457971Y-46477443D01*
X52468124Y-46458447D01*
X52481792Y-46441792D01*
X52498447Y-46428124D01*
X52517443Y-46417971D01*
X52538062Y-46411716D01*
X52565640Y-46409000D01*
X53074360Y-46409000D01*
X53101938Y-46411716D01*
G37*
G36*
X48769591Y-45458085D02*
G01*
X48803569Y-45468393D01*
X48834890Y-45485134D01*
X48862339Y-45507661D01*
X48884866Y-45535110D01*
X48901607Y-45566431D01*
X48911915Y-45600409D01*
X48916000Y-45641890D01*
X48916000Y-46243110D01*
X48911915Y-46284591D01*
X48901607Y-46318569D01*
X48884866Y-46349890D01*
X48862339Y-46377339D01*
X48834890Y-46399866D01*
X48803569Y-46416607D01*
X48769591Y-46426915D01*
X48728110Y-46431000D01*
X48051890Y-46431000D01*
X48010409Y-46426915D01*
X47976431Y-46416607D01*
X47945110Y-46399866D01*
X47917661Y-46377339D01*
X47895134Y-46349890D01*
X47878393Y-46318569D01*
X47868085Y-46284591D01*
X47864000Y-46243110D01*
X47864000Y-45641890D01*
X47868085Y-45600409D01*
X47878393Y-45566431D01*
X47895134Y-45535110D01*
X47917661Y-45507661D01*
X47945110Y-45485134D01*
X47976431Y-45468393D01*
X48010409Y-45458085D01*
X48051890Y-45454000D01*
X48728110Y-45454000D01*
X48769591Y-45458085D01*
G37*
G36*
X77141000Y-46161000D02*
G01*
X74639000Y-46161000D01*
X74639000Y-45319000D01*
X77141000Y-45319000D01*
X77141000Y-46161000D01*
G37*
G36*
X73241000Y-46161000D02*
G01*
X70739000Y-46161000D01*
X70739000Y-45319000D01*
X73241000Y-45319000D01*
X73241000Y-46161000D01*
G37*
G36*
X53101938Y-45441716D02*
G01*
X53122557Y-45447971D01*
X53141553Y-45458124D01*
X53158208Y-45471792D01*
X53171876Y-45488447D01*
X53182029Y-45507443D01*
X53188284Y-45528062D01*
X53191000Y-45555640D01*
X53191000Y-46014360D01*
X53188284Y-46041938D01*
X53182029Y-46062557D01*
X53171876Y-46081553D01*
X53158208Y-46098208D01*
X53141553Y-46111876D01*
X53122557Y-46122029D01*
X53101938Y-46128284D01*
X53074360Y-46131000D01*
X52565640Y-46131000D01*
X52538062Y-46128284D01*
X52517443Y-46122029D01*
X52498447Y-46111876D01*
X52481792Y-46098208D01*
X52468124Y-46081553D01*
X52457971Y-46062557D01*
X52451716Y-46041938D01*
X52449000Y-46014360D01*
X52449000Y-45555640D01*
X52451716Y-45528062D01*
X52457971Y-45507443D01*
X52468124Y-45488447D01*
X52481792Y-45471792D01*
X52498447Y-45458124D01*
X52517443Y-45447971D01*
X52538062Y-45441716D01*
X52565640Y-45439000D01*
X53074360Y-45439000D01*
X53101938Y-45441716D01*
G37*
G36*
X51021938Y-45381716D02*
G01*
X51042557Y-45387971D01*
X51061553Y-45398124D01*
X51078208Y-45411792D01*
X51091876Y-45428447D01*
X51102029Y-45447443D01*
X51108284Y-45468062D01*
X51111000Y-45495640D01*
X51111000Y-46004360D01*
X51108284Y-46031938D01*
X51102029Y-46052557D01*
X51091876Y-46071553D01*
X51078208Y-46088208D01*
X51061553Y-46101876D01*
X51042557Y-46112029D01*
X51021938Y-46118284D01*
X50994360Y-46121000D01*
X50535640Y-46121000D01*
X50508062Y-46118284D01*
X50487443Y-46112029D01*
X50468447Y-46101876D01*
X50451792Y-46088208D01*
X50438124Y-46071553D01*
X50427971Y-46052557D01*
X50421716Y-46031938D01*
X50419000Y-46004360D01*
X50419000Y-45495640D01*
X50421716Y-45468062D01*
X50427971Y-45447443D01*
X50438124Y-45428447D01*
X50451792Y-45411792D01*
X50468447Y-45398124D01*
X50487443Y-45387971D01*
X50508062Y-45381716D01*
X50535640Y-45379000D01*
X50994360Y-45379000D01*
X51021938Y-45381716D01*
G37*
G36*
X51991938Y-45381716D02*
G01*
X52012557Y-45387971D01*
X52031553Y-45398124D01*
X52048208Y-45411792D01*
X52061876Y-45428447D01*
X52072029Y-45447443D01*
X52078284Y-45468062D01*
X52081000Y-45495640D01*
X52081000Y-46004360D01*
X52078284Y-46031938D01*
X52072029Y-46052557D01*
X52061876Y-46071553D01*
X52048208Y-46088208D01*
X52031553Y-46101876D01*
X52012557Y-46112029D01*
X51991938Y-46118284D01*
X51964360Y-46121000D01*
X51505640Y-46121000D01*
X51478062Y-46118284D01*
X51457443Y-46112029D01*
X51438447Y-46101876D01*
X51421792Y-46088208D01*
X51408124Y-46071553D01*
X51397971Y-46052557D01*
X51391716Y-46031938D01*
X51389000Y-46004360D01*
X51389000Y-45495640D01*
X51391716Y-45468062D01*
X51397971Y-45447443D01*
X51408124Y-45428447D01*
X51421792Y-45411792D01*
X51438447Y-45398124D01*
X51457443Y-45387971D01*
X51478062Y-45381716D01*
X51505640Y-45379000D01*
X51964360Y-45379000D01*
X51991938Y-45381716D01*
G37*
G36*
X77141000Y-44891000D02*
G01*
X74639000Y-44891000D01*
X74639000Y-44049000D01*
X77141000Y-44049000D01*
X77141000Y-44891000D01*
G37*
G36*
X73241000Y-44891000D02*
G01*
X70739000Y-44891000D01*
X70739000Y-44049000D01*
X73241000Y-44049000D01*
X73241000Y-44891000D01*
G37*
G36*
X38041000Y-44861000D02*
G01*
X34139000Y-44861000D01*
X34139000Y-42759000D01*
X38041000Y-42759000D01*
X38041000Y-44861000D01*
G37*
G36*
X52871938Y-43771716D02*
G01*
X52892557Y-43777971D01*
X52911553Y-43788124D01*
X52928208Y-43801792D01*
X52941876Y-43818447D01*
X52952029Y-43837443D01*
X52958284Y-43858062D01*
X52961000Y-43885640D01*
X52961000Y-44394360D01*
X52958284Y-44421938D01*
X52952029Y-44442557D01*
X52941876Y-44461553D01*
X52928208Y-44478208D01*
X52911553Y-44491876D01*
X52892557Y-44502029D01*
X52871938Y-44508284D01*
X52844360Y-44511000D01*
X52385640Y-44511000D01*
X52358062Y-44508284D01*
X52337443Y-44502029D01*
X52318447Y-44491876D01*
X52301792Y-44478208D01*
X52288124Y-44461553D01*
X52277971Y-44442557D01*
X52271716Y-44421938D01*
X52269000Y-44394360D01*
X52269000Y-43885640D01*
X52271716Y-43858062D01*
X52277971Y-43837443D01*
X52288124Y-43818447D01*
X52301792Y-43801792D01*
X52318447Y-43788124D01*
X52337443Y-43777971D01*
X52358062Y-43771716D01*
X52385640Y-43769000D01*
X52844360Y-43769000D01*
X52871938Y-43771716D01*
G37*
G36*
X53841938Y-43771716D02*
G01*
X53862557Y-43777971D01*
X53881553Y-43788124D01*
X53898208Y-43801792D01*
X53911876Y-43818447D01*
X53922029Y-43837443D01*
X53928284Y-43858062D01*
X53931000Y-43885640D01*
X53931000Y-44394360D01*
X53928284Y-44421938D01*
X53922029Y-44442557D01*
X53911876Y-44461553D01*
X53898208Y-44478208D01*
X53881553Y-44491876D01*
X53862557Y-44502029D01*
X53841938Y-44508284D01*
X53814360Y-44511000D01*
X53355640Y-44511000D01*
X53328062Y-44508284D01*
X53307443Y-44502029D01*
X53288447Y-44491876D01*
X53271792Y-44478208D01*
X53258124Y-44461553D01*
X53247971Y-44442557D01*
X53241716Y-44421938D01*
X53239000Y-44394360D01*
X53239000Y-43885640D01*
X53241716Y-43858062D01*
X53247971Y-43837443D01*
X53258124Y-43818447D01*
X53271792Y-43801792D01*
X53288447Y-43788124D01*
X53307443Y-43777971D01*
X53328062Y-43771716D01*
X53355640Y-43769000D01*
X53814360Y-43769000D01*
X53841938Y-43771716D01*
G37*
G36*
X54881938Y-43761716D02*
G01*
X54902557Y-43767971D01*
X54921553Y-43778124D01*
X54938208Y-43791792D01*
X54951876Y-43808447D01*
X54962029Y-43827443D01*
X54968284Y-43848062D01*
X54971000Y-43875640D01*
X54971000Y-44384360D01*
X54968284Y-44411938D01*
X54962029Y-44432557D01*
X54951876Y-44451553D01*
X54938208Y-44468208D01*
X54921553Y-44481876D01*
X54902557Y-44492029D01*
X54881938Y-44498284D01*
X54854360Y-44501000D01*
X54395640Y-44501000D01*
X54368062Y-44498284D01*
X54347443Y-44492029D01*
X54328447Y-44481876D01*
X54311792Y-44468208D01*
X54298124Y-44451553D01*
X54287971Y-44432557D01*
X54281716Y-44411938D01*
X54279000Y-44384360D01*
X54279000Y-43875640D01*
X54281716Y-43848062D01*
X54287971Y-43827443D01*
X54298124Y-43808447D01*
X54311792Y-43791792D01*
X54328447Y-43778124D01*
X54347443Y-43767971D01*
X54368062Y-43761716D01*
X54395640Y-43759000D01*
X54854360Y-43759000D01*
X54881938Y-43761716D01*
G37*
G36*
X55851938Y-43761716D02*
G01*
X55872557Y-43767971D01*
X55891553Y-43778124D01*
X55908208Y-43791792D01*
X55921876Y-43808447D01*
X55932029Y-43827443D01*
X55938284Y-43848062D01*
X55941000Y-43875640D01*
X55941000Y-44384360D01*
X55938284Y-44411938D01*
X55932029Y-44432557D01*
X55921876Y-44451553D01*
X55908208Y-44468208D01*
X55891553Y-44481876D01*
X55872557Y-44492029D01*
X55851938Y-44498284D01*
X55824360Y-44501000D01*
X55365640Y-44501000D01*
X55338062Y-44498284D01*
X55317443Y-44492029D01*
X55298447Y-44481876D01*
X55281792Y-44468208D01*
X55268124Y-44451553D01*
X55257971Y-44432557D01*
X55251716Y-44411938D01*
X55249000Y-44384360D01*
X55249000Y-43875640D01*
X55251716Y-43848062D01*
X55257971Y-43827443D01*
X55268124Y-43808447D01*
X55281792Y-43791792D01*
X55298447Y-43778124D01*
X55317443Y-43767971D01*
X55338062Y-43761716D01*
X55365640Y-43759000D01*
X55824360Y-43759000D01*
X55851938Y-43761716D01*
G37*
G36*
X47129591Y-43303085D02*
G01*
X47163569Y-43313393D01*
X47194890Y-43330134D01*
X47222339Y-43352661D01*
X47244866Y-43380110D01*
X47261607Y-43411431D01*
X47271915Y-43445409D01*
X47276000Y-43486890D01*
X47276000Y-44163110D01*
X47271915Y-44204591D01*
X47261607Y-44238569D01*
X47244866Y-44269890D01*
X47222339Y-44297339D01*
X47194890Y-44319866D01*
X47163569Y-44336607D01*
X47129591Y-44346915D01*
X47088110Y-44351000D01*
X46486890Y-44351000D01*
X46445409Y-44346915D01*
X46411431Y-44336607D01*
X46380110Y-44319866D01*
X46352661Y-44297339D01*
X46330134Y-44269890D01*
X46313393Y-44238569D01*
X46303085Y-44204591D01*
X46299000Y-44163110D01*
X46299000Y-43486890D01*
X46303085Y-43445409D01*
X46313393Y-43411431D01*
X46330134Y-43380110D01*
X46352661Y-43352661D01*
X46380110Y-43330134D01*
X46411431Y-43313393D01*
X46445409Y-43303085D01*
X46486890Y-43299000D01*
X47088110Y-43299000D01*
X47129591Y-43303085D01*
G37*
G36*
X45554591Y-43303085D02*
G01*
X45588569Y-43313393D01*
X45619890Y-43330134D01*
X45647339Y-43352661D01*
X45669866Y-43380110D01*
X45686607Y-43411431D01*
X45696915Y-43445409D01*
X45701000Y-43486890D01*
X45701000Y-44163110D01*
X45696915Y-44204591D01*
X45686607Y-44238569D01*
X45669866Y-44269890D01*
X45647339Y-44297339D01*
X45619890Y-44319866D01*
X45588569Y-44336607D01*
X45554591Y-44346915D01*
X45513110Y-44351000D01*
X44911890Y-44351000D01*
X44870409Y-44346915D01*
X44836431Y-44336607D01*
X44805110Y-44319866D01*
X44777661Y-44297339D01*
X44755134Y-44269890D01*
X44738393Y-44238569D01*
X44728085Y-44204591D01*
X44724000Y-44163110D01*
X44724000Y-43486890D01*
X44728085Y-43445409D01*
X44738393Y-43411431D01*
X44755134Y-43380110D01*
X44777661Y-43352661D01*
X44805110Y-43330134D01*
X44836431Y-43313393D01*
X44870409Y-43303085D01*
X44911890Y-43299000D01*
X45513110Y-43299000D01*
X45554591Y-43303085D01*
G37*
G36*
X43579591Y-43303085D02*
G01*
X43613569Y-43313393D01*
X43644890Y-43330134D01*
X43672339Y-43352661D01*
X43694866Y-43380110D01*
X43711607Y-43411431D01*
X43721915Y-43445409D01*
X43726000Y-43486890D01*
X43726000Y-44163110D01*
X43721915Y-44204591D01*
X43711607Y-44238569D01*
X43694866Y-44269890D01*
X43672339Y-44297339D01*
X43644890Y-44319866D01*
X43613569Y-44336607D01*
X43579591Y-44346915D01*
X43538110Y-44351000D01*
X42936890Y-44351000D01*
X42895409Y-44346915D01*
X42861431Y-44336607D01*
X42830110Y-44319866D01*
X42802661Y-44297339D01*
X42780134Y-44269890D01*
X42763393Y-44238569D01*
X42753085Y-44204591D01*
X42749000Y-44163110D01*
X42749000Y-43486890D01*
X42753085Y-43445409D01*
X42763393Y-43411431D01*
X42780134Y-43380110D01*
X42802661Y-43352661D01*
X42830110Y-43330134D01*
X42861431Y-43313393D01*
X42895409Y-43303085D01*
X42936890Y-43299000D01*
X43538110Y-43299000D01*
X43579591Y-43303085D01*
G37*
G36*
X42004591Y-43303085D02*
G01*
X42038569Y-43313393D01*
X42069890Y-43330134D01*
X42097339Y-43352661D01*
X42119866Y-43380110D01*
X42136607Y-43411431D01*
X42146915Y-43445409D01*
X42151000Y-43486890D01*
X42151000Y-44163110D01*
X42146915Y-44204591D01*
X42136607Y-44238569D01*
X42119866Y-44269890D01*
X42097339Y-44297339D01*
X42069890Y-44319866D01*
X42038569Y-44336607D01*
X42004591Y-44346915D01*
X41963110Y-44351000D01*
X41361890Y-44351000D01*
X41320409Y-44346915D01*
X41286431Y-44336607D01*
X41255110Y-44319866D01*
X41227661Y-44297339D01*
X41205134Y-44269890D01*
X41188393Y-44238569D01*
X41178085Y-44204591D01*
X41174000Y-44163110D01*
X41174000Y-43486890D01*
X41178085Y-43445409D01*
X41188393Y-43411431D01*
X41205134Y-43380110D01*
X41227661Y-43352661D01*
X41255110Y-43330134D01*
X41286431Y-43313393D01*
X41320409Y-43303085D01*
X41361890Y-43299000D01*
X41963110Y-43299000D01*
X42004591Y-43303085D01*
G37*
G36*
X77141000Y-43621000D02*
G01*
X74639000Y-43621000D01*
X74639000Y-42779000D01*
X77141000Y-42779000D01*
X77141000Y-43621000D01*
G37*
G36*
X73241000Y-43621000D02*
G01*
X70739000Y-43621000D01*
X70739000Y-42779000D01*
X73241000Y-42779000D01*
X73241000Y-43621000D01*
G37*
G36*
X75548156Y-30672794D02*
G01*
X76269140Y-30816206D01*
X77060972Y-31144193D01*
X77773601Y-31620357D01*
X78379643Y-32226399D01*
X78855807Y-32939028D01*
X79183794Y-33730860D01*
X79351000Y-34571464D01*
X79351000Y-35428536D01*
X79183794Y-36269140D01*
X78855807Y-37060972D01*
X78379643Y-37773601D01*
X77773601Y-38379643D01*
X77060972Y-38855807D01*
X76269140Y-39183794D01*
X75548156Y-39327206D01*
X75428537Y-39351000D01*
X74571463Y-39351000D01*
X74451844Y-39327206D01*
X73730860Y-39183794D01*
X72939028Y-38855807D01*
X72226399Y-38379643D01*
X71620357Y-37773601D01*
X71144193Y-37060972D01*
X70816206Y-36269140D01*
X70649000Y-35428536D01*
X70649000Y-34571464D01*
X70816206Y-33730860D01*
X71144193Y-32939028D01*
X71620357Y-32226399D01*
X72226399Y-31620357D01*
X72939028Y-31144193D01*
X73730860Y-30816206D01*
X74451844Y-30672794D01*
X74571463Y-30649000D01*
X75428537Y-30649000D01*
X75548156Y-30672794D01*
G37*
G36*
X35548156Y-30672794D02*
G01*
X36269140Y-30816206D01*
X37060972Y-31144193D01*
X37773601Y-31620357D01*
X38379643Y-32226399D01*
X38855807Y-32939028D01*
X39183794Y-33730860D01*
X39351000Y-34571464D01*
X39351000Y-35428536D01*
X39183794Y-36269140D01*
X38855807Y-37060972D01*
X38379643Y-37773601D01*
X37773601Y-38379643D01*
X37060972Y-38855807D01*
X36269140Y-39183794D01*
X35548156Y-39327206D01*
X35428537Y-39351000D01*
X34571463Y-39351000D01*
X34451844Y-39327206D01*
X33730860Y-39183794D01*
X32939028Y-38855807D01*
X32226399Y-38379643D01*
X31620357Y-37773601D01*
X31144193Y-37060972D01*
X30816206Y-36269140D01*
X30649000Y-35428536D01*
X30649000Y-34571464D01*
X30816206Y-33730860D01*
X31144193Y-32939028D01*
X31620357Y-32226399D01*
X32226399Y-31620357D01*
X32939028Y-31144193D01*
X33730860Y-30816206D01*
X34451844Y-30672794D01*
X34571463Y-30649000D01*
X35428537Y-30649000D01*
X35548156Y-30672794D01*
G37*
G36*
X46141000Y-33841000D02*
G01*
X44339000Y-33841000D01*
X44339000Y-32039000D01*
X46141000Y-32039000D01*
X46141000Y-33841000D01*
G37*
G36*
X47893512Y-32043927D02*
G01*
X48042812Y-32073624D01*
X48206784Y-32141544D01*
X48354354Y-32240147D01*
X48479853Y-32365646D01*
X48578456Y-32513216D01*
X48646376Y-32677188D01*
X48681000Y-32851259D01*
X48681000Y-33028741D01*
X48646376Y-33202812D01*
X48578456Y-33366784D01*
X48479853Y-33514354D01*
X48354354Y-33639853D01*
X48206784Y-33738456D01*
X48042812Y-33806376D01*
X47893512Y-33836073D01*
X47868742Y-33841000D01*
X47691258Y-33841000D01*
X47666488Y-33836073D01*
X47517188Y-33806376D01*
X47353216Y-33738456D01*
X47205646Y-33639853D01*
X47080147Y-33514354D01*
X46981544Y-33366784D01*
X46913624Y-33202812D01*
X46879000Y-33028741D01*
X46879000Y-32851259D01*
X46913624Y-32677188D01*
X46981544Y-32513216D01*
X47080147Y-32365646D01*
X47205646Y-32240147D01*
X47353216Y-32141544D01*
X47517188Y-32073624D01*
X47666488Y-32043927D01*
X47691258Y-32039000D01*
X47868742Y-32039000D01*
X47893512Y-32043927D01*
G37*
G36*
X53981000Y-33771000D02*
G01*
X52179000Y-33771000D01*
X52179000Y-31969000D01*
X53981000Y-31969000D01*
X53981000Y-33771000D01*
G37*
G36*
X55733512Y-31973927D02*
G01*
X55882812Y-32003624D01*
X56046784Y-32071544D01*
X56194354Y-32170147D01*
X56319853Y-32295646D01*
X56418456Y-32443216D01*
X56486376Y-32607188D01*
X56521000Y-32781259D01*
X56521000Y-32958741D01*
X56486376Y-33132812D01*
X56418456Y-33296784D01*
X56319853Y-33444354D01*
X56194354Y-33569853D01*
X56046784Y-33668456D01*
X55882812Y-33736376D01*
X55733512Y-33766073D01*
X55708742Y-33771000D01*
X55531258Y-33771000D01*
X55506488Y-33766073D01*
X55357188Y-33736376D01*
X55193216Y-33668456D01*
X55045646Y-33569853D01*
X54920147Y-33444354D01*
X54821544Y-33296784D01*
X54753624Y-33132812D01*
X54719000Y-32958741D01*
X54719000Y-32781259D01*
X54753624Y-32607188D01*
X54821544Y-32443216D01*
X54920147Y-32295646D01*
X55045646Y-32170147D01*
X55193216Y-32071544D01*
X55357188Y-32003624D01*
X55506488Y-31973927D01*
X55531258Y-31969000D01*
X55708742Y-31969000D01*
X55733512Y-31973927D01*
G37*
M02*
