M48
; DRILL file {KiCad (5.1.5)-3} date 14/6/2020 4:12:45 μμ
; FORMAT={3:3/ absolute / metric / suppress leading zeros}
; #@! TF.CreationDate,2020-06-14T16:12:45+03:00
; #@! TF.GenerationSoftware,Kicad,Pcbnew,(5.1.5)-3
FMAT,2
METRIC,TZ
T1C0.400
T2C0.600
T3C0.800
T4C1.000
T5C4.300
%
G90
G05
T1
X41350Y-46800
X42200Y-56500
X43100Y-45400
X43250Y-60000
X43250Y-61000
X44500Y-61550
X44750Y-46800
X45200Y-51100
X46400Y-55500
X46950Y-45950
X46950Y-47500
X47450Y-55500
X48300Y-43850
X48600Y-49000
X48750Y-50100
X49400Y-62550
X50000Y-44500
X50550Y-65050
X51000Y-44000
X51550Y-65050
X51750Y-44750
X52600Y-43050
X55600Y-43050
X57000Y-64950
X58400Y-65950
X60400Y-48500
X60750Y-63700
X61400Y-48500
X61700Y-60350
X63200Y-61850
X63250Y-63250
X64750Y-48550
X64750Y-49600
X65650Y-51150
X68950Y-43200
X68950Y-44500
X69100Y-48050
T2
X31775Y-35000
X32720Y-32720
X32720Y-37280
X35000Y-31775
X35000Y-38225
X37280Y-32720
X37280Y-37280
X38225Y-35000
X31775Y-75000
X32720Y-72720
X32720Y-77280
X35000Y-71775
X35000Y-78225
X37280Y-72720
X37280Y-77280
X38225Y-75000
X71775Y-75000
X72720Y-72720
X72720Y-77280
X75000Y-71775
X75000Y-78225
X77280Y-72720
X77280Y-77280
X78225Y-75000
X71775Y-35000
X72720Y-32720
X72720Y-37280
X75000Y-31775
X75000Y-38225
X77280Y-32720
X77280Y-37280
X78225Y-35000
T3
X32000Y-50000
X32000Y-52750
X32250Y-55750
X32250Y-57750
X33250Y-43750
X34000Y-45750
X34000Y-47750
X34500Y-55750
X34500Y-57750
X35000Y-67500
X37750Y-45750
X37750Y-47750
X40000Y-67500
X40000Y-72500
X40000Y-77500
X42500Y-37500
X42500Y-40000
X45000Y-67500
X45000Y-72500
X45000Y-77500
X50000Y-37500
X50000Y-40000
X50000Y-67500
X53350Y-54250
X57500Y-67500
X60000Y-32500
X60000Y-37500
X60000Y-42500
X60000Y-72500
X60000Y-77500
X65000Y-32500
X65000Y-37500
X65000Y-42500
X65000Y-72500
X65000Y-77500
X67500Y-62500
X70000Y-57500
X70000Y-72500
X70000Y-77500
X72500Y-62500
X72500Y-67500
X76250Y-49950
X77500Y-62500
X77500Y-67500
T4
X53080Y-32870
X55620Y-32870
X45240Y-32940
X47780Y-32940
X77110Y-54330
X77110Y-56870
X49190Y-77110
X51730Y-77110
X54270Y-77110
X56810Y-77110
X33550Y-60760
X33550Y-63300
T5
X35000Y-35000
X35000Y-75000
X75000Y-75000
X75000Y-35000
T0
M30
