G04 #@! TF.GenerationSoftware,KiCad,Pcbnew,(5.1.5)-3*
G04 #@! TF.CreationDate,2020-06-14T16:13:44+03:00*
G04 #@! TF.ProjectId,dev_board,6465765f-626f-4617-9264-2e6b69636164,rev?*
G04 #@! TF.SameCoordinates,Original*
G04 #@! TF.FileFunction,Copper,L4,Bot*
G04 #@! TF.FilePolarity,Positive*
%FSLAX46Y46*%
G04 Gerber Fmt 4.6, Leading zero omitted, Abs format (unit mm)*
G04 Created by KiCad (PCBNEW (5.1.5)-3) date 2020-06-14 16:13:44*
%MOMM*%
%LPD*%
G04 APERTURE LIST*
%ADD10C,0.900000*%
%ADD11C,8.600000*%
%ADD12O,1.700000X1.700000*%
%ADD13R,1.700000X1.700000*%
%ADD14C,0.800000*%
%ADD15C,1.000000*%
%ADD16C,0.500000*%
%ADD17C,0.254000*%
G04 APERTURE END LIST*
D10*
X37280419Y-32719581D03*
X35000000Y-31775000D03*
X32719581Y-32719581D03*
X31775000Y-35000000D03*
X32719581Y-37280419D03*
X35000000Y-38225000D03*
X37280419Y-37280419D03*
X38225000Y-35000000D03*
D11*
X35000000Y-35000000D03*
X75000000Y-35000000D03*
D10*
X78225000Y-35000000D03*
X77280419Y-37280419D03*
X75000000Y-38225000D03*
X72719581Y-37280419D03*
X71775000Y-35000000D03*
X72719581Y-32719581D03*
X75000000Y-31775000D03*
X77280419Y-32719581D03*
X77280419Y-72719581D03*
X75000000Y-71775000D03*
X72719581Y-72719581D03*
X71775000Y-75000000D03*
X72719581Y-77280419D03*
X75000000Y-78225000D03*
X77280419Y-77280419D03*
X78225000Y-75000000D03*
D11*
X75000000Y-75000000D03*
X35000000Y-75000000D03*
D10*
X38225000Y-75000000D03*
X37280419Y-77280419D03*
X35000000Y-78225000D03*
X32719581Y-77280419D03*
X31775000Y-75000000D03*
X32719581Y-72719581D03*
X35000000Y-71775000D03*
X37280419Y-72719581D03*
D12*
X33550000Y-60760000D03*
D13*
X33550000Y-63300000D03*
D12*
X77110000Y-56870000D03*
D13*
X77110000Y-54330000D03*
X53080000Y-32870000D03*
D12*
X55620000Y-32870000D03*
D13*
X45240000Y-32940000D03*
D12*
X47780000Y-32940000D03*
D13*
X56810000Y-77110000D03*
D12*
X54270000Y-77110000D03*
X51730000Y-77110000D03*
X49190000Y-77110000D03*
D14*
X43100000Y-45400000D03*
X48600000Y-49000000D03*
X61700000Y-60350000D03*
X61400000Y-48500000D03*
X49400000Y-62550000D03*
X48300000Y-43850000D03*
X63250000Y-63250000D03*
X46950000Y-45950000D03*
X46950000Y-47500000D03*
X51750000Y-44750000D03*
X50000000Y-44500000D03*
X51000000Y-44000000D03*
D15*
X32000000Y-50000000D03*
X32000000Y-52750000D03*
X32250000Y-55750000D03*
X34500000Y-55750000D03*
X34500000Y-57750000D03*
X32250000Y-57750000D03*
X37750000Y-45750000D03*
X37750000Y-47750000D03*
X34000000Y-47750000D03*
X34000000Y-45750000D03*
X33250000Y-43750000D03*
D14*
X45200000Y-51100000D03*
X42200000Y-56500000D03*
X64750000Y-48550000D03*
X65650000Y-51150000D03*
X63200000Y-61850000D03*
X58400000Y-65950000D03*
X57000000Y-64950000D03*
X50550000Y-65050000D03*
X51550000Y-65050000D03*
X43250000Y-60000000D03*
X43250000Y-61000000D03*
X64750000Y-49600000D03*
X60400000Y-48500000D03*
X68950000Y-43200000D03*
X60750000Y-63700000D03*
X44500000Y-61550000D03*
X46400000Y-55500000D03*
X47450000Y-55500000D03*
X44750000Y-46800000D03*
X41350000Y-46800000D03*
X48750000Y-50100000D03*
X52600000Y-43050000D03*
X55600000Y-43050000D03*
X68950000Y-44500000D03*
X69100000Y-48050000D03*
D15*
X60000000Y-32500000D03*
X65000000Y-32500000D03*
X65000000Y-37500000D03*
X60000000Y-37500000D03*
X60000000Y-42500000D03*
X65000000Y-42500000D03*
X50000000Y-37500000D03*
X42500000Y-37500000D03*
X42500000Y-40000000D03*
X50000000Y-40000000D03*
X67500000Y-62500000D03*
X72500000Y-62500000D03*
X77500000Y-62500000D03*
X77500000Y-67500000D03*
X72500000Y-67500000D03*
X57500000Y-67500000D03*
X60000000Y-72500000D03*
X65000000Y-72500000D03*
X70000000Y-72500000D03*
X65000000Y-77500000D03*
X60000000Y-77500000D03*
X70000000Y-77500000D03*
X40000000Y-77500000D03*
X40000000Y-72500000D03*
X40000000Y-67500000D03*
X45000000Y-67500000D03*
X50000000Y-67500000D03*
X45000000Y-72500000D03*
X45000000Y-77500000D03*
X70000000Y-57500000D03*
X35000000Y-67500000D03*
X53350000Y-54250000D03*
X76250000Y-49950000D03*
D16*
X71950000Y-54250000D02*
X76250000Y-49950000D01*
X53350000Y-54250000D02*
X71950000Y-54250000D01*
D17*
G36*
X72301560Y-30839606D02*
G01*
X72188946Y-30914851D01*
X71696787Y-31517182D01*
X75000000Y-34820395D01*
X75014143Y-34806253D01*
X75193748Y-34985858D01*
X75179605Y-35000000D01*
X78482818Y-38303213D01*
X79085149Y-37811054D01*
X79340000Y-37349534D01*
X79340001Y-72648909D01*
X79160394Y-72301560D01*
X79085149Y-72188946D01*
X78482818Y-71696787D01*
X75179605Y-75000000D01*
X75193748Y-75014143D01*
X75014143Y-75193748D01*
X75000000Y-75179605D01*
X71696787Y-78482818D01*
X72188946Y-79085149D01*
X72650466Y-79340000D01*
X37351093Y-79340000D01*
X37698440Y-79160394D01*
X37811054Y-79085149D01*
X38303213Y-78482818D01*
X35000000Y-75179605D01*
X34985858Y-75193748D01*
X34806253Y-75014143D01*
X34820395Y-75000000D01*
X35179605Y-75000000D01*
X38482818Y-78303213D01*
X39085149Y-77811054D01*
X39553034Y-76963740D01*
X47705000Y-76963740D01*
X47705000Y-77256260D01*
X47762068Y-77543158D01*
X47874010Y-77813411D01*
X48036525Y-78056632D01*
X48243368Y-78263475D01*
X48486589Y-78425990D01*
X48756842Y-78537932D01*
X49043740Y-78595000D01*
X49336260Y-78595000D01*
X49623158Y-78537932D01*
X49893411Y-78425990D01*
X50136632Y-78263475D01*
X50343475Y-78056632D01*
X50460000Y-77882240D01*
X50576525Y-78056632D01*
X50783368Y-78263475D01*
X51026589Y-78425990D01*
X51296842Y-78537932D01*
X51583740Y-78595000D01*
X51876260Y-78595000D01*
X52163158Y-78537932D01*
X52433411Y-78425990D01*
X52676632Y-78263475D01*
X52883475Y-78056632D01*
X53000000Y-77882240D01*
X53116525Y-78056632D01*
X53323368Y-78263475D01*
X53566589Y-78425990D01*
X53836842Y-78537932D01*
X54123740Y-78595000D01*
X54416260Y-78595000D01*
X54703158Y-78537932D01*
X54973411Y-78425990D01*
X55216632Y-78263475D01*
X55348487Y-78131620D01*
X55370498Y-78204180D01*
X55429463Y-78314494D01*
X55508815Y-78411185D01*
X55605506Y-78490537D01*
X55715820Y-78549502D01*
X55835518Y-78585812D01*
X55960000Y-78598072D01*
X57660000Y-78598072D01*
X57784482Y-78585812D01*
X57904180Y-78549502D01*
X58014494Y-78490537D01*
X58111185Y-78411185D01*
X58190537Y-78314494D01*
X58249502Y-78204180D01*
X58285812Y-78084482D01*
X58298072Y-77960000D01*
X58298072Y-76260000D01*
X58285812Y-76135518D01*
X58249502Y-76015820D01*
X58190537Y-75905506D01*
X58111185Y-75808815D01*
X58014494Y-75729463D01*
X57904180Y-75670498D01*
X57784482Y-75634188D01*
X57660000Y-75621928D01*
X55960000Y-75621928D01*
X55835518Y-75634188D01*
X55715820Y-75670498D01*
X55605506Y-75729463D01*
X55508815Y-75808815D01*
X55429463Y-75905506D01*
X55370498Y-76015820D01*
X55348487Y-76088380D01*
X55216632Y-75956525D01*
X54973411Y-75794010D01*
X54703158Y-75682068D01*
X54416260Y-75625000D01*
X54123740Y-75625000D01*
X53836842Y-75682068D01*
X53566589Y-75794010D01*
X53323368Y-75956525D01*
X53116525Y-76163368D01*
X53000000Y-76337760D01*
X52883475Y-76163368D01*
X52676632Y-75956525D01*
X52433411Y-75794010D01*
X52163158Y-75682068D01*
X51876260Y-75625000D01*
X51583740Y-75625000D01*
X51296842Y-75682068D01*
X51026589Y-75794010D01*
X50783368Y-75956525D01*
X50576525Y-76163368D01*
X50460000Y-76337760D01*
X50343475Y-76163368D01*
X50136632Y-75956525D01*
X49893411Y-75794010D01*
X49623158Y-75682068D01*
X49336260Y-75625000D01*
X49043740Y-75625000D01*
X48756842Y-75682068D01*
X48486589Y-75794010D01*
X48243368Y-75956525D01*
X48036525Y-76163368D01*
X47874010Y-76406589D01*
X47762068Y-76676842D01*
X47705000Y-76963740D01*
X39553034Y-76963740D01*
X39555063Y-76960067D01*
X39849929Y-76033757D01*
X39958414Y-75067719D01*
X39946940Y-74932281D01*
X70041586Y-74932281D01*
X70123649Y-75900921D01*
X70393107Y-76834938D01*
X70839606Y-77698440D01*
X70914851Y-77811054D01*
X71517182Y-78303213D01*
X74820395Y-75000000D01*
X71517182Y-71696787D01*
X70914851Y-72188946D01*
X70444937Y-73039933D01*
X70150071Y-73966243D01*
X70041586Y-74932281D01*
X39946940Y-74932281D01*
X39876351Y-74099079D01*
X39606893Y-73165062D01*
X39160394Y-72301560D01*
X39085149Y-72188946D01*
X38482818Y-71696787D01*
X35179605Y-75000000D01*
X34820395Y-75000000D01*
X31517182Y-71696787D01*
X30914851Y-72188946D01*
X30660000Y-72650466D01*
X30660000Y-71517182D01*
X31696787Y-71517182D01*
X35000000Y-74820395D01*
X38303213Y-71517182D01*
X71696787Y-71517182D01*
X75000000Y-74820395D01*
X78303213Y-71517182D01*
X77811054Y-70914851D01*
X76960067Y-70444937D01*
X76033757Y-70150071D01*
X75067719Y-70041586D01*
X74099079Y-70123649D01*
X73165062Y-70393107D01*
X72301560Y-70839606D01*
X72188946Y-70914851D01*
X71696787Y-71517182D01*
X38303213Y-71517182D01*
X37811054Y-70914851D01*
X36960067Y-70444937D01*
X36033757Y-70150071D01*
X35067719Y-70041586D01*
X34099079Y-70123649D01*
X33165062Y-70393107D01*
X32301560Y-70839606D01*
X32188946Y-70914851D01*
X31696787Y-71517182D01*
X30660000Y-71517182D01*
X30660000Y-64948061D01*
X50515000Y-64948061D01*
X50515000Y-65151939D01*
X50554774Y-65351898D01*
X50632795Y-65540256D01*
X50746063Y-65709774D01*
X50890226Y-65853937D01*
X51059744Y-65967205D01*
X51248102Y-66045226D01*
X51448061Y-66085000D01*
X51651939Y-66085000D01*
X51851898Y-66045226D01*
X52040256Y-65967205D01*
X52209774Y-65853937D01*
X52353937Y-65709774D01*
X52467205Y-65540256D01*
X52545226Y-65351898D01*
X52585000Y-65151939D01*
X52585000Y-64948061D01*
X52545226Y-64748102D01*
X52467205Y-64559744D01*
X52353937Y-64390226D01*
X52209774Y-64246063D01*
X52040256Y-64132795D01*
X51851898Y-64054774D01*
X51651939Y-64015000D01*
X51448061Y-64015000D01*
X51248102Y-64054774D01*
X51059744Y-64132795D01*
X50890226Y-64246063D01*
X50746063Y-64390226D01*
X50632795Y-64559744D01*
X50554774Y-64748102D01*
X50515000Y-64948061D01*
X30660000Y-64948061D01*
X30660000Y-62450000D01*
X32061928Y-62450000D01*
X32061928Y-64150000D01*
X32074188Y-64274482D01*
X32110498Y-64394180D01*
X32169463Y-64504494D01*
X32248815Y-64601185D01*
X32345506Y-64680537D01*
X32455820Y-64739502D01*
X32575518Y-64775812D01*
X32700000Y-64788072D01*
X34400000Y-64788072D01*
X34524482Y-64775812D01*
X34644180Y-64739502D01*
X34754494Y-64680537D01*
X34851185Y-64601185D01*
X34930537Y-64504494D01*
X34989502Y-64394180D01*
X35025812Y-64274482D01*
X35038072Y-64150000D01*
X35038072Y-63598061D01*
X59715000Y-63598061D01*
X59715000Y-63801939D01*
X59754774Y-64001898D01*
X59832795Y-64190256D01*
X59946063Y-64359774D01*
X60090226Y-64503937D01*
X60259744Y-64617205D01*
X60448102Y-64695226D01*
X60648061Y-64735000D01*
X60851939Y-64735000D01*
X61051898Y-64695226D01*
X61240256Y-64617205D01*
X61409774Y-64503937D01*
X61553937Y-64359774D01*
X61667205Y-64190256D01*
X61745226Y-64001898D01*
X61785000Y-63801939D01*
X61785000Y-63598061D01*
X61745226Y-63398102D01*
X61667205Y-63209744D01*
X61553937Y-63040226D01*
X61409774Y-62896063D01*
X61240256Y-62782795D01*
X61051898Y-62704774D01*
X60851939Y-62665000D01*
X60648061Y-62665000D01*
X60448102Y-62704774D01*
X60259744Y-62782795D01*
X60090226Y-62896063D01*
X59946063Y-63040226D01*
X59832795Y-63209744D01*
X59754774Y-63398102D01*
X59715000Y-63598061D01*
X35038072Y-63598061D01*
X35038072Y-62450000D01*
X35025812Y-62325518D01*
X34989502Y-62205820D01*
X34930537Y-62095506D01*
X34851185Y-61998815D01*
X34754494Y-61919463D01*
X34644180Y-61860498D01*
X34563534Y-61836034D01*
X34647588Y-61760269D01*
X34821641Y-61526920D01*
X34946825Y-61264099D01*
X34991476Y-61116890D01*
X34870155Y-60887000D01*
X33677000Y-60887000D01*
X33677000Y-60907000D01*
X33423000Y-60907000D01*
X33423000Y-60887000D01*
X32229845Y-60887000D01*
X32108524Y-61116890D01*
X32153175Y-61264099D01*
X32278359Y-61526920D01*
X32452412Y-61760269D01*
X32536466Y-61836034D01*
X32455820Y-61860498D01*
X32345506Y-61919463D01*
X32248815Y-61998815D01*
X32169463Y-62095506D01*
X32110498Y-62205820D01*
X32074188Y-62325518D01*
X32061928Y-62450000D01*
X30660000Y-62450000D01*
X30660000Y-60403110D01*
X32108524Y-60403110D01*
X32229845Y-60633000D01*
X33423000Y-60633000D01*
X33423000Y-59439186D01*
X33677000Y-59439186D01*
X33677000Y-60633000D01*
X34870155Y-60633000D01*
X34991476Y-60403110D01*
X34946825Y-60255901D01*
X34821641Y-59993080D01*
X34750768Y-59898061D01*
X42215000Y-59898061D01*
X42215000Y-60101939D01*
X42254774Y-60301898D01*
X42332795Y-60490256D01*
X42339306Y-60500000D01*
X42332795Y-60509744D01*
X42254774Y-60698102D01*
X42215000Y-60898061D01*
X42215000Y-61101939D01*
X42254774Y-61301898D01*
X42332795Y-61490256D01*
X42446063Y-61659774D01*
X42590226Y-61803937D01*
X42759744Y-61917205D01*
X42948102Y-61995226D01*
X43148061Y-62035000D01*
X43351939Y-62035000D01*
X43551898Y-61995226D01*
X43562350Y-61990897D01*
X43582795Y-62040256D01*
X43696063Y-62209774D01*
X43840226Y-62353937D01*
X44009744Y-62467205D01*
X44198102Y-62545226D01*
X44398061Y-62585000D01*
X44601939Y-62585000D01*
X44801898Y-62545226D01*
X44990256Y-62467205D01*
X45159774Y-62353937D01*
X45303937Y-62209774D01*
X45417205Y-62040256D01*
X45495226Y-61851898D01*
X45535000Y-61651939D01*
X45535000Y-61448061D01*
X45495226Y-61248102D01*
X45417205Y-61059744D01*
X45303937Y-60890226D01*
X45159774Y-60746063D01*
X44990256Y-60632795D01*
X44801898Y-60554774D01*
X44601939Y-60515000D01*
X44398061Y-60515000D01*
X44198102Y-60554774D01*
X44187650Y-60559103D01*
X44167205Y-60509744D01*
X44160694Y-60500000D01*
X44167205Y-60490256D01*
X44245226Y-60301898D01*
X44285000Y-60101939D01*
X44285000Y-59898061D01*
X44245226Y-59698102D01*
X44167205Y-59509744D01*
X44053937Y-59340226D01*
X43909774Y-59196063D01*
X43740256Y-59082795D01*
X43551898Y-59004774D01*
X43351939Y-58965000D01*
X43148061Y-58965000D01*
X42948102Y-59004774D01*
X42759744Y-59082795D01*
X42590226Y-59196063D01*
X42446063Y-59340226D01*
X42332795Y-59509744D01*
X42254774Y-59698102D01*
X42215000Y-59898061D01*
X34750768Y-59898061D01*
X34647588Y-59759731D01*
X34431355Y-59564822D01*
X34181252Y-59415843D01*
X33906891Y-59318519D01*
X33677000Y-59439186D01*
X33423000Y-59439186D01*
X33193109Y-59318519D01*
X32918748Y-59415843D01*
X32668645Y-59564822D01*
X32452412Y-59759731D01*
X32278359Y-59993080D01*
X32153175Y-60255901D01*
X32108524Y-60403110D01*
X30660000Y-60403110D01*
X30660000Y-50000000D01*
X40873000Y-50000000D01*
X40873000Y-57750000D01*
X40875440Y-57774776D01*
X40882667Y-57798601D01*
X40894403Y-57820557D01*
X40910197Y-57839803D01*
X40929443Y-57855597D01*
X40951399Y-57867333D01*
X40975224Y-57874560D01*
X41000000Y-57877000D01*
X45750000Y-57877000D01*
X45774776Y-57874560D01*
X45798601Y-57867333D01*
X45820557Y-57855597D01*
X45839803Y-57839803D01*
X45855597Y-57820557D01*
X45867333Y-57798601D01*
X45874560Y-57774776D01*
X45877000Y-57750000D01*
X45877000Y-55127000D01*
X48250000Y-55127000D01*
X48274776Y-55124560D01*
X48298601Y-55117333D01*
X48320557Y-55105597D01*
X48339803Y-55089803D01*
X48355597Y-55070557D01*
X48367333Y-55048601D01*
X48374560Y-55024776D01*
X48377000Y-55000000D01*
X48377000Y-54352000D01*
X50400000Y-54352000D01*
X50424776Y-54349560D01*
X50448601Y-54342333D01*
X50470557Y-54330597D01*
X50489803Y-54314803D01*
X50505597Y-54295557D01*
X50517333Y-54273601D01*
X50524560Y-54249776D01*
X50527000Y-54225000D01*
X50527000Y-54138212D01*
X52215000Y-54138212D01*
X52215000Y-54361788D01*
X52258617Y-54581067D01*
X52344176Y-54787624D01*
X52468388Y-54973520D01*
X52626480Y-55131612D01*
X52812376Y-55255824D01*
X53018933Y-55341383D01*
X53238212Y-55385000D01*
X53461788Y-55385000D01*
X53681067Y-55341383D01*
X53887624Y-55255824D01*
X54068450Y-55135000D01*
X71906531Y-55135000D01*
X71950000Y-55139281D01*
X71993469Y-55135000D01*
X71993477Y-55135000D01*
X72123490Y-55122195D01*
X72290313Y-55071589D01*
X72444059Y-54989411D01*
X72578817Y-54878817D01*
X72606534Y-54845044D01*
X73971578Y-53480000D01*
X75621928Y-53480000D01*
X75621928Y-55180000D01*
X75634188Y-55304482D01*
X75670498Y-55424180D01*
X75729463Y-55534494D01*
X75808815Y-55631185D01*
X75905506Y-55710537D01*
X76015820Y-55769502D01*
X76088380Y-55791513D01*
X75956525Y-55923368D01*
X75794010Y-56166589D01*
X75682068Y-56436842D01*
X75625000Y-56723740D01*
X75625000Y-57016260D01*
X75682068Y-57303158D01*
X75794010Y-57573411D01*
X75956525Y-57816632D01*
X76163368Y-58023475D01*
X76406589Y-58185990D01*
X76676842Y-58297932D01*
X76963740Y-58355000D01*
X77256260Y-58355000D01*
X77543158Y-58297932D01*
X77813411Y-58185990D01*
X78056632Y-58023475D01*
X78263475Y-57816632D01*
X78425990Y-57573411D01*
X78537932Y-57303158D01*
X78595000Y-57016260D01*
X78595000Y-56723740D01*
X78537932Y-56436842D01*
X78425990Y-56166589D01*
X78263475Y-55923368D01*
X78131620Y-55791513D01*
X78204180Y-55769502D01*
X78314494Y-55710537D01*
X78411185Y-55631185D01*
X78490537Y-55534494D01*
X78549502Y-55424180D01*
X78585812Y-55304482D01*
X78598072Y-55180000D01*
X78598072Y-53480000D01*
X78585812Y-53355518D01*
X78549502Y-53235820D01*
X78490537Y-53125506D01*
X78411185Y-53028815D01*
X78314494Y-52949463D01*
X78204180Y-52890498D01*
X78084482Y-52854188D01*
X77960000Y-52841928D01*
X76260000Y-52841928D01*
X76135518Y-52854188D01*
X76015820Y-52890498D01*
X75905506Y-52949463D01*
X75808815Y-53028815D01*
X75729463Y-53125506D01*
X75670498Y-53235820D01*
X75634188Y-53355518D01*
X75621928Y-53480000D01*
X73971578Y-53480000D01*
X76367768Y-51083810D01*
X76581067Y-51041383D01*
X76787624Y-50955824D01*
X76973520Y-50831612D01*
X77131612Y-50673520D01*
X77255824Y-50487624D01*
X77341383Y-50281067D01*
X77385000Y-50061788D01*
X77385000Y-49838212D01*
X77341383Y-49618933D01*
X77255824Y-49412376D01*
X77131612Y-49226480D01*
X76973520Y-49068388D01*
X76787624Y-48944176D01*
X76581067Y-48858617D01*
X76361788Y-48815000D01*
X76138212Y-48815000D01*
X75918933Y-48858617D01*
X75712376Y-48944176D01*
X75526480Y-49068388D01*
X75368388Y-49226480D01*
X75244176Y-49412376D01*
X75158617Y-49618933D01*
X75116190Y-49832232D01*
X71583422Y-53365000D01*
X54068450Y-53365000D01*
X53887624Y-53244176D01*
X53681067Y-53158617D01*
X53461788Y-53115000D01*
X53238212Y-53115000D01*
X53018933Y-53158617D01*
X52812376Y-53244176D01*
X52626480Y-53368388D01*
X52468388Y-53526480D01*
X52344176Y-53712376D01*
X52258617Y-53918933D01*
X52215000Y-54138212D01*
X50527000Y-54138212D01*
X50527000Y-52775000D01*
X50524560Y-52750224D01*
X50517333Y-52726399D01*
X50505597Y-52704443D01*
X50489803Y-52685197D01*
X50470557Y-52669403D01*
X50448601Y-52657667D01*
X50424776Y-52650440D01*
X50400000Y-52648000D01*
X48377000Y-52648000D01*
X48377000Y-52000000D01*
X48374560Y-51975224D01*
X48367333Y-51951399D01*
X48355597Y-51929443D01*
X48339803Y-51910197D01*
X48320557Y-51894403D01*
X48298601Y-51882667D01*
X48274776Y-51875440D01*
X48250000Y-51873000D01*
X46377000Y-51873000D01*
X46377000Y-50000000D01*
X46376810Y-49998061D01*
X47715000Y-49998061D01*
X47715000Y-50201939D01*
X47754774Y-50401898D01*
X47832795Y-50590256D01*
X47946063Y-50759774D01*
X48090226Y-50903937D01*
X48259744Y-51017205D01*
X48448102Y-51095226D01*
X48648061Y-51135000D01*
X48851939Y-51135000D01*
X49051898Y-51095226D01*
X49240256Y-51017205D01*
X49409774Y-50903937D01*
X49553937Y-50759774D01*
X49667205Y-50590256D01*
X49745226Y-50401898D01*
X49785000Y-50201939D01*
X49785000Y-49998061D01*
X49745226Y-49798102D01*
X49667205Y-49609744D01*
X49553937Y-49440226D01*
X49409774Y-49296063D01*
X49240256Y-49182795D01*
X49051898Y-49104774D01*
X48851939Y-49065000D01*
X48648061Y-49065000D01*
X48448102Y-49104774D01*
X48259744Y-49182795D01*
X48090226Y-49296063D01*
X47946063Y-49440226D01*
X47832795Y-49609744D01*
X47754774Y-49798102D01*
X47715000Y-49998061D01*
X46376810Y-49998061D01*
X46374560Y-49975224D01*
X46367333Y-49951399D01*
X46355597Y-49929443D01*
X46339803Y-49910197D01*
X46320557Y-49894403D01*
X46298601Y-49882667D01*
X46274776Y-49875440D01*
X46250000Y-49873000D01*
X41000000Y-49873000D01*
X40975224Y-49875440D01*
X40951399Y-49882667D01*
X40929443Y-49894403D01*
X40910197Y-49910197D01*
X40894403Y-49929443D01*
X40882667Y-49951399D01*
X40875440Y-49975224D01*
X40873000Y-50000000D01*
X30660000Y-50000000D01*
X30660000Y-43638212D01*
X32115000Y-43638212D01*
X32115000Y-43861788D01*
X32158617Y-44081067D01*
X32244176Y-44287624D01*
X32368388Y-44473520D01*
X32526480Y-44631612D01*
X32712376Y-44755824D01*
X32918933Y-44841383D01*
X33138212Y-44885000D01*
X33259868Y-44885000D01*
X33118388Y-45026480D01*
X32994176Y-45212376D01*
X32908617Y-45418933D01*
X32865000Y-45638212D01*
X32865000Y-45861788D01*
X32908617Y-46081067D01*
X32994176Y-46287624D01*
X33118388Y-46473520D01*
X33276480Y-46631612D01*
X33453660Y-46750000D01*
X33276480Y-46868388D01*
X33118388Y-47026480D01*
X32994176Y-47212376D01*
X32908617Y-47418933D01*
X32865000Y-47638212D01*
X32865000Y-47861788D01*
X32908617Y-48081067D01*
X32994176Y-48287624D01*
X33118388Y-48473520D01*
X33276480Y-48631612D01*
X33462376Y-48755824D01*
X33668933Y-48841383D01*
X33888212Y-48885000D01*
X34111788Y-48885000D01*
X34331067Y-48841383D01*
X34537624Y-48755824D01*
X34723520Y-48631612D01*
X34881612Y-48473520D01*
X35005824Y-48287624D01*
X35091383Y-48081067D01*
X35135000Y-47861788D01*
X35135000Y-47638212D01*
X35091383Y-47418933D01*
X35005824Y-47212376D01*
X34881612Y-47026480D01*
X34723520Y-46868388D01*
X34546340Y-46750000D01*
X34723520Y-46631612D01*
X34881612Y-46473520D01*
X35005824Y-46287624D01*
X35091383Y-46081067D01*
X35135000Y-45861788D01*
X35135000Y-45638212D01*
X36615000Y-45638212D01*
X36615000Y-45861788D01*
X36658617Y-46081067D01*
X36744176Y-46287624D01*
X36868388Y-46473520D01*
X37026480Y-46631612D01*
X37203660Y-46750000D01*
X37026480Y-46868388D01*
X36868388Y-47026480D01*
X36744176Y-47212376D01*
X36658617Y-47418933D01*
X36615000Y-47638212D01*
X36615000Y-47861788D01*
X36658617Y-48081067D01*
X36744176Y-48287624D01*
X36868388Y-48473520D01*
X37026480Y-48631612D01*
X37212376Y-48755824D01*
X37418933Y-48841383D01*
X37638212Y-48885000D01*
X37861788Y-48885000D01*
X38081067Y-48841383D01*
X38287624Y-48755824D01*
X38473520Y-48631612D01*
X38631612Y-48473520D01*
X38755824Y-48287624D01*
X38841383Y-48081067D01*
X38885000Y-47861788D01*
X38885000Y-47638212D01*
X38841383Y-47418933D01*
X38832738Y-47398061D01*
X45915000Y-47398061D01*
X45915000Y-47601939D01*
X45954774Y-47801898D01*
X46032795Y-47990256D01*
X46146063Y-48159774D01*
X46290226Y-48303937D01*
X46459744Y-48417205D01*
X46648102Y-48495226D01*
X46848061Y-48535000D01*
X47051939Y-48535000D01*
X47251898Y-48495226D01*
X47440256Y-48417205D01*
X47468907Y-48398061D01*
X59365000Y-48398061D01*
X59365000Y-48601939D01*
X59404774Y-48801898D01*
X59482795Y-48990256D01*
X59596063Y-49159774D01*
X59740226Y-49303937D01*
X59909744Y-49417205D01*
X60098102Y-49495226D01*
X60298061Y-49535000D01*
X60501939Y-49535000D01*
X60687645Y-49498061D01*
X63715000Y-49498061D01*
X63715000Y-49701939D01*
X63754774Y-49901898D01*
X63832795Y-50090256D01*
X63946063Y-50259774D01*
X64090226Y-50403937D01*
X64259744Y-50517205D01*
X64448102Y-50595226D01*
X64648061Y-50635000D01*
X64851939Y-50635000D01*
X65051898Y-50595226D01*
X65240256Y-50517205D01*
X65409774Y-50403937D01*
X65553937Y-50259774D01*
X65667205Y-50090256D01*
X65745226Y-49901898D01*
X65785000Y-49701939D01*
X65785000Y-49498061D01*
X65745226Y-49298102D01*
X65667205Y-49109744D01*
X65553937Y-48940226D01*
X65409774Y-48796063D01*
X65240256Y-48682795D01*
X65051898Y-48604774D01*
X64851939Y-48565000D01*
X64648061Y-48565000D01*
X64448102Y-48604774D01*
X64259744Y-48682795D01*
X64090226Y-48796063D01*
X63946063Y-48940226D01*
X63832795Y-49109744D01*
X63754774Y-49298102D01*
X63715000Y-49498061D01*
X60687645Y-49498061D01*
X60701898Y-49495226D01*
X60890256Y-49417205D01*
X61059774Y-49303937D01*
X61203937Y-49159774D01*
X61317205Y-48990256D01*
X61395226Y-48801898D01*
X61435000Y-48601939D01*
X61435000Y-48398061D01*
X61395226Y-48198102D01*
X61317205Y-48009744D01*
X61203937Y-47840226D01*
X61059774Y-47696063D01*
X60890256Y-47582795D01*
X60701898Y-47504774D01*
X60501939Y-47465000D01*
X60298061Y-47465000D01*
X60098102Y-47504774D01*
X59909744Y-47582795D01*
X59740226Y-47696063D01*
X59596063Y-47840226D01*
X59482795Y-48009744D01*
X59404774Y-48198102D01*
X59365000Y-48398061D01*
X47468907Y-48398061D01*
X47609774Y-48303937D01*
X47753937Y-48159774D01*
X47867205Y-47990256D01*
X47945226Y-47801898D01*
X47985000Y-47601939D01*
X47985000Y-47398061D01*
X47945226Y-47198102D01*
X47867205Y-47009744D01*
X47753937Y-46840226D01*
X47609774Y-46696063D01*
X47440256Y-46582795D01*
X47251898Y-46504774D01*
X47051939Y-46465000D01*
X46848061Y-46465000D01*
X46648102Y-46504774D01*
X46459744Y-46582795D01*
X46290226Y-46696063D01*
X46146063Y-46840226D01*
X46032795Y-47009744D01*
X45954774Y-47198102D01*
X45915000Y-47398061D01*
X38832738Y-47398061D01*
X38755824Y-47212376D01*
X38631612Y-47026480D01*
X38473520Y-46868388D01*
X38296340Y-46750000D01*
X38473520Y-46631612D01*
X38631612Y-46473520D01*
X38755824Y-46287624D01*
X38841383Y-46081067D01*
X38885000Y-45861788D01*
X38885000Y-45638212D01*
X38841383Y-45418933D01*
X38755824Y-45212376D01*
X38631612Y-45026480D01*
X38473520Y-44868388D01*
X38287624Y-44744176D01*
X38081067Y-44658617D01*
X37861788Y-44615000D01*
X37638212Y-44615000D01*
X37418933Y-44658617D01*
X37212376Y-44744176D01*
X37026480Y-44868388D01*
X36868388Y-45026480D01*
X36744176Y-45212376D01*
X36658617Y-45418933D01*
X36615000Y-45638212D01*
X35135000Y-45638212D01*
X35091383Y-45418933D01*
X35005824Y-45212376D01*
X34881612Y-45026480D01*
X34723520Y-44868388D01*
X34537624Y-44744176D01*
X34331067Y-44658617D01*
X34111788Y-44615000D01*
X33990132Y-44615000D01*
X34131612Y-44473520D01*
X34182032Y-44398061D01*
X48965000Y-44398061D01*
X48965000Y-44601939D01*
X49004774Y-44801898D01*
X49082795Y-44990256D01*
X49196063Y-45159774D01*
X49340226Y-45303937D01*
X49509744Y-45417205D01*
X49698102Y-45495226D01*
X49898061Y-45535000D01*
X50101939Y-45535000D01*
X50301898Y-45495226D01*
X50490256Y-45417205D01*
X50659774Y-45303937D01*
X50803937Y-45159774D01*
X50888570Y-45033112D01*
X50898061Y-45035000D01*
X51101939Y-45035000D01*
X51301898Y-44995226D01*
X51490256Y-44917205D01*
X51659774Y-44803937D01*
X51803937Y-44659774D01*
X51917205Y-44490256D01*
X51995226Y-44301898D01*
X52035000Y-44101939D01*
X52035000Y-43917263D01*
X52109744Y-43967205D01*
X52298102Y-44045226D01*
X52498061Y-44085000D01*
X52701939Y-44085000D01*
X52901898Y-44045226D01*
X53090256Y-43967205D01*
X53259774Y-43853937D01*
X53403937Y-43709774D01*
X53517205Y-43540256D01*
X53595226Y-43351898D01*
X53635000Y-43151939D01*
X53635000Y-42948061D01*
X54565000Y-42948061D01*
X54565000Y-43151939D01*
X54604774Y-43351898D01*
X54682795Y-43540256D01*
X54796063Y-43709774D01*
X54940226Y-43853937D01*
X55109744Y-43967205D01*
X55298102Y-44045226D01*
X55498061Y-44085000D01*
X55701939Y-44085000D01*
X55901898Y-44045226D01*
X56090256Y-43967205D01*
X56259774Y-43853937D01*
X56403937Y-43709774D01*
X56517205Y-43540256D01*
X56595226Y-43351898D01*
X56635000Y-43151939D01*
X56635000Y-43098061D01*
X67915000Y-43098061D01*
X67915000Y-43301939D01*
X67954774Y-43501898D01*
X68032795Y-43690256D01*
X68146063Y-43859774D01*
X68290226Y-44003937D01*
X68459744Y-44117205D01*
X68648102Y-44195226D01*
X68848061Y-44235000D01*
X69051939Y-44235000D01*
X69251898Y-44195226D01*
X69440256Y-44117205D01*
X69609774Y-44003937D01*
X69753937Y-43859774D01*
X69867205Y-43690256D01*
X69945226Y-43501898D01*
X69985000Y-43301939D01*
X69985000Y-43098061D01*
X69945226Y-42898102D01*
X69867205Y-42709744D01*
X69753937Y-42540226D01*
X69609774Y-42396063D01*
X69440256Y-42282795D01*
X69251898Y-42204774D01*
X69051939Y-42165000D01*
X68848061Y-42165000D01*
X68648102Y-42204774D01*
X68459744Y-42282795D01*
X68290226Y-42396063D01*
X68146063Y-42540226D01*
X68032795Y-42709744D01*
X67954774Y-42898102D01*
X67915000Y-43098061D01*
X56635000Y-43098061D01*
X56635000Y-42948061D01*
X56595226Y-42748102D01*
X56517205Y-42559744D01*
X56403937Y-42390226D01*
X56259774Y-42246063D01*
X56090256Y-42132795D01*
X55901898Y-42054774D01*
X55701939Y-42015000D01*
X55498061Y-42015000D01*
X55298102Y-42054774D01*
X55109744Y-42132795D01*
X54940226Y-42246063D01*
X54796063Y-42390226D01*
X54682795Y-42559744D01*
X54604774Y-42748102D01*
X54565000Y-42948061D01*
X53635000Y-42948061D01*
X53595226Y-42748102D01*
X53517205Y-42559744D01*
X53403937Y-42390226D01*
X53259774Y-42246063D01*
X53090256Y-42132795D01*
X52901898Y-42054774D01*
X52701939Y-42015000D01*
X52498061Y-42015000D01*
X52298102Y-42054774D01*
X52109744Y-42132795D01*
X51940226Y-42246063D01*
X51796063Y-42390226D01*
X51682795Y-42559744D01*
X51604774Y-42748102D01*
X51565000Y-42948061D01*
X51565000Y-43132737D01*
X51490256Y-43082795D01*
X51301898Y-43004774D01*
X51101939Y-42965000D01*
X50898061Y-42965000D01*
X50698102Y-43004774D01*
X50509744Y-43082795D01*
X50340226Y-43196063D01*
X50196063Y-43340226D01*
X50111430Y-43466888D01*
X50101939Y-43465000D01*
X49898061Y-43465000D01*
X49698102Y-43504774D01*
X49509744Y-43582795D01*
X49340226Y-43696063D01*
X49196063Y-43840226D01*
X49082795Y-44009744D01*
X49004774Y-44198102D01*
X48965000Y-44398061D01*
X34182032Y-44398061D01*
X34255824Y-44287624D01*
X34341383Y-44081067D01*
X34385000Y-43861788D01*
X34385000Y-43638212D01*
X34341383Y-43418933D01*
X34255824Y-43212376D01*
X34131612Y-43026480D01*
X33973520Y-42868388D01*
X33787624Y-42744176D01*
X33581067Y-42658617D01*
X33361788Y-42615000D01*
X33138212Y-42615000D01*
X32918933Y-42658617D01*
X32712376Y-42744176D01*
X32526480Y-42868388D01*
X32368388Y-43026480D01*
X32244176Y-43212376D01*
X32158617Y-43418933D01*
X32115000Y-43638212D01*
X30660000Y-43638212D01*
X30660000Y-38482818D01*
X31696787Y-38482818D01*
X32188946Y-39085149D01*
X33039933Y-39555063D01*
X33966243Y-39849929D01*
X34932281Y-39958414D01*
X35900921Y-39876351D01*
X36834938Y-39606893D01*
X37698440Y-39160394D01*
X37811054Y-39085149D01*
X38303213Y-38482818D01*
X71696787Y-38482818D01*
X72188946Y-39085149D01*
X73039933Y-39555063D01*
X73966243Y-39849929D01*
X74932281Y-39958414D01*
X75900921Y-39876351D01*
X76834938Y-39606893D01*
X77698440Y-39160394D01*
X77811054Y-39085149D01*
X78303213Y-38482818D01*
X75000000Y-35179605D01*
X71696787Y-38482818D01*
X38303213Y-38482818D01*
X35000000Y-35179605D01*
X31696787Y-38482818D01*
X30660000Y-38482818D01*
X30660000Y-37351093D01*
X30839606Y-37698440D01*
X30914851Y-37811054D01*
X31517182Y-38303213D01*
X34820395Y-35000000D01*
X35179605Y-35000000D01*
X38482818Y-38303213D01*
X39085149Y-37811054D01*
X39555063Y-36960067D01*
X39849929Y-36033757D01*
X39958414Y-35067719D01*
X39946940Y-34932281D01*
X70041586Y-34932281D01*
X70123649Y-35900921D01*
X70393107Y-36834938D01*
X70839606Y-37698440D01*
X70914851Y-37811054D01*
X71517182Y-38303213D01*
X74820395Y-35000000D01*
X71517182Y-31696787D01*
X70914851Y-32188946D01*
X70444937Y-33039933D01*
X70150071Y-33966243D01*
X70041586Y-34932281D01*
X39946940Y-34932281D01*
X39876351Y-34099079D01*
X39606893Y-33165062D01*
X39160394Y-32301560D01*
X39085149Y-32188946D01*
X38964054Y-32090000D01*
X43751928Y-32090000D01*
X43751928Y-33790000D01*
X43764188Y-33914482D01*
X43800498Y-34034180D01*
X43859463Y-34144494D01*
X43938815Y-34241185D01*
X44035506Y-34320537D01*
X44145820Y-34379502D01*
X44265518Y-34415812D01*
X44390000Y-34428072D01*
X46090000Y-34428072D01*
X46214482Y-34415812D01*
X46334180Y-34379502D01*
X46444494Y-34320537D01*
X46541185Y-34241185D01*
X46620537Y-34144494D01*
X46679502Y-34034180D01*
X46703966Y-33953534D01*
X46779731Y-34037588D01*
X47013080Y-34211641D01*
X47275901Y-34336825D01*
X47423110Y-34381476D01*
X47653000Y-34260155D01*
X47653000Y-33067000D01*
X47907000Y-33067000D01*
X47907000Y-34260155D01*
X48136890Y-34381476D01*
X48284099Y-34336825D01*
X48546920Y-34211641D01*
X48780269Y-34037588D01*
X48975178Y-33821355D01*
X49124157Y-33571252D01*
X49221481Y-33296891D01*
X49100814Y-33067000D01*
X47907000Y-33067000D01*
X47653000Y-33067000D01*
X47633000Y-33067000D01*
X47633000Y-32813000D01*
X47653000Y-32813000D01*
X47653000Y-31619845D01*
X47907000Y-31619845D01*
X47907000Y-32813000D01*
X49100814Y-32813000D01*
X49221481Y-32583109D01*
X49124157Y-32308748D01*
X48975178Y-32058645D01*
X48940345Y-32020000D01*
X51591928Y-32020000D01*
X51591928Y-33720000D01*
X51604188Y-33844482D01*
X51640498Y-33964180D01*
X51699463Y-34074494D01*
X51778815Y-34171185D01*
X51875506Y-34250537D01*
X51985820Y-34309502D01*
X52105518Y-34345812D01*
X52230000Y-34358072D01*
X53930000Y-34358072D01*
X54054482Y-34345812D01*
X54174180Y-34309502D01*
X54284494Y-34250537D01*
X54381185Y-34171185D01*
X54460537Y-34074494D01*
X54519502Y-33964180D01*
X54541513Y-33891620D01*
X54673368Y-34023475D01*
X54916589Y-34185990D01*
X55186842Y-34297932D01*
X55473740Y-34355000D01*
X55766260Y-34355000D01*
X56053158Y-34297932D01*
X56323411Y-34185990D01*
X56566632Y-34023475D01*
X56773475Y-33816632D01*
X56935990Y-33573411D01*
X57047932Y-33303158D01*
X57105000Y-33016260D01*
X57105000Y-32723740D01*
X57047932Y-32436842D01*
X56935990Y-32166589D01*
X56773475Y-31923368D01*
X56566632Y-31716525D01*
X56323411Y-31554010D01*
X56053158Y-31442068D01*
X55766260Y-31385000D01*
X55473740Y-31385000D01*
X55186842Y-31442068D01*
X54916589Y-31554010D01*
X54673368Y-31716525D01*
X54541513Y-31848380D01*
X54519502Y-31775820D01*
X54460537Y-31665506D01*
X54381185Y-31568815D01*
X54284494Y-31489463D01*
X54174180Y-31430498D01*
X54054482Y-31394188D01*
X53930000Y-31381928D01*
X52230000Y-31381928D01*
X52105518Y-31394188D01*
X51985820Y-31430498D01*
X51875506Y-31489463D01*
X51778815Y-31568815D01*
X51699463Y-31665506D01*
X51640498Y-31775820D01*
X51604188Y-31895518D01*
X51591928Y-32020000D01*
X48940345Y-32020000D01*
X48780269Y-31842412D01*
X48546920Y-31668359D01*
X48284099Y-31543175D01*
X48136890Y-31498524D01*
X47907000Y-31619845D01*
X47653000Y-31619845D01*
X47423110Y-31498524D01*
X47275901Y-31543175D01*
X47013080Y-31668359D01*
X46779731Y-31842412D01*
X46703966Y-31926466D01*
X46679502Y-31845820D01*
X46620537Y-31735506D01*
X46541185Y-31638815D01*
X46444494Y-31559463D01*
X46334180Y-31500498D01*
X46214482Y-31464188D01*
X46090000Y-31451928D01*
X44390000Y-31451928D01*
X44265518Y-31464188D01*
X44145820Y-31500498D01*
X44035506Y-31559463D01*
X43938815Y-31638815D01*
X43859463Y-31735506D01*
X43800498Y-31845820D01*
X43764188Y-31965518D01*
X43751928Y-32090000D01*
X38964054Y-32090000D01*
X38482818Y-31696787D01*
X35179605Y-35000000D01*
X34820395Y-35000000D01*
X34806253Y-34985858D01*
X34985858Y-34806253D01*
X35000000Y-34820395D01*
X38303213Y-31517182D01*
X37811054Y-30914851D01*
X37349534Y-30660000D01*
X72648907Y-30660000D01*
X72301560Y-30839606D01*
G37*
X72301560Y-30839606D02*
X72188946Y-30914851D01*
X71696787Y-31517182D01*
X75000000Y-34820395D01*
X75014143Y-34806253D01*
X75193748Y-34985858D01*
X75179605Y-35000000D01*
X78482818Y-38303213D01*
X79085149Y-37811054D01*
X79340000Y-37349534D01*
X79340001Y-72648909D01*
X79160394Y-72301560D01*
X79085149Y-72188946D01*
X78482818Y-71696787D01*
X75179605Y-75000000D01*
X75193748Y-75014143D01*
X75014143Y-75193748D01*
X75000000Y-75179605D01*
X71696787Y-78482818D01*
X72188946Y-79085149D01*
X72650466Y-79340000D01*
X37351093Y-79340000D01*
X37698440Y-79160394D01*
X37811054Y-79085149D01*
X38303213Y-78482818D01*
X35000000Y-75179605D01*
X34985858Y-75193748D01*
X34806253Y-75014143D01*
X34820395Y-75000000D01*
X35179605Y-75000000D01*
X38482818Y-78303213D01*
X39085149Y-77811054D01*
X39553034Y-76963740D01*
X47705000Y-76963740D01*
X47705000Y-77256260D01*
X47762068Y-77543158D01*
X47874010Y-77813411D01*
X48036525Y-78056632D01*
X48243368Y-78263475D01*
X48486589Y-78425990D01*
X48756842Y-78537932D01*
X49043740Y-78595000D01*
X49336260Y-78595000D01*
X49623158Y-78537932D01*
X49893411Y-78425990D01*
X50136632Y-78263475D01*
X50343475Y-78056632D01*
X50460000Y-77882240D01*
X50576525Y-78056632D01*
X50783368Y-78263475D01*
X51026589Y-78425990D01*
X51296842Y-78537932D01*
X51583740Y-78595000D01*
X51876260Y-78595000D01*
X52163158Y-78537932D01*
X52433411Y-78425990D01*
X52676632Y-78263475D01*
X52883475Y-78056632D01*
X53000000Y-77882240D01*
X53116525Y-78056632D01*
X53323368Y-78263475D01*
X53566589Y-78425990D01*
X53836842Y-78537932D01*
X54123740Y-78595000D01*
X54416260Y-78595000D01*
X54703158Y-78537932D01*
X54973411Y-78425990D01*
X55216632Y-78263475D01*
X55348487Y-78131620D01*
X55370498Y-78204180D01*
X55429463Y-78314494D01*
X55508815Y-78411185D01*
X55605506Y-78490537D01*
X55715820Y-78549502D01*
X55835518Y-78585812D01*
X55960000Y-78598072D01*
X57660000Y-78598072D01*
X57784482Y-78585812D01*
X57904180Y-78549502D01*
X58014494Y-78490537D01*
X58111185Y-78411185D01*
X58190537Y-78314494D01*
X58249502Y-78204180D01*
X58285812Y-78084482D01*
X58298072Y-77960000D01*
X58298072Y-76260000D01*
X58285812Y-76135518D01*
X58249502Y-76015820D01*
X58190537Y-75905506D01*
X58111185Y-75808815D01*
X58014494Y-75729463D01*
X57904180Y-75670498D01*
X57784482Y-75634188D01*
X57660000Y-75621928D01*
X55960000Y-75621928D01*
X55835518Y-75634188D01*
X55715820Y-75670498D01*
X55605506Y-75729463D01*
X55508815Y-75808815D01*
X55429463Y-75905506D01*
X55370498Y-76015820D01*
X55348487Y-76088380D01*
X55216632Y-75956525D01*
X54973411Y-75794010D01*
X54703158Y-75682068D01*
X54416260Y-75625000D01*
X54123740Y-75625000D01*
X53836842Y-75682068D01*
X53566589Y-75794010D01*
X53323368Y-75956525D01*
X53116525Y-76163368D01*
X53000000Y-76337760D01*
X52883475Y-76163368D01*
X52676632Y-75956525D01*
X52433411Y-75794010D01*
X52163158Y-75682068D01*
X51876260Y-75625000D01*
X51583740Y-75625000D01*
X51296842Y-75682068D01*
X51026589Y-75794010D01*
X50783368Y-75956525D01*
X50576525Y-76163368D01*
X50460000Y-76337760D01*
X50343475Y-76163368D01*
X50136632Y-75956525D01*
X49893411Y-75794010D01*
X49623158Y-75682068D01*
X49336260Y-75625000D01*
X49043740Y-75625000D01*
X48756842Y-75682068D01*
X48486589Y-75794010D01*
X48243368Y-75956525D01*
X48036525Y-76163368D01*
X47874010Y-76406589D01*
X47762068Y-76676842D01*
X47705000Y-76963740D01*
X39553034Y-76963740D01*
X39555063Y-76960067D01*
X39849929Y-76033757D01*
X39958414Y-75067719D01*
X39946940Y-74932281D01*
X70041586Y-74932281D01*
X70123649Y-75900921D01*
X70393107Y-76834938D01*
X70839606Y-77698440D01*
X70914851Y-77811054D01*
X71517182Y-78303213D01*
X74820395Y-75000000D01*
X71517182Y-71696787D01*
X70914851Y-72188946D01*
X70444937Y-73039933D01*
X70150071Y-73966243D01*
X70041586Y-74932281D01*
X39946940Y-74932281D01*
X39876351Y-74099079D01*
X39606893Y-73165062D01*
X39160394Y-72301560D01*
X39085149Y-72188946D01*
X38482818Y-71696787D01*
X35179605Y-75000000D01*
X34820395Y-75000000D01*
X31517182Y-71696787D01*
X30914851Y-72188946D01*
X30660000Y-72650466D01*
X30660000Y-71517182D01*
X31696787Y-71517182D01*
X35000000Y-74820395D01*
X38303213Y-71517182D01*
X71696787Y-71517182D01*
X75000000Y-74820395D01*
X78303213Y-71517182D01*
X77811054Y-70914851D01*
X76960067Y-70444937D01*
X76033757Y-70150071D01*
X75067719Y-70041586D01*
X74099079Y-70123649D01*
X73165062Y-70393107D01*
X72301560Y-70839606D01*
X72188946Y-70914851D01*
X71696787Y-71517182D01*
X38303213Y-71517182D01*
X37811054Y-70914851D01*
X36960067Y-70444937D01*
X36033757Y-70150071D01*
X35067719Y-70041586D01*
X34099079Y-70123649D01*
X33165062Y-70393107D01*
X32301560Y-70839606D01*
X32188946Y-70914851D01*
X31696787Y-71517182D01*
X30660000Y-71517182D01*
X30660000Y-64948061D01*
X50515000Y-64948061D01*
X50515000Y-65151939D01*
X50554774Y-65351898D01*
X50632795Y-65540256D01*
X50746063Y-65709774D01*
X50890226Y-65853937D01*
X51059744Y-65967205D01*
X51248102Y-66045226D01*
X51448061Y-66085000D01*
X51651939Y-66085000D01*
X51851898Y-66045226D01*
X52040256Y-65967205D01*
X52209774Y-65853937D01*
X52353937Y-65709774D01*
X52467205Y-65540256D01*
X52545226Y-65351898D01*
X52585000Y-65151939D01*
X52585000Y-64948061D01*
X52545226Y-64748102D01*
X52467205Y-64559744D01*
X52353937Y-64390226D01*
X52209774Y-64246063D01*
X52040256Y-64132795D01*
X51851898Y-64054774D01*
X51651939Y-64015000D01*
X51448061Y-64015000D01*
X51248102Y-64054774D01*
X51059744Y-64132795D01*
X50890226Y-64246063D01*
X50746063Y-64390226D01*
X50632795Y-64559744D01*
X50554774Y-64748102D01*
X50515000Y-64948061D01*
X30660000Y-64948061D01*
X30660000Y-62450000D01*
X32061928Y-62450000D01*
X32061928Y-64150000D01*
X32074188Y-64274482D01*
X32110498Y-64394180D01*
X32169463Y-64504494D01*
X32248815Y-64601185D01*
X32345506Y-64680537D01*
X32455820Y-64739502D01*
X32575518Y-64775812D01*
X32700000Y-64788072D01*
X34400000Y-64788072D01*
X34524482Y-64775812D01*
X34644180Y-64739502D01*
X34754494Y-64680537D01*
X34851185Y-64601185D01*
X34930537Y-64504494D01*
X34989502Y-64394180D01*
X35025812Y-64274482D01*
X35038072Y-64150000D01*
X35038072Y-63598061D01*
X59715000Y-63598061D01*
X59715000Y-63801939D01*
X59754774Y-64001898D01*
X59832795Y-64190256D01*
X59946063Y-64359774D01*
X60090226Y-64503937D01*
X60259744Y-64617205D01*
X60448102Y-64695226D01*
X60648061Y-64735000D01*
X60851939Y-64735000D01*
X61051898Y-64695226D01*
X61240256Y-64617205D01*
X61409774Y-64503937D01*
X61553937Y-64359774D01*
X61667205Y-64190256D01*
X61745226Y-64001898D01*
X61785000Y-63801939D01*
X61785000Y-63598061D01*
X61745226Y-63398102D01*
X61667205Y-63209744D01*
X61553937Y-63040226D01*
X61409774Y-62896063D01*
X61240256Y-62782795D01*
X61051898Y-62704774D01*
X60851939Y-62665000D01*
X60648061Y-62665000D01*
X60448102Y-62704774D01*
X60259744Y-62782795D01*
X60090226Y-62896063D01*
X59946063Y-63040226D01*
X59832795Y-63209744D01*
X59754774Y-63398102D01*
X59715000Y-63598061D01*
X35038072Y-63598061D01*
X35038072Y-62450000D01*
X35025812Y-62325518D01*
X34989502Y-62205820D01*
X34930537Y-62095506D01*
X34851185Y-61998815D01*
X34754494Y-61919463D01*
X34644180Y-61860498D01*
X34563534Y-61836034D01*
X34647588Y-61760269D01*
X34821641Y-61526920D01*
X34946825Y-61264099D01*
X34991476Y-61116890D01*
X34870155Y-60887000D01*
X33677000Y-60887000D01*
X33677000Y-60907000D01*
X33423000Y-60907000D01*
X33423000Y-60887000D01*
X32229845Y-60887000D01*
X32108524Y-61116890D01*
X32153175Y-61264099D01*
X32278359Y-61526920D01*
X32452412Y-61760269D01*
X32536466Y-61836034D01*
X32455820Y-61860498D01*
X32345506Y-61919463D01*
X32248815Y-61998815D01*
X32169463Y-62095506D01*
X32110498Y-62205820D01*
X32074188Y-62325518D01*
X32061928Y-62450000D01*
X30660000Y-62450000D01*
X30660000Y-60403110D01*
X32108524Y-60403110D01*
X32229845Y-60633000D01*
X33423000Y-60633000D01*
X33423000Y-59439186D01*
X33677000Y-59439186D01*
X33677000Y-60633000D01*
X34870155Y-60633000D01*
X34991476Y-60403110D01*
X34946825Y-60255901D01*
X34821641Y-59993080D01*
X34750768Y-59898061D01*
X42215000Y-59898061D01*
X42215000Y-60101939D01*
X42254774Y-60301898D01*
X42332795Y-60490256D01*
X42339306Y-60500000D01*
X42332795Y-60509744D01*
X42254774Y-60698102D01*
X42215000Y-60898061D01*
X42215000Y-61101939D01*
X42254774Y-61301898D01*
X42332795Y-61490256D01*
X42446063Y-61659774D01*
X42590226Y-61803937D01*
X42759744Y-61917205D01*
X42948102Y-61995226D01*
X43148061Y-62035000D01*
X43351939Y-62035000D01*
X43551898Y-61995226D01*
X43562350Y-61990897D01*
X43582795Y-62040256D01*
X43696063Y-62209774D01*
X43840226Y-62353937D01*
X44009744Y-62467205D01*
X44198102Y-62545226D01*
X44398061Y-62585000D01*
X44601939Y-62585000D01*
X44801898Y-62545226D01*
X44990256Y-62467205D01*
X45159774Y-62353937D01*
X45303937Y-62209774D01*
X45417205Y-62040256D01*
X45495226Y-61851898D01*
X45535000Y-61651939D01*
X45535000Y-61448061D01*
X45495226Y-61248102D01*
X45417205Y-61059744D01*
X45303937Y-60890226D01*
X45159774Y-60746063D01*
X44990256Y-60632795D01*
X44801898Y-60554774D01*
X44601939Y-60515000D01*
X44398061Y-60515000D01*
X44198102Y-60554774D01*
X44187650Y-60559103D01*
X44167205Y-60509744D01*
X44160694Y-60500000D01*
X44167205Y-60490256D01*
X44245226Y-60301898D01*
X44285000Y-60101939D01*
X44285000Y-59898061D01*
X44245226Y-59698102D01*
X44167205Y-59509744D01*
X44053937Y-59340226D01*
X43909774Y-59196063D01*
X43740256Y-59082795D01*
X43551898Y-59004774D01*
X43351939Y-58965000D01*
X43148061Y-58965000D01*
X42948102Y-59004774D01*
X42759744Y-59082795D01*
X42590226Y-59196063D01*
X42446063Y-59340226D01*
X42332795Y-59509744D01*
X42254774Y-59698102D01*
X42215000Y-59898061D01*
X34750768Y-59898061D01*
X34647588Y-59759731D01*
X34431355Y-59564822D01*
X34181252Y-59415843D01*
X33906891Y-59318519D01*
X33677000Y-59439186D01*
X33423000Y-59439186D01*
X33193109Y-59318519D01*
X32918748Y-59415843D01*
X32668645Y-59564822D01*
X32452412Y-59759731D01*
X32278359Y-59993080D01*
X32153175Y-60255901D01*
X32108524Y-60403110D01*
X30660000Y-60403110D01*
X30660000Y-50000000D01*
X40873000Y-50000000D01*
X40873000Y-57750000D01*
X40875440Y-57774776D01*
X40882667Y-57798601D01*
X40894403Y-57820557D01*
X40910197Y-57839803D01*
X40929443Y-57855597D01*
X40951399Y-57867333D01*
X40975224Y-57874560D01*
X41000000Y-57877000D01*
X45750000Y-57877000D01*
X45774776Y-57874560D01*
X45798601Y-57867333D01*
X45820557Y-57855597D01*
X45839803Y-57839803D01*
X45855597Y-57820557D01*
X45867333Y-57798601D01*
X45874560Y-57774776D01*
X45877000Y-57750000D01*
X45877000Y-55127000D01*
X48250000Y-55127000D01*
X48274776Y-55124560D01*
X48298601Y-55117333D01*
X48320557Y-55105597D01*
X48339803Y-55089803D01*
X48355597Y-55070557D01*
X48367333Y-55048601D01*
X48374560Y-55024776D01*
X48377000Y-55000000D01*
X48377000Y-54352000D01*
X50400000Y-54352000D01*
X50424776Y-54349560D01*
X50448601Y-54342333D01*
X50470557Y-54330597D01*
X50489803Y-54314803D01*
X50505597Y-54295557D01*
X50517333Y-54273601D01*
X50524560Y-54249776D01*
X50527000Y-54225000D01*
X50527000Y-54138212D01*
X52215000Y-54138212D01*
X52215000Y-54361788D01*
X52258617Y-54581067D01*
X52344176Y-54787624D01*
X52468388Y-54973520D01*
X52626480Y-55131612D01*
X52812376Y-55255824D01*
X53018933Y-55341383D01*
X53238212Y-55385000D01*
X53461788Y-55385000D01*
X53681067Y-55341383D01*
X53887624Y-55255824D01*
X54068450Y-55135000D01*
X71906531Y-55135000D01*
X71950000Y-55139281D01*
X71993469Y-55135000D01*
X71993477Y-55135000D01*
X72123490Y-55122195D01*
X72290313Y-55071589D01*
X72444059Y-54989411D01*
X72578817Y-54878817D01*
X72606534Y-54845044D01*
X73971578Y-53480000D01*
X75621928Y-53480000D01*
X75621928Y-55180000D01*
X75634188Y-55304482D01*
X75670498Y-55424180D01*
X75729463Y-55534494D01*
X75808815Y-55631185D01*
X75905506Y-55710537D01*
X76015820Y-55769502D01*
X76088380Y-55791513D01*
X75956525Y-55923368D01*
X75794010Y-56166589D01*
X75682068Y-56436842D01*
X75625000Y-56723740D01*
X75625000Y-57016260D01*
X75682068Y-57303158D01*
X75794010Y-57573411D01*
X75956525Y-57816632D01*
X76163368Y-58023475D01*
X76406589Y-58185990D01*
X76676842Y-58297932D01*
X76963740Y-58355000D01*
X77256260Y-58355000D01*
X77543158Y-58297932D01*
X77813411Y-58185990D01*
X78056632Y-58023475D01*
X78263475Y-57816632D01*
X78425990Y-57573411D01*
X78537932Y-57303158D01*
X78595000Y-57016260D01*
X78595000Y-56723740D01*
X78537932Y-56436842D01*
X78425990Y-56166589D01*
X78263475Y-55923368D01*
X78131620Y-55791513D01*
X78204180Y-55769502D01*
X78314494Y-55710537D01*
X78411185Y-55631185D01*
X78490537Y-55534494D01*
X78549502Y-55424180D01*
X78585812Y-55304482D01*
X78598072Y-55180000D01*
X78598072Y-53480000D01*
X78585812Y-53355518D01*
X78549502Y-53235820D01*
X78490537Y-53125506D01*
X78411185Y-53028815D01*
X78314494Y-52949463D01*
X78204180Y-52890498D01*
X78084482Y-52854188D01*
X77960000Y-52841928D01*
X76260000Y-52841928D01*
X76135518Y-52854188D01*
X76015820Y-52890498D01*
X75905506Y-52949463D01*
X75808815Y-53028815D01*
X75729463Y-53125506D01*
X75670498Y-53235820D01*
X75634188Y-53355518D01*
X75621928Y-53480000D01*
X73971578Y-53480000D01*
X76367768Y-51083810D01*
X76581067Y-51041383D01*
X76787624Y-50955824D01*
X76973520Y-50831612D01*
X77131612Y-50673520D01*
X77255824Y-50487624D01*
X77341383Y-50281067D01*
X77385000Y-50061788D01*
X77385000Y-49838212D01*
X77341383Y-49618933D01*
X77255824Y-49412376D01*
X77131612Y-49226480D01*
X76973520Y-49068388D01*
X76787624Y-48944176D01*
X76581067Y-48858617D01*
X76361788Y-48815000D01*
X76138212Y-48815000D01*
X75918933Y-48858617D01*
X75712376Y-48944176D01*
X75526480Y-49068388D01*
X75368388Y-49226480D01*
X75244176Y-49412376D01*
X75158617Y-49618933D01*
X75116190Y-49832232D01*
X71583422Y-53365000D01*
X54068450Y-53365000D01*
X53887624Y-53244176D01*
X53681067Y-53158617D01*
X53461788Y-53115000D01*
X53238212Y-53115000D01*
X53018933Y-53158617D01*
X52812376Y-53244176D01*
X52626480Y-53368388D01*
X52468388Y-53526480D01*
X52344176Y-53712376D01*
X52258617Y-53918933D01*
X52215000Y-54138212D01*
X50527000Y-54138212D01*
X50527000Y-52775000D01*
X50524560Y-52750224D01*
X50517333Y-52726399D01*
X50505597Y-52704443D01*
X50489803Y-52685197D01*
X50470557Y-52669403D01*
X50448601Y-52657667D01*
X50424776Y-52650440D01*
X50400000Y-52648000D01*
X48377000Y-52648000D01*
X48377000Y-52000000D01*
X48374560Y-51975224D01*
X48367333Y-51951399D01*
X48355597Y-51929443D01*
X48339803Y-51910197D01*
X48320557Y-51894403D01*
X48298601Y-51882667D01*
X48274776Y-51875440D01*
X48250000Y-51873000D01*
X46377000Y-51873000D01*
X46377000Y-50000000D01*
X46376810Y-49998061D01*
X47715000Y-49998061D01*
X47715000Y-50201939D01*
X47754774Y-50401898D01*
X47832795Y-50590256D01*
X47946063Y-50759774D01*
X48090226Y-50903937D01*
X48259744Y-51017205D01*
X48448102Y-51095226D01*
X48648061Y-51135000D01*
X48851939Y-51135000D01*
X49051898Y-51095226D01*
X49240256Y-51017205D01*
X49409774Y-50903937D01*
X49553937Y-50759774D01*
X49667205Y-50590256D01*
X49745226Y-50401898D01*
X49785000Y-50201939D01*
X49785000Y-49998061D01*
X49745226Y-49798102D01*
X49667205Y-49609744D01*
X49553937Y-49440226D01*
X49409774Y-49296063D01*
X49240256Y-49182795D01*
X49051898Y-49104774D01*
X48851939Y-49065000D01*
X48648061Y-49065000D01*
X48448102Y-49104774D01*
X48259744Y-49182795D01*
X48090226Y-49296063D01*
X47946063Y-49440226D01*
X47832795Y-49609744D01*
X47754774Y-49798102D01*
X47715000Y-49998061D01*
X46376810Y-49998061D01*
X46374560Y-49975224D01*
X46367333Y-49951399D01*
X46355597Y-49929443D01*
X46339803Y-49910197D01*
X46320557Y-49894403D01*
X46298601Y-49882667D01*
X46274776Y-49875440D01*
X46250000Y-49873000D01*
X41000000Y-49873000D01*
X40975224Y-49875440D01*
X40951399Y-49882667D01*
X40929443Y-49894403D01*
X40910197Y-49910197D01*
X40894403Y-49929443D01*
X40882667Y-49951399D01*
X40875440Y-49975224D01*
X40873000Y-50000000D01*
X30660000Y-50000000D01*
X30660000Y-43638212D01*
X32115000Y-43638212D01*
X32115000Y-43861788D01*
X32158617Y-44081067D01*
X32244176Y-44287624D01*
X32368388Y-44473520D01*
X32526480Y-44631612D01*
X32712376Y-44755824D01*
X32918933Y-44841383D01*
X33138212Y-44885000D01*
X33259868Y-44885000D01*
X33118388Y-45026480D01*
X32994176Y-45212376D01*
X32908617Y-45418933D01*
X32865000Y-45638212D01*
X32865000Y-45861788D01*
X32908617Y-46081067D01*
X32994176Y-46287624D01*
X33118388Y-46473520D01*
X33276480Y-46631612D01*
X33453660Y-46750000D01*
X33276480Y-46868388D01*
X33118388Y-47026480D01*
X32994176Y-47212376D01*
X32908617Y-47418933D01*
X32865000Y-47638212D01*
X32865000Y-47861788D01*
X32908617Y-48081067D01*
X32994176Y-48287624D01*
X33118388Y-48473520D01*
X33276480Y-48631612D01*
X33462376Y-48755824D01*
X33668933Y-48841383D01*
X33888212Y-48885000D01*
X34111788Y-48885000D01*
X34331067Y-48841383D01*
X34537624Y-48755824D01*
X34723520Y-48631612D01*
X34881612Y-48473520D01*
X35005824Y-48287624D01*
X35091383Y-48081067D01*
X35135000Y-47861788D01*
X35135000Y-47638212D01*
X35091383Y-47418933D01*
X35005824Y-47212376D01*
X34881612Y-47026480D01*
X34723520Y-46868388D01*
X34546340Y-46750000D01*
X34723520Y-46631612D01*
X34881612Y-46473520D01*
X35005824Y-46287624D01*
X35091383Y-46081067D01*
X35135000Y-45861788D01*
X35135000Y-45638212D01*
X36615000Y-45638212D01*
X36615000Y-45861788D01*
X36658617Y-46081067D01*
X36744176Y-46287624D01*
X36868388Y-46473520D01*
X37026480Y-46631612D01*
X37203660Y-46750000D01*
X37026480Y-46868388D01*
X36868388Y-47026480D01*
X36744176Y-47212376D01*
X36658617Y-47418933D01*
X36615000Y-47638212D01*
X36615000Y-47861788D01*
X36658617Y-48081067D01*
X36744176Y-48287624D01*
X36868388Y-48473520D01*
X37026480Y-48631612D01*
X37212376Y-48755824D01*
X37418933Y-48841383D01*
X37638212Y-48885000D01*
X37861788Y-48885000D01*
X38081067Y-48841383D01*
X38287624Y-48755824D01*
X38473520Y-48631612D01*
X38631612Y-48473520D01*
X38755824Y-48287624D01*
X38841383Y-48081067D01*
X38885000Y-47861788D01*
X38885000Y-47638212D01*
X38841383Y-47418933D01*
X38832738Y-47398061D01*
X45915000Y-47398061D01*
X45915000Y-47601939D01*
X45954774Y-47801898D01*
X46032795Y-47990256D01*
X46146063Y-48159774D01*
X46290226Y-48303937D01*
X46459744Y-48417205D01*
X46648102Y-48495226D01*
X46848061Y-48535000D01*
X47051939Y-48535000D01*
X47251898Y-48495226D01*
X47440256Y-48417205D01*
X47468907Y-48398061D01*
X59365000Y-48398061D01*
X59365000Y-48601939D01*
X59404774Y-48801898D01*
X59482795Y-48990256D01*
X59596063Y-49159774D01*
X59740226Y-49303937D01*
X59909744Y-49417205D01*
X60098102Y-49495226D01*
X60298061Y-49535000D01*
X60501939Y-49535000D01*
X60687645Y-49498061D01*
X63715000Y-49498061D01*
X63715000Y-49701939D01*
X63754774Y-49901898D01*
X63832795Y-50090256D01*
X63946063Y-50259774D01*
X64090226Y-50403937D01*
X64259744Y-50517205D01*
X64448102Y-50595226D01*
X64648061Y-50635000D01*
X64851939Y-50635000D01*
X65051898Y-50595226D01*
X65240256Y-50517205D01*
X65409774Y-50403937D01*
X65553937Y-50259774D01*
X65667205Y-50090256D01*
X65745226Y-49901898D01*
X65785000Y-49701939D01*
X65785000Y-49498061D01*
X65745226Y-49298102D01*
X65667205Y-49109744D01*
X65553937Y-48940226D01*
X65409774Y-48796063D01*
X65240256Y-48682795D01*
X65051898Y-48604774D01*
X64851939Y-48565000D01*
X64648061Y-48565000D01*
X64448102Y-48604774D01*
X64259744Y-48682795D01*
X64090226Y-48796063D01*
X63946063Y-48940226D01*
X63832795Y-49109744D01*
X63754774Y-49298102D01*
X63715000Y-49498061D01*
X60687645Y-49498061D01*
X60701898Y-49495226D01*
X60890256Y-49417205D01*
X61059774Y-49303937D01*
X61203937Y-49159774D01*
X61317205Y-48990256D01*
X61395226Y-48801898D01*
X61435000Y-48601939D01*
X61435000Y-48398061D01*
X61395226Y-48198102D01*
X61317205Y-48009744D01*
X61203937Y-47840226D01*
X61059774Y-47696063D01*
X60890256Y-47582795D01*
X60701898Y-47504774D01*
X60501939Y-47465000D01*
X60298061Y-47465000D01*
X60098102Y-47504774D01*
X59909744Y-47582795D01*
X59740226Y-47696063D01*
X59596063Y-47840226D01*
X59482795Y-48009744D01*
X59404774Y-48198102D01*
X59365000Y-48398061D01*
X47468907Y-48398061D01*
X47609774Y-48303937D01*
X47753937Y-48159774D01*
X47867205Y-47990256D01*
X47945226Y-47801898D01*
X47985000Y-47601939D01*
X47985000Y-47398061D01*
X47945226Y-47198102D01*
X47867205Y-47009744D01*
X47753937Y-46840226D01*
X47609774Y-46696063D01*
X47440256Y-46582795D01*
X47251898Y-46504774D01*
X47051939Y-46465000D01*
X46848061Y-46465000D01*
X46648102Y-46504774D01*
X46459744Y-46582795D01*
X46290226Y-46696063D01*
X46146063Y-46840226D01*
X46032795Y-47009744D01*
X45954774Y-47198102D01*
X45915000Y-47398061D01*
X38832738Y-47398061D01*
X38755824Y-47212376D01*
X38631612Y-47026480D01*
X38473520Y-46868388D01*
X38296340Y-46750000D01*
X38473520Y-46631612D01*
X38631612Y-46473520D01*
X38755824Y-46287624D01*
X38841383Y-46081067D01*
X38885000Y-45861788D01*
X38885000Y-45638212D01*
X38841383Y-45418933D01*
X38755824Y-45212376D01*
X38631612Y-45026480D01*
X38473520Y-44868388D01*
X38287624Y-44744176D01*
X38081067Y-44658617D01*
X37861788Y-44615000D01*
X37638212Y-44615000D01*
X37418933Y-44658617D01*
X37212376Y-44744176D01*
X37026480Y-44868388D01*
X36868388Y-45026480D01*
X36744176Y-45212376D01*
X36658617Y-45418933D01*
X36615000Y-45638212D01*
X35135000Y-45638212D01*
X35091383Y-45418933D01*
X35005824Y-45212376D01*
X34881612Y-45026480D01*
X34723520Y-44868388D01*
X34537624Y-44744176D01*
X34331067Y-44658617D01*
X34111788Y-44615000D01*
X33990132Y-44615000D01*
X34131612Y-44473520D01*
X34182032Y-44398061D01*
X48965000Y-44398061D01*
X48965000Y-44601939D01*
X49004774Y-44801898D01*
X49082795Y-44990256D01*
X49196063Y-45159774D01*
X49340226Y-45303937D01*
X49509744Y-45417205D01*
X49698102Y-45495226D01*
X49898061Y-45535000D01*
X50101939Y-45535000D01*
X50301898Y-45495226D01*
X50490256Y-45417205D01*
X50659774Y-45303937D01*
X50803937Y-45159774D01*
X50888570Y-45033112D01*
X50898061Y-45035000D01*
X51101939Y-45035000D01*
X51301898Y-44995226D01*
X51490256Y-44917205D01*
X51659774Y-44803937D01*
X51803937Y-44659774D01*
X51917205Y-44490256D01*
X51995226Y-44301898D01*
X52035000Y-44101939D01*
X52035000Y-43917263D01*
X52109744Y-43967205D01*
X52298102Y-44045226D01*
X52498061Y-44085000D01*
X52701939Y-44085000D01*
X52901898Y-44045226D01*
X53090256Y-43967205D01*
X53259774Y-43853937D01*
X53403937Y-43709774D01*
X53517205Y-43540256D01*
X53595226Y-43351898D01*
X53635000Y-43151939D01*
X53635000Y-42948061D01*
X54565000Y-42948061D01*
X54565000Y-43151939D01*
X54604774Y-43351898D01*
X54682795Y-43540256D01*
X54796063Y-43709774D01*
X54940226Y-43853937D01*
X55109744Y-43967205D01*
X55298102Y-44045226D01*
X55498061Y-44085000D01*
X55701939Y-44085000D01*
X55901898Y-44045226D01*
X56090256Y-43967205D01*
X56259774Y-43853937D01*
X56403937Y-43709774D01*
X56517205Y-43540256D01*
X56595226Y-43351898D01*
X56635000Y-43151939D01*
X56635000Y-43098061D01*
X67915000Y-43098061D01*
X67915000Y-43301939D01*
X67954774Y-43501898D01*
X68032795Y-43690256D01*
X68146063Y-43859774D01*
X68290226Y-44003937D01*
X68459744Y-44117205D01*
X68648102Y-44195226D01*
X68848061Y-44235000D01*
X69051939Y-44235000D01*
X69251898Y-44195226D01*
X69440256Y-44117205D01*
X69609774Y-44003937D01*
X69753937Y-43859774D01*
X69867205Y-43690256D01*
X69945226Y-43501898D01*
X69985000Y-43301939D01*
X69985000Y-43098061D01*
X69945226Y-42898102D01*
X69867205Y-42709744D01*
X69753937Y-42540226D01*
X69609774Y-42396063D01*
X69440256Y-42282795D01*
X69251898Y-42204774D01*
X69051939Y-42165000D01*
X68848061Y-42165000D01*
X68648102Y-42204774D01*
X68459744Y-42282795D01*
X68290226Y-42396063D01*
X68146063Y-42540226D01*
X68032795Y-42709744D01*
X67954774Y-42898102D01*
X67915000Y-43098061D01*
X56635000Y-43098061D01*
X56635000Y-42948061D01*
X56595226Y-42748102D01*
X56517205Y-42559744D01*
X56403937Y-42390226D01*
X56259774Y-42246063D01*
X56090256Y-42132795D01*
X55901898Y-42054774D01*
X55701939Y-42015000D01*
X55498061Y-42015000D01*
X55298102Y-42054774D01*
X55109744Y-42132795D01*
X54940226Y-42246063D01*
X54796063Y-42390226D01*
X54682795Y-42559744D01*
X54604774Y-42748102D01*
X54565000Y-42948061D01*
X53635000Y-42948061D01*
X53595226Y-42748102D01*
X53517205Y-42559744D01*
X53403937Y-42390226D01*
X53259774Y-42246063D01*
X53090256Y-42132795D01*
X52901898Y-42054774D01*
X52701939Y-42015000D01*
X52498061Y-42015000D01*
X52298102Y-42054774D01*
X52109744Y-42132795D01*
X51940226Y-42246063D01*
X51796063Y-42390226D01*
X51682795Y-42559744D01*
X51604774Y-42748102D01*
X51565000Y-42948061D01*
X51565000Y-43132737D01*
X51490256Y-43082795D01*
X51301898Y-43004774D01*
X51101939Y-42965000D01*
X50898061Y-42965000D01*
X50698102Y-43004774D01*
X50509744Y-43082795D01*
X50340226Y-43196063D01*
X50196063Y-43340226D01*
X50111430Y-43466888D01*
X50101939Y-43465000D01*
X49898061Y-43465000D01*
X49698102Y-43504774D01*
X49509744Y-43582795D01*
X49340226Y-43696063D01*
X49196063Y-43840226D01*
X49082795Y-44009744D01*
X49004774Y-44198102D01*
X48965000Y-44398061D01*
X34182032Y-44398061D01*
X34255824Y-44287624D01*
X34341383Y-44081067D01*
X34385000Y-43861788D01*
X34385000Y-43638212D01*
X34341383Y-43418933D01*
X34255824Y-43212376D01*
X34131612Y-43026480D01*
X33973520Y-42868388D01*
X33787624Y-42744176D01*
X33581067Y-42658617D01*
X33361788Y-42615000D01*
X33138212Y-42615000D01*
X32918933Y-42658617D01*
X32712376Y-42744176D01*
X32526480Y-42868388D01*
X32368388Y-43026480D01*
X32244176Y-43212376D01*
X32158617Y-43418933D01*
X32115000Y-43638212D01*
X30660000Y-43638212D01*
X30660000Y-38482818D01*
X31696787Y-38482818D01*
X32188946Y-39085149D01*
X33039933Y-39555063D01*
X33966243Y-39849929D01*
X34932281Y-39958414D01*
X35900921Y-39876351D01*
X36834938Y-39606893D01*
X37698440Y-39160394D01*
X37811054Y-39085149D01*
X38303213Y-38482818D01*
X71696787Y-38482818D01*
X72188946Y-39085149D01*
X73039933Y-39555063D01*
X73966243Y-39849929D01*
X74932281Y-39958414D01*
X75900921Y-39876351D01*
X76834938Y-39606893D01*
X77698440Y-39160394D01*
X77811054Y-39085149D01*
X78303213Y-38482818D01*
X75000000Y-35179605D01*
X71696787Y-38482818D01*
X38303213Y-38482818D01*
X35000000Y-35179605D01*
X31696787Y-38482818D01*
X30660000Y-38482818D01*
X30660000Y-37351093D01*
X30839606Y-37698440D01*
X30914851Y-37811054D01*
X31517182Y-38303213D01*
X34820395Y-35000000D01*
X35179605Y-35000000D01*
X38482818Y-38303213D01*
X39085149Y-37811054D01*
X39555063Y-36960067D01*
X39849929Y-36033757D01*
X39958414Y-35067719D01*
X39946940Y-34932281D01*
X70041586Y-34932281D01*
X70123649Y-35900921D01*
X70393107Y-36834938D01*
X70839606Y-37698440D01*
X70914851Y-37811054D01*
X71517182Y-38303213D01*
X74820395Y-35000000D01*
X71517182Y-31696787D01*
X70914851Y-32188946D01*
X70444937Y-33039933D01*
X70150071Y-33966243D01*
X70041586Y-34932281D01*
X39946940Y-34932281D01*
X39876351Y-34099079D01*
X39606893Y-33165062D01*
X39160394Y-32301560D01*
X39085149Y-32188946D01*
X38964054Y-32090000D01*
X43751928Y-32090000D01*
X43751928Y-33790000D01*
X43764188Y-33914482D01*
X43800498Y-34034180D01*
X43859463Y-34144494D01*
X43938815Y-34241185D01*
X44035506Y-34320537D01*
X44145820Y-34379502D01*
X44265518Y-34415812D01*
X44390000Y-34428072D01*
X46090000Y-34428072D01*
X46214482Y-34415812D01*
X46334180Y-34379502D01*
X46444494Y-34320537D01*
X46541185Y-34241185D01*
X46620537Y-34144494D01*
X46679502Y-34034180D01*
X46703966Y-33953534D01*
X46779731Y-34037588D01*
X47013080Y-34211641D01*
X47275901Y-34336825D01*
X47423110Y-34381476D01*
X47653000Y-34260155D01*
X47653000Y-33067000D01*
X47907000Y-33067000D01*
X47907000Y-34260155D01*
X48136890Y-34381476D01*
X48284099Y-34336825D01*
X48546920Y-34211641D01*
X48780269Y-34037588D01*
X48975178Y-33821355D01*
X49124157Y-33571252D01*
X49221481Y-33296891D01*
X49100814Y-33067000D01*
X47907000Y-33067000D01*
X47653000Y-33067000D01*
X47633000Y-33067000D01*
X47633000Y-32813000D01*
X47653000Y-32813000D01*
X47653000Y-31619845D01*
X47907000Y-31619845D01*
X47907000Y-32813000D01*
X49100814Y-32813000D01*
X49221481Y-32583109D01*
X49124157Y-32308748D01*
X48975178Y-32058645D01*
X48940345Y-32020000D01*
X51591928Y-32020000D01*
X51591928Y-33720000D01*
X51604188Y-33844482D01*
X51640498Y-33964180D01*
X51699463Y-34074494D01*
X51778815Y-34171185D01*
X51875506Y-34250537D01*
X51985820Y-34309502D01*
X52105518Y-34345812D01*
X52230000Y-34358072D01*
X53930000Y-34358072D01*
X54054482Y-34345812D01*
X54174180Y-34309502D01*
X54284494Y-34250537D01*
X54381185Y-34171185D01*
X54460537Y-34074494D01*
X54519502Y-33964180D01*
X54541513Y-33891620D01*
X54673368Y-34023475D01*
X54916589Y-34185990D01*
X55186842Y-34297932D01*
X55473740Y-34355000D01*
X55766260Y-34355000D01*
X56053158Y-34297932D01*
X56323411Y-34185990D01*
X56566632Y-34023475D01*
X56773475Y-33816632D01*
X56935990Y-33573411D01*
X57047932Y-33303158D01*
X57105000Y-33016260D01*
X57105000Y-32723740D01*
X57047932Y-32436842D01*
X56935990Y-32166589D01*
X56773475Y-31923368D01*
X56566632Y-31716525D01*
X56323411Y-31554010D01*
X56053158Y-31442068D01*
X55766260Y-31385000D01*
X55473740Y-31385000D01*
X55186842Y-31442068D01*
X54916589Y-31554010D01*
X54673368Y-31716525D01*
X54541513Y-31848380D01*
X54519502Y-31775820D01*
X54460537Y-31665506D01*
X54381185Y-31568815D01*
X54284494Y-31489463D01*
X54174180Y-31430498D01*
X54054482Y-31394188D01*
X53930000Y-31381928D01*
X52230000Y-31381928D01*
X52105518Y-31394188D01*
X51985820Y-31430498D01*
X51875506Y-31489463D01*
X51778815Y-31568815D01*
X51699463Y-31665506D01*
X51640498Y-31775820D01*
X51604188Y-31895518D01*
X51591928Y-32020000D01*
X48940345Y-32020000D01*
X48780269Y-31842412D01*
X48546920Y-31668359D01*
X48284099Y-31543175D01*
X48136890Y-31498524D01*
X47907000Y-31619845D01*
X47653000Y-31619845D01*
X47423110Y-31498524D01*
X47275901Y-31543175D01*
X47013080Y-31668359D01*
X46779731Y-31842412D01*
X46703966Y-31926466D01*
X46679502Y-31845820D01*
X46620537Y-31735506D01*
X46541185Y-31638815D01*
X46444494Y-31559463D01*
X46334180Y-31500498D01*
X46214482Y-31464188D01*
X46090000Y-31451928D01*
X44390000Y-31451928D01*
X44265518Y-31464188D01*
X44145820Y-31500498D01*
X44035506Y-31559463D01*
X43938815Y-31638815D01*
X43859463Y-31735506D01*
X43800498Y-31845820D01*
X43764188Y-31965518D01*
X43751928Y-32090000D01*
X38964054Y-32090000D01*
X38482818Y-31696787D01*
X35179605Y-35000000D01*
X34820395Y-35000000D01*
X34806253Y-34985858D01*
X34985858Y-34806253D01*
X35000000Y-34820395D01*
X38303213Y-31517182D01*
X37811054Y-30914851D01*
X37349534Y-30660000D01*
X72648907Y-30660000D01*
X72301560Y-30839606D01*
M02*
