G04 #@! TF.GenerationSoftware,KiCad,Pcbnew,(5.1.5)-3*
G04 #@! TF.CreationDate,2020-06-14T16:13:44+03:00*
G04 #@! TF.ProjectId,dev_board,6465765f-626f-4617-9264-2e6b69636164,rev?*
G04 #@! TF.SameCoordinates,Original*
G04 #@! TF.FileFunction,Legend,Bot*
G04 #@! TF.FilePolarity,Positive*
%FSLAX46Y46*%
G04 Gerber Fmt 4.6, Leading zero omitted, Abs format (unit mm)*
G04 Created by KiCad (PCBNEW (5.1.5)-3) date 2020-06-14 16:13:44*
%MOMM*%
%LPD*%
G04 APERTURE LIST*
%ADD10C,0.150000*%
G04 APERTURE END LIST*
D10*
X56347619Y-75271428D02*
X57347619Y-75271428D01*
X56633333Y-74938095D01*
X57347619Y-74604761D01*
X56347619Y-74604761D01*
X57347619Y-73938095D02*
X57347619Y-73747619D01*
X57300000Y-73652380D01*
X57204761Y-73557142D01*
X57014285Y-73509523D01*
X56680952Y-73509523D01*
X56490476Y-73557142D01*
X56395238Y-73652380D01*
X56347619Y-73747619D01*
X56347619Y-73938095D01*
X56395238Y-74033333D01*
X56490476Y-74128571D01*
X56680952Y-74176190D01*
X57014285Y-74176190D01*
X57204761Y-74128571D01*
X57300000Y-74033333D01*
X57347619Y-73938095D01*
X56395238Y-73128571D02*
X56347619Y-72985714D01*
X56347619Y-72747619D01*
X56395238Y-72652380D01*
X56442857Y-72604761D01*
X56538095Y-72557142D01*
X56633333Y-72557142D01*
X56728571Y-72604761D01*
X56776190Y-72652380D01*
X56823809Y-72747619D01*
X56871428Y-72938095D01*
X56919047Y-73033333D01*
X56966666Y-73080952D01*
X57061904Y-73128571D01*
X57157142Y-73128571D01*
X57252380Y-73080952D01*
X57300000Y-73033333D01*
X57347619Y-72938095D01*
X57347619Y-72700000D01*
X57300000Y-72557142D01*
X56347619Y-72128571D02*
X57347619Y-72128571D01*
X53797619Y-75271428D02*
X54797619Y-75271428D01*
X54083333Y-74938095D01*
X54797619Y-74604761D01*
X53797619Y-74604761D01*
X53797619Y-74128571D02*
X54797619Y-74128571D01*
X53845238Y-73700000D02*
X53797619Y-73557142D01*
X53797619Y-73319047D01*
X53845238Y-73223809D01*
X53892857Y-73176190D01*
X53988095Y-73128571D01*
X54083333Y-73128571D01*
X54178571Y-73176190D01*
X54226190Y-73223809D01*
X54273809Y-73319047D01*
X54321428Y-73509523D01*
X54369047Y-73604761D01*
X54416666Y-73652380D01*
X54511904Y-73700000D01*
X54607142Y-73700000D01*
X54702380Y-73652380D01*
X54750000Y-73604761D01*
X54797619Y-73509523D01*
X54797619Y-73271428D01*
X54750000Y-73128571D01*
X54797619Y-72509523D02*
X54797619Y-72319047D01*
X54750000Y-72223809D01*
X54654761Y-72128571D01*
X54464285Y-72080952D01*
X54130952Y-72080952D01*
X53940476Y-72128571D01*
X53845238Y-72223809D01*
X53797619Y-72319047D01*
X53797619Y-72509523D01*
X53845238Y-72604761D01*
X53940476Y-72700000D01*
X54130952Y-72747619D01*
X54464285Y-72747619D01*
X54654761Y-72700000D01*
X54750000Y-72604761D01*
X54797619Y-72509523D01*
X51345238Y-74985714D02*
X51297619Y-74842857D01*
X51297619Y-74604761D01*
X51345238Y-74509523D01*
X51392857Y-74461904D01*
X51488095Y-74414285D01*
X51583333Y-74414285D01*
X51678571Y-74461904D01*
X51726190Y-74509523D01*
X51773809Y-74604761D01*
X51821428Y-74795238D01*
X51869047Y-74890476D01*
X51916666Y-74938095D01*
X52011904Y-74985714D01*
X52107142Y-74985714D01*
X52202380Y-74938095D01*
X52250000Y-74890476D01*
X52297619Y-74795238D01*
X52297619Y-74557142D01*
X52250000Y-74414285D01*
X51392857Y-73414285D02*
X51345238Y-73461904D01*
X51297619Y-73604761D01*
X51297619Y-73700000D01*
X51345238Y-73842857D01*
X51440476Y-73938095D01*
X51535714Y-73985714D01*
X51726190Y-74033333D01*
X51869047Y-74033333D01*
X52059523Y-73985714D01*
X52154761Y-73938095D01*
X52250000Y-73842857D01*
X52297619Y-73700000D01*
X52297619Y-73604761D01*
X52250000Y-73461904D01*
X52202380Y-73414285D01*
X51297619Y-72985714D02*
X52297619Y-72985714D01*
X51297619Y-72414285D02*
X51869047Y-72842857D01*
X52297619Y-72414285D02*
X51726190Y-72985714D01*
X48842857Y-74676190D02*
X48795238Y-74628571D01*
X48747619Y-74676190D01*
X48795238Y-74723809D01*
X48842857Y-74676190D01*
X48747619Y-74676190D01*
X49128571Y-74676190D02*
X49700000Y-74723809D01*
X49747619Y-74676190D01*
X49700000Y-74628571D01*
X49128571Y-74676190D01*
X49747619Y-74676190D01*
X48842857Y-73628571D02*
X48795238Y-73676190D01*
X48747619Y-73819047D01*
X48747619Y-73914285D01*
X48795238Y-74057142D01*
X48890476Y-74152380D01*
X48985714Y-74200000D01*
X49176190Y-74247619D01*
X49319047Y-74247619D01*
X49509523Y-74200000D01*
X49604761Y-74152380D01*
X49700000Y-74057142D01*
X49747619Y-73914285D01*
X49747619Y-73819047D01*
X49700000Y-73676190D01*
X49652380Y-73628571D01*
X48795238Y-73247619D02*
X48747619Y-73104761D01*
X48747619Y-72866666D01*
X48795238Y-72771428D01*
X48842857Y-72723809D01*
X48938095Y-72676190D01*
X49033333Y-72676190D01*
X49128571Y-72723809D01*
X49176190Y-72771428D01*
X49223809Y-72866666D01*
X49271428Y-73057142D01*
X49319047Y-73152380D01*
X49366666Y-73200000D01*
X49461904Y-73247619D01*
X49557142Y-73247619D01*
X49652380Y-73200000D01*
X49700000Y-73152380D01*
X49747619Y-73057142D01*
X49747619Y-72819047D01*
X49700000Y-72676190D01*
X74611904Y-56352380D02*
X74040476Y-56352380D01*
X74326190Y-57352380D02*
X74326190Y-56352380D01*
X73802380Y-56352380D02*
X73135714Y-57352380D01*
X73135714Y-56352380D02*
X73802380Y-57352380D01*
X74116666Y-54652380D02*
X74450000Y-54176190D01*
X74688095Y-54652380D02*
X74688095Y-53652380D01*
X74307142Y-53652380D01*
X74211904Y-53700000D01*
X74164285Y-53747619D01*
X74116666Y-53842857D01*
X74116666Y-53985714D01*
X74164285Y-54080952D01*
X74211904Y-54128571D01*
X74307142Y-54176190D01*
X74688095Y-54176190D01*
X73783333Y-53652380D02*
X73116666Y-54652380D01*
X73116666Y-53652380D02*
X73783333Y-54652380D01*
X38233333Y-62802380D02*
X37900000Y-63802380D01*
X37566666Y-62802380D01*
X36661904Y-63707142D02*
X36709523Y-63754761D01*
X36852380Y-63802380D01*
X36947619Y-63802380D01*
X37090476Y-63754761D01*
X37185714Y-63659523D01*
X37233333Y-63564285D01*
X37280952Y-63373809D01*
X37280952Y-63230952D01*
X37233333Y-63040476D01*
X37185714Y-62945238D01*
X37090476Y-62850000D01*
X36947619Y-62802380D01*
X36852380Y-62802380D01*
X36709523Y-62850000D01*
X36661904Y-62897619D01*
X35661904Y-63707142D02*
X35709523Y-63754761D01*
X35852380Y-63802380D01*
X35947619Y-63802380D01*
X36090476Y-63754761D01*
X36185714Y-63659523D01*
X36233333Y-63564285D01*
X36280952Y-63373809D01*
X36280952Y-63230952D01*
X36233333Y-63040476D01*
X36185714Y-62945238D01*
X36090476Y-62850000D01*
X35947619Y-62802380D01*
X35852380Y-62802380D01*
X35709523Y-62850000D01*
X35661904Y-62897619D01*
X37661904Y-60250000D02*
X37757142Y-60202380D01*
X37900000Y-60202380D01*
X38042857Y-60250000D01*
X38138095Y-60345238D01*
X38185714Y-60440476D01*
X38233333Y-60630952D01*
X38233333Y-60773809D01*
X38185714Y-60964285D01*
X38138095Y-61059523D01*
X38042857Y-61154761D01*
X37900000Y-61202380D01*
X37804761Y-61202380D01*
X37661904Y-61154761D01*
X37614285Y-61107142D01*
X37614285Y-60773809D01*
X37804761Y-60773809D01*
X37185714Y-61202380D02*
X37185714Y-60202380D01*
X36614285Y-61202380D01*
X36614285Y-60202380D01*
X36138095Y-61202380D02*
X36138095Y-60202380D01*
X35900000Y-60202380D01*
X35757142Y-60250000D01*
X35661904Y-60345238D01*
X35614285Y-60440476D01*
X35566666Y-60630952D01*
X35566666Y-60773809D01*
X35614285Y-60964285D01*
X35661904Y-61059523D01*
X35757142Y-61154761D01*
X35900000Y-61202380D01*
X36138095Y-61202380D01*
X55195238Y-37540476D02*
X55147619Y-37397619D01*
X55147619Y-37159523D01*
X55195238Y-37064285D01*
X55242857Y-37016666D01*
X55338095Y-36969047D01*
X55433333Y-36969047D01*
X55528571Y-37016666D01*
X55576190Y-37064285D01*
X55623809Y-37159523D01*
X55671428Y-37350000D01*
X55719047Y-37445238D01*
X55766666Y-37492857D01*
X55861904Y-37540476D01*
X55957142Y-37540476D01*
X56052380Y-37492857D01*
X56100000Y-37445238D01*
X56147619Y-37350000D01*
X56147619Y-37111904D01*
X56100000Y-36969047D01*
X55242857Y-35969047D02*
X55195238Y-36016666D01*
X55147619Y-36159523D01*
X55147619Y-36254761D01*
X55195238Y-36397619D01*
X55290476Y-36492857D01*
X55385714Y-36540476D01*
X55576190Y-36588095D01*
X55719047Y-36588095D01*
X55909523Y-36540476D01*
X56004761Y-36492857D01*
X56100000Y-36397619D01*
X56147619Y-36254761D01*
X56147619Y-36159523D01*
X56100000Y-36016666D01*
X56052380Y-35969047D01*
X55147619Y-35064285D02*
X55147619Y-35540476D01*
X56147619Y-35540476D01*
X52695238Y-37564285D02*
X52647619Y-37421428D01*
X52647619Y-37183333D01*
X52695238Y-37088095D01*
X52742857Y-37040476D01*
X52838095Y-36992857D01*
X52933333Y-36992857D01*
X53028571Y-37040476D01*
X53076190Y-37088095D01*
X53123809Y-37183333D01*
X53171428Y-37373809D01*
X53219047Y-37469047D01*
X53266666Y-37516666D01*
X53361904Y-37564285D01*
X53457142Y-37564285D01*
X53552380Y-37516666D01*
X53600000Y-37469047D01*
X53647619Y-37373809D01*
X53647619Y-37135714D01*
X53600000Y-36992857D01*
X52647619Y-36564285D02*
X53647619Y-36564285D01*
X53647619Y-36326190D01*
X53600000Y-36183333D01*
X53504761Y-36088095D01*
X53409523Y-36040476D01*
X53219047Y-35992857D01*
X53076190Y-35992857D01*
X52885714Y-36040476D01*
X52790476Y-36088095D01*
X52695238Y-36183333D01*
X52647619Y-36326190D01*
X52647619Y-36564285D01*
X52933333Y-35611904D02*
X52933333Y-35135714D01*
X52647619Y-35707142D02*
X53647619Y-35373809D01*
X52647619Y-35040476D01*
X48300000Y-37161904D02*
X48347619Y-37257142D01*
X48347619Y-37400000D01*
X48300000Y-37542857D01*
X48204761Y-37638095D01*
X48109523Y-37685714D01*
X47919047Y-37733333D01*
X47776190Y-37733333D01*
X47585714Y-37685714D01*
X47490476Y-37638095D01*
X47395238Y-37542857D01*
X47347619Y-37400000D01*
X47347619Y-37304761D01*
X47395238Y-37161904D01*
X47442857Y-37114285D01*
X47776190Y-37114285D01*
X47776190Y-37304761D01*
X47347619Y-36685714D02*
X48347619Y-36685714D01*
X47347619Y-36114285D01*
X48347619Y-36114285D01*
X47347619Y-35638095D02*
X48347619Y-35638095D01*
X48347619Y-35400000D01*
X48300000Y-35257142D01*
X48204761Y-35161904D01*
X48109523Y-35114285D01*
X47919047Y-35066666D01*
X47776190Y-35066666D01*
X47585714Y-35114285D01*
X47490476Y-35161904D01*
X47395238Y-35257142D01*
X47347619Y-35400000D01*
X47347619Y-35638095D01*
X45847619Y-37588095D02*
X45847619Y-36969047D01*
X45466666Y-37302380D01*
X45466666Y-37159523D01*
X45419047Y-37064285D01*
X45371428Y-37016666D01*
X45276190Y-36969047D01*
X45038095Y-36969047D01*
X44942857Y-37016666D01*
X44895238Y-37064285D01*
X44847619Y-37159523D01*
X44847619Y-37445238D01*
X44895238Y-37540476D01*
X44942857Y-37588095D01*
X45847619Y-36683333D02*
X44847619Y-36350000D01*
X45847619Y-36016666D01*
X45847619Y-35778571D02*
X45847619Y-35159523D01*
X45466666Y-35492857D01*
X45466666Y-35350000D01*
X45419047Y-35254761D01*
X45371428Y-35207142D01*
X45276190Y-35159523D01*
X45038095Y-35159523D01*
X44942857Y-35207142D01*
X44895238Y-35254761D01*
X44847619Y-35350000D01*
X44847619Y-35635714D01*
X44895238Y-35730952D01*
X44942857Y-35778571D01*
M02*
